<mxfile host="65bd71144e">
    <diagram id="F1lbSJ_1N4UoIxxz-bGx" name="Page-1">
        <mxGraphModel dx="1097" dy="467" grid="1" gridSize="10" guides="1" tooltips="1" connect="1" arrows="1" fold="1" page="1" pageScale="1" pageWidth="1100" pageHeight="850" math="0" shadow="0">
            <root>
                <mxCell id="0"/>
                <mxCell id="1" parent="0"/>
                <mxCell id="2" value="" style="rounded=1;whiteSpace=wrap;html=1;strokeWidth=3;strokeColor=#FF3333;" vertex="1" parent="1">
                    <mxGeometry x="250" y="295" width="720" height="60" as="geometry"/>
                </mxCell>
                <mxCell id="3" value="Partition 0" style="rounded=1;whiteSpace=wrap;html=1;" vertex="1" parent="1">
                    <mxGeometry x="250" y="295" width="120" height="60" as="geometry"/>
                </mxCell>
                <mxCell id="4" value="&lt;span&gt;Partition 1&lt;/span&gt;" style="rounded=1;whiteSpace=wrap;html=1;" vertex="1" parent="1">
                    <mxGeometry x="370" y="295" width="120" height="60" as="geometry"/>
                </mxCell>
                <mxCell id="5" value="&lt;span&gt;Partition 2&lt;/span&gt;" style="rounded=1;whiteSpace=wrap;html=1;" vertex="1" parent="1">
                    <mxGeometry x="490" y="295" width="120" height="60" as="geometry"/>
                </mxCell>
                <mxCell id="6" value="&lt;span&gt;Partition 3&lt;/span&gt;" style="rounded=1;whiteSpace=wrap;html=1;" vertex="1" parent="1">
                    <mxGeometry x="610" y="295" width="120" height="60" as="geometry"/>
                </mxCell>
                <mxCell id="7" value="&lt;span&gt;Partition 4&lt;/span&gt;" style="rounded=1;whiteSpace=wrap;html=1;" vertex="1" parent="1">
                    <mxGeometry x="730" y="295" width="120" height="60" as="geometry"/>
                </mxCell>
                <mxCell id="8" value="&lt;span&gt;Partition 5&lt;/span&gt;" style="rounded=1;whiteSpace=wrap;html=1;" vertex="1" parent="1">
                    <mxGeometry x="850" y="295" width="120" height="60" as="geometry"/>
                </mxCell>
                <mxCell id="9" value="" style="endArrow=none;html=1;strokeWidth=3;strokeColor=#FF3333;entryX=1;entryY=0.5;entryDx=0;entryDy=0;" edge="1" parent="1" target="10">
                    <mxGeometry width="50" height="50" relative="1" as="geometry">
                        <mxPoint x="240" y="325" as="sourcePoint"/>
                        <mxPoint x="200" y="325" as="targetPoint"/>
                    </mxGeometry>
                </mxCell>
                <mxCell id="10" value="&lt;font color=&quot;#ff3333&quot;&gt;Topic&lt;/font&gt;" style="text;html=1;strokeColor=none;fillColor=none;align=center;verticalAlign=middle;whiteSpace=wrap;rounded=0;" vertex="1" parent="1">
                    <mxGeometry x="130" y="310" width="60" height="30" as="geometry"/>
                </mxCell>
                <mxCell id="12" value="Disk x1" style="shape=image;verticalLabelPosition=bottom;labelBackgroundColor=none;verticalAlign=top;aspect=fixed;imageAspect=0;image=data:image/png,iVBORw0KGgoAAAANSUhEUgAAAIAAAACACAYAAADDPmHLAAAACXBIWXMAAAsTAAALEwEAmpwYAAAgAElEQVR4nO19B5xkVZV+gwir64JhFXUNGBABCUsakoDwV0TCwIwEARFRQEkiQaJsS1RgBhxw/w5JmDw902Gmc6iurpxzdc4559w902fPd9971a+rq9NMd1fN0O/3+35V/aq63r3nfPfcc85NcXEr18q1jNcRK5gXDvkr2gI8XBHzV7QF9HFBTF7RFsrHETFzRVsQH2dE/TokChnFSy2Dw44AMVuwGL8ORLkxLetpBUpISDjaZHfdaXP5k+1un97p9etdvqDe7Q/qvcFCva+wSO8vKtEHi0r1wZJSfWFpGaNCX1Q2iZKKSn3pFFRJqFSjOoQy1ftJhH9f+o2SECrFa6l4VaFsOooEppaxiMtcGALXoQSQ6gSgjgJcXx/X2ysQ1HsChTq3kEeAX/06l8evczBYVjqby6Mz2916s8OdYbDaH03Waj87g5xjhgDKJQq0x2j8D5PNkeIrKqVgSQUVllVRSVUtldfUU2VdA1XVN1J1QxPVNrUI1DW3Un1LGzUAre3U2NZBTUB7JzV3dKnQTS2d4eiRMdt7Bv+v+P8O5f3kb4rX9q7Qa1PH5HsJnSE0KVDKyEB5G1slNLS0i3rUo06MuiaA69nYQjWNzaLeqD/kUFFbTxUsk7LqOipl+ZRU1lBxRTUVlVdRsLSCAsVljFKyOFzOtDzDt9UyjoDYubR682t+Vj63eAIJCrlCqGBlbQNV1zdRDZTPwpCU3yIJSyYABApBhwgBgYIUArKg28LROQtApC5q7ZIIMZVQkQHCtDJQjsbQsyU0KGhpn1S2AihcrXSBZqF4/F3f0hr6u6axaRoZymvqBBnQWECCQEk5uQOF3IjKSG+2ZWm12qNUYo5NAmRnZ39JZzK3CeUXlgpGV3Ll6rjSjSyA5rZ2amlvp9b2Dmrt6KS2zk5q7+qijq5u6u7tZYG2ksXpJrPDSXa3l+weBT5yAF4F/mlw+gLkkOFUweLyCEE2trZR78Ag9fQPUHdf/zTgPj5HOb2FRWTj5+NZLn9AhaAMfu+T4PT5Q1CXB2UGrC43GWx24i5C1LWV69za0SHkAHk0tzHxuWx4bj03iDomSTUTo5zJwN0OeYNcFpdnv0avPy+CyGOMAPmGVdxvkYeFxH0kVdXWUQNXqIUr2t7ZRZ3d3dTV3UPdPT1C4T29fdTb308Dg4NUW99AWoOJAkXF1MWf476CvoGByIDS+qf+Pfn5oEAnP4/7dTLZnVRcXiHuDY+M0uDwMA0ODYvX4ZERcb+4vJKMNgeV8PdAzp7efvH7UyGVqadPRq/qfV+fqBPQLdAr6oK66cxW8gSC4m98D6+QBWTSyQ2gg8nRzs9sY3I0MyHqm5q48dQJ4gSKS8hgtt41g9hjhwC5+fqr0VL9hcVUxn1aHZs6KB+VgzB6+ySFQ1H9rKTBoSEaHByikrJyKjCaqaaunkZYGcPTMCowMjoXxlSv0vvRsTEaGx9ngfdyayoUrbq2oZHLAuINCcXhb1gads6EUkbHxsX/RXrGsPI6Eg6prEPAsIJhgWF+DyXb2Bpwny4aA+reBzL19Qu59KgIA3nBMkB+7NwKAlvtzidnEHvsEECjN90JIbI3TFXcpzWySQOrUTFUFkpHa4fSoeg+rriLFWJmE9nOzB+D0Pk+MArlyRhRKQOKORCABPh/tC6lVcEiBErYTykrY6K2hb43799Vyjg2nSRqUgC4P8h1D/Jz9WYL1bNyh0aGhTwgl35hwSTr0s1khQVqamlhOdZSRXUN2ZzuddHW75wXt+LH4bkWs/mvYecGQoWJQ6X6oXhm/TC3CAitpbWVDBYredksDnDlx6YIdEz8PQWsmMXAvn37aJyhVti4fG8hvyMIgNfZCKMisRpSl2BhOZULmcBKgAgSGQaFvCA3yK+Gv1vJjcnh8W6Otn7nvPRm66to/RxXC7PayuYfJrVP7ueHhTkcplJueQXc31cxs8NbOzBN+YxxFrQai0WIRYNiacIQXjfUF/c72cxbnS52dj0so25hJUAGyAk+DOQGZxndQDU70m5fICva+p3zYkfnoyJmNfotODFwaGD+Yd5QcVQUfSA7NNTGXnAkAc1H+bGMSOWPRAK8Dg5Mdgk19fXCEoAEsAKQWztHSvWICpgAHn/AHh8ff6RK3LHT9ysXRwAZggBV1cL7bxeedJ/o++oaGiifW72XfYT+fpj80Yj9/ceFAEq98drArVzP3aGPw0/hD7C8IDc4iw3sR1UJAgTLN2Vn/3uYyGOHBGCn0eqwggDlbNobZAcQ5h9kyMzLF96+WgCRCHAokyBSuWcjgIh4ZJ8IXUKezsAkKKQBtgKTBGgV4TQ3nLYMvf6LYWKPHQJs3Ljx00arvbSwFASonSQAMxrxLwgAT1+pNLBQEsQqGWYr61zKVzDESrc4nFRgskjhMoeHCAeRHEM+wBcsHNCazd+VxX1E2Gv0r6SkvC+Y7Y4WOIEVcgjYwQyGBUDFcgv0IgGkrvSBWIKIGJ90xpZEwULJiqJnV3hI8QtUPoDsp0ZvEDkLyA0Z0saWNiFPf1HxPqPNdo4s7tgjQFpe3rfNDlc/LEBlTT3HsK2Cwch6IdxD/4+4fyEEkDAPQYfH/FFGROVH6PrUsgCQQUVDEQ2HLWdnVw81tbaLdDpCRqvD8WNZ3LFHgCyN/iyrwz0OC4ACgwAi9cutPt9gZCfHJuL98ErPjwQLsAZRR+Tyh9cznAAjjEBxMWVptCL+RySgEKCqtoEjqyoyO523yuIOn2QS/StHb77C6fFLWUAVAWAFsvILyGx3hkzdXCSYjQixQoz5lm8uxStdwMjIsGjl6bka4TT3y+MYza0dVF2HZFAt2Z2eP8jijqnRQFGAPK3+FiUNXC0TAMkMjAWk52hE/6bu74bChDATERZChljCTHWJpHxBAH5fXllNadl5rPD6aQRAo3J4fC+qZB4zBBCXRm960FdYLBGAK9Dc2irMP6KBPVk5Iv6fQoAFkiDWyTBXucPrGS4L/F1dV0d7s3JFJhUZwU7RgDrE8DAI4PT43pHFHTuKV64Co/n5YHEpFbETiHEADLogm4VcdnJ6liAGBBFe6YUSINaIMN/yzkUAdAEw/XsycyhQVCJyAV3dvUyATqppaBS5ALfPnyKLO7aUj0trNP8zoBCgXiJADxOgoqpaEACv0yzALERYCBliFTPVK5Ichhlw/lK5C8BEEwxVS+MBnVTbIM0NcHkDhrhYVD4undmShCFWZAJBAFQGBEDLR6Uw/ImKIy0ciQSzEeFQIMV8yj5TA1BkgjkDmRp2mB0ukQ5GPkAhQEV1LcYDAhkZGcdEW9cRL53ZqvMXFYuZQMICyATAJIzsAgNXpD1UWQUzEWG+ZDhUMFMd1bIAkCfBzCG9xS4SQd0KARqbRXqdCdCQ63QeF21dT7s2bNhwjN5s9WMwo1gmACxAt5iFUyTm+WFoOLzC8yHCoUiGueoTSfkAxgPcmMfI8kICDT4U5k5iniBGWL2BYLdOZ/96tPU97UpISDjOYLXX+VjZJeWTcwFAABQcSQyEhchxL0TxhyoBDoQEGAXEDCDICt2mmF/IwMwgTBYtq6pBJDVqNjtPi7a+p12JGRlfM1qdXQj1QgRgk69MfMS4AJzCtvYOkQ08ECtwOCFy6+8WM4PrGhvFoBkIgS4UA2oNMgEwYdZoc/0w2vqedqVlZ//AYHOMeAQBqqhORQClLxMzXdkR7OKKztQVHK5kmKu+6PshHwCZ0wF5ZrOaAOVMADjYNo/n+mjre9qVq9VejGnXGMworQABmkIEgNlHhfA3Jjc2s5lDpWeyBIcqOQ6kLooMMFMKVhNZU0yWGZAniKILwMBQI8usggmABJHd47872vqeduXm61djIUVEAmA+IFcIZg3TnzAzSKm8GgciwEMRkerdwY4e+v5Wdpxxr19Mne8XFgAWAV0owsDyqmosEnlGFnvs5AM0WuNvnd4AE6CQCVAtJjJiQmO3ygKg/3d5/VRdWxdREIc7EWarL+ZHIoSGExhOAEQGcKAVAjg9njdlsccOAfL15qew/AohH5wVTGTEhMZu2QdAJVE5k91BdfVTLUC0FRNtQggLwP081kfU1E02DjiBaDzoHuAbYIi9TBDAt00WewwRwGherxAAzkqDQgB5QQj6yPKqKtJbbYLtKxZgKqBot88vukjl3iQBegQBMBiEkNrl8eXKYo8dAmj1pi3uQJB8YQSACYM5AzAczOwV72cTxkIQy0pdaD2wVsLCjnSnEgX0S0vG4EfBOcQIK/wrthTO+Pj4o+bWyjJebAGy3X6sCC4Wnr4yJVxZE9DY3CymhFXX1AprsFiCO1wAAsAB1Jut7O1Xib/7FQJwF9AqCNAgFq06vb7KhATtZ6Kt89AFNmqNZjtGsPyFJYIA6jWBIACiAwOb/x5ms9JysChCtKSBxW9RhxIUCwl4/AEys58EOfWrLAAIgPQ60uwub6DdZDJ9Kdp6D13/SEj4TIHZWu5kDz9QVCoWhSoTQmHGEA5q9CZh4pAijbbZXhYMSFgIEYb4/xqbmkijM3CkJFlKJIPQiLDCCsk1ZFndvsCgwWD7XrT1HrqSkrAphKUNy8KxrUloPmBXt6gAJjewhaAuJsSBJkwOtp+Olb5+ti5AeY7N6RJWoF/eF6FHXiKG0BoE8AYK99vtnnOjrffQlZqTcyJbgAEQICjPBxTTweQJoQVGi5gOFg3lRwORlDrf/4WFxILZ7Hwt+1FNYlqYkg5GaF3KBECD4g73p9HWe+jKzMw7V2e27QMBJucDSnMBMJM1W6sX5mt4ODYIECl1OzQ0KExwLJSts7NLdAOYR4GFoko6uKGpRYSB2NvA6nD/Mtp6D105Gt1PmJFiD5+iUswFkIaCUXA4hlqTVVgDIfjB6GFYVjxm2bRjm5p+Nq8D/HffAHX29IqlWKHcftTKKREBO4lwtyptocNyVEYKy8V4QBU2i3gk2noPXXk63W1WxPjsBBbLQ8FwWpDd4q5B3J+pFS4XYFqRlcRWKx4OVUtZkC0dXdTJAm7m/hU7dBWyh42yw2TPdzx/KQaS8Gw4zOgGkD3tG5A2i8BGUkgHwwrY3d5Xoq330JWrNz6MXbHQ2kswEMTOiuK05LApwyAHZrwuxDwvJjDfHoQ0WB2Uz84o5i0i5u6XU9SIVNBlYTYTMpViiTbfWwoSzMsP4O81cRgNAiDu7x8cEAQQ6WBsJccEcLi978vij342MF9vesnpCwoCwDxhzB99Flpbjs4ocgIgwGIMnx5In4o8BFbcYsUNNqESzx+WNmJQAGWj5ReVlVFadq6YeBGtkFV0U6xwJM6cXl9ot5BmrBEUBKgip8ebKos/+gTQ6k3vQvkYCQQ7sdkB0plwYjQcAeA9WiGYrcYUQgwOLgnwXAw/70jeQ8XsPI2Njoa2YRGbVSkkkAWP2b0mtgJ7M7OkbVuWsGwzYkjKlGIpndFml+YGyulghNhoWC6v30QUfeWLAnCMnwICeAPSOIBYFs5OC/wCPZtdmNiFzpFfLGDhhr+oiBKYAIhKwlt+OFDO2vp62pKwW4Rh4QtZlguQCWSKLgvmH2XH8Hp1nZQMcnn8RVqt9t+iTQBcR2qNFgN8AIwEwkmR0sBdZHK4BRSnarEmUi6UABhh25GUImXbhoenQ+0vsMIbOd7etH2nmLkUTQJgr0WNwSxyAIgEMDsYEZacDm7Kysr6fLSVj3GAT2uN1qDd7RMDQZVyGhiFNticwgoonu1SzKqdC+gC2rnlfLhtuxiIwkYPEUkgA1vFWewOSkpNlYm7/MpXCIB4HwTAlrKYVYXZwVggUiQI4O/VWiwnRFv/ce+9l/B5DvUaMNSLDaLRR7Vg9i+zVcfm3+bxh1qWwPD8ECLC0MED/b7N4aRtbNYxOXV8/wSNjI3T8OiYtJkj1vfx3+P791MtO4kfbdtBVdXVwnosxvMPBJABFJ1ntArvH44srCr2XIYFcPv8YyaT/cxo6z9ue3LmCTqrvduupIFZgBj8QRiotznI5PSIwqvX0y/FcqvZoPyWwWyhzTt2Cs+6tbuX+kf30eD4BPWNjIldyrFV27aEXVRcUiopP8rrCnzcdWnMNhH/Y5kY/Kr6phZBAB872BaH47Jo6l44gKlZWWforfZRdAGFJdKaQDgrcFzQ/8MKwJuOtKHCchFAYETaiQstPJfj6+TUNMrIyaMcbQGHfTm0Jz2DjBaLvHdhdJWv+B0Of5C03I3C9CMXAAJgxzAk27AK2+pw/1yti6gQICMn/1Ijhyt2kQYulxeEdAiv1e5lL5YZjC1hZ9tRYzmJgO4AZcE8fCSDmpqbxWxl+CmijItJugMEZNLX109mblQGtqDKnApsF9PIBECyDTuJ2N3u30edAFn5+rVWl5QGRniCPgoOIArsZ5bmshODWcDz3UDxYNbfLwTKbx9o17SUQJmQudTZXWT1BqT9gwellcLYLwi5FrE+wO19LuoEyNMZ71UOa8B0cPRRcFZQaKxmzdWbmAglB73fTrSVsixQkRLTv/K5+/RyI8IewiCAWF3FvgpyLUgGOTzet6NOAI3B9KwTJ2j4glIWsElKAqHAcF40BguZnW5hYhe6oeLHiQTqeqIbgPXUWOxUzqEriIEGhQMosF0Mci0ggNPjS4g6AfKNlg04QsWNNDCygPLOYNKU5n5pAIZJgAki+znMihUSxArRwp8NGSDta+awWsuygz+F74mDLZgA2CtA7BlYjlyATxMtAoQ2KNIaLTtAACkLWCdaPSYxgrEjHGPjfk6BQZx+hX36xV79i7Tl6uGA8DqOj42L/ZUKWPkWJoHYYp8JgGNtevsG2DfoEulgkQvw+jzx8fFHL7fypxBAZ7blOf0B8mI6OLKAbdLGUCg4dsvElvG5Or3YJBLpTFiBgyHB4UKESPVC3TEegQU2GpNVhHu4HyJAPxOgs5tD7SYRBXh8weqMjIxjVTpZVgLEXXXVVcfozFYX1gT6ikrE8WfN7dL5ANjhaliYrkEyWu1i+1N4rgoB5rIGi7lRY6xgrvqg3hhH0bG8tCabSKbh/xQC4Jyldg4FaxuaxTJxtz/QkZNj/GrUCLBhw4Zj9WZ7pcMjTQeH59qCHAAWg8oEQMXKMC9AW0AGtgKIbyfCSLCPK65GiAjCJE5HRAFCwPOB+rsH+hsLeVYkRc8A9PVYXYX8v5ud6lGVr4ADqLBxZAcToK5RygZ6fIEhvd56StQIkJiY+BW91d4OAgSRBWxoEn0UBi4wsDIiCwGza/QmC+WxFSgqLRNWINwShONgt2iPNcxVl/1cZ0ykwRS6fAwAsS+F+6FDqEQoOMQOdh/VN7eJ7sEXLJow2WwXRI0ASWlpJxus9kExG7i0Quxk1dY5lQAwYWjV5bIVKDCZxTJxXHMRYTH26o9VhauBuiJqsrk8lK83iVVUSrcxSYBRad9AjgQaW9pFNhDpYJvLdU3UCJCRqz3fZHdOYIPo4vIqkQSCieofkDxXZdt2mDfktrHYIbdAJw5JAkEmJiZCJFBjNsuwUHLEAuZTF/TpmLaGLeIwgwqNZmx0cvt7nIEIPwAnnDa1dYqQu4S7AavDfZdaJ8tKgByd7mc2MRsYk0GrxUAF9rYFUxXzr/TZMHEYE8jniCBfb5S6Ar4HEkxEIAE+C0dEAYb5DzGDWRSurtPE/glh+nHaKlZPYQMI3A/3eXBmAvwAHG+LA63LxWYRNcTd75+iRoA8nfFXSAEjD1CGmUAt7SJfPYDxbBQ8QkvAmUEaJgFOCcXUK1yCBDNYgwO1ELGGSPWgCRLz/XG2cIHZAq9e6jLDLJx0RuE4DXE3gLONWzu6xanjIIDT63tdpZNlI4GUBDJZH0XMiiwgGNnU2iHSlYOzEADJIZfXK1a+IDzEZIfDlQSzlR/ax1xJl88vVk1bnC4pTxKhe1MIAD+gj60rTkLHSeywFi5fYNNyEyD0IPZYX/UEiwhAerKZ+6aevgFhqkYjECDk8LAZw7QrmDycJYQJJAdCglgkwnzKjDoipsf6A/hF2F0NMlBS5TMSgLsBEKCNCVBV1yi2i/H4CzOiRgCdxf6hJ1BE3sISLhByAF2ij4KpEsqfRUjd7Cug8nB6wH4shIBg1ESIhIWQI5aglB8Xcvp+Vr5VPkgayZ+ZyDwuWwRx7jFCarau7RwKVjc0izUYHl/Qds8993xSpZvlI4DR6shA6/cXl3GBmjgE7JGOZh+dJMBMJIAw4O2a2QIoJhAnZ6KyhwsJ1GVW6oQFM1C+w+MVYR92UpmWGAsngCDBPjFvcQCnkPf0UQ2H3PJS8bKNGzcep9LN8hBg/fr1nzI7XFYM9gRLK0R2qqO7V0QA8FhnUnw4CTDyhbDQZLOT1elmVleIfPhcJIhVIkQqJy40COz2ia3g4OxhAg38H3w+n64FBMAh1YNsXbt6+6lWzgZ6g4WtqRrNfy03AeIyMjK+aHV6SrE1LHIADS1tIkkxyAyVTuhmVu+XMJvAcCEJgv0DYA5BBizLQh5c+XwuIsQqSAbGQ3DaB0ZE0WAwfR7evzoZNhMUGUKeY0yEIbau3exn1XPIjSl4vmBhv9kZ2jx6+Qig0+m+ZXN7W1EhrLTFTBWMVsH8j8/TGVKTAOEP1rzZPR6xXx4IUVVXJ8YUlCvaCp234uUL8Tumx8NZQ6IHi1JLK6WzgOaj/HCMMwmQEOrpHxSnieJ8RnYk9zk8nsuWnQB6i+Us7sf6ffIwcGtHl+j/R4T5lwsNM70AoeEVi0qwphBHzUpnD5QLU4nE0sFcCynDwV4w2ZgMgz3+ER6XVlZTcUWl6ALm4+NM6eYmJqZYAziCyAUg6YbNOLDqye0LrlXpZslJIB5gc7kut7u9+0AAhCRIASMBhHBln6z8A209mE6GGBe/HSwpJeks4hppdsxBEmEpLyge4R0mbuKQJ5z0hfAY7zE+olwHIpf9+ycmCdAvEUDIhuH2BdSzg5eUAKEHWB3utWilGAbGIBD6fyQqxMjWDM7QQkiA32jnKEGYz/IKbkFVoiVViYUnHcJRVLqPaF4o76hQygC1sLmHL4T+ua6pRbx2spOLLlH57oECDQoEwLMw1oKpd9IJbWXsVPr/vJwEOBJvHC7vPX7RQssEG8FwtM6DVX44EeBQgghV9Q1igmQFt6hKJgFaV6M4lq5Pfu7Bm+55K50BrxyDMwjJsNNIU3unmAzTxAARMGgDH+BgFT8V+8VzMSyMqXcKAbyBwN9l/Ry5bARwur1PYvEiQpFm7HGPhRVo/YtWWZkEKiLAytRzC6vm1oU4uJb71NqmVnEPSoDQpShk36L05SGF809J5ndcJGI6+TmtXb3U0tlNLdz1ITXb1t1DHVw+ZOpEPy+XfTFlAcCawPphrwDhA5SUYPh4K6vkE8tKALvL8xqUX8qeOzxd5P/HFyD4AyUCwiH4Gu3c8ppY6Q3c8hplKO+bWTHt3b3UxYrqGxwWmUkob0wkVfaHfJQpkPtYfA4CDYvh1xGh0C7uczs49m7jZypo7+kX97rY9PdiAyr+/r5Ql7RE1mhCyhlgaB2pY7T+QFERoqYsTM+TSbBsBPgX9q/BtrCIaYdZWPvkvu7A6zf/rgHCgKKQGevmPrFdVlCrgu5JKEqDwjo4hsauYFBqtwy87wT4Pj7H99rFd6Xvd/YPiM+7Bob4WUPUw6TCc4fliGcxrc1cFxoA5lJg5VCxlAfA7GBbfHz8sXGTVmBJCSAYZnd79oAASHAgm4d5a0vtlEUkgiIYbsGj40iUsJM0PEq9QyPUw5aiezAShmTw+4Hpn0PBPfz/fQD/1gBbEPyuYkWW098Ik4BoZFg4gkRZSXm52FvY6fWVbNq0CXsHHxW3xN2AsACnnnrq0Q6Xx4AYvVohgBjHXt7WMNuFYsC0Y83/GJcL5BiRMTwGjIeB78mfj7KQx0RXIecxol0Z+ZqYUAgwIrbgw1ZyLo+XnG5PU0JCwjeWiwBHPPHEE8fZnO6iQnZAatgrVyyAkt9fuZbmEuEgExoWQCGAw+0mu9PVwwTA7OAldwSFBXjq5Ze/YHU4q5Czx7Yr2MJsWEWAFRIszTVpASYJYMeQstPZvzUh4UxZ+UtvAZgAXzTa7LW+YJAqq6vFsC4KNb5CgCW9IhEAO4ubbLbBzZs3n7VsBGCP80t6s6Xe4wtQOYeBKMyQCAMns4Ar1+JfCgGGQgQoJyvmU1isQ++///45cZNR2tJ2AY/Hx38532BsdLi9goVtcmp2hQBLewkC7JfCQOxqUlJWRmabnQqMppH//95758n6UXIBi04C5UePePqll76SV6BrNtscYjQK070H5EzgxAoBluwSmcBxaQEptreBE2602ogb4+jf33nnwuUgAH78E8888+LXM3M1rVjlgwEhzGvHjFaM6e+X5wKsXIt3hQaEENKKwaABsZmlP1hIOpOJcgsKxv+xcePFcZL5X1ICCCeDfYAT9mZktiurfHAoBE4GATOVZVFiKtP+FSwK5GlhyiaX2HUNB0y6fD7K1+spMy9v/xtvvXXZshHg2Wdf+E7S3tSOjNw8OCBiR0tMbsSqIOxsDSIoO29Ge8etwwFDw9I+xtgqTuwT1NIq5k5aOQLIyddSRk7uxLq3375CVv6yEOCkhJSUrpSMLLH5A1YHYX8gnGmDbU2xSxhCwxUsDjq6OoVMsYchDpCoqq0VM4sNFgtl5OZSWlYW/fXNN6+MkzKBRy01AY549oUXTt6+O6kncW8aZeRpCPsE+oqKxMggxgZqG+qprrGBfYMVHCwUOdaxTGH2K2tqqJi9f6fXy+bfQKmZmbSX8fK6dT9TEWBJQsEQAeLjX/rBloRdvQkpe2lvVg5p2Rm0e7xiyjMOXCipwDBxBVuFFSwmSssx/6KUkICzOOyUq82nlPR0scvpa+s3XLtcBDjy6fj4MzfvTOjHFuzJ6ZmiGzA5nOTy+8VEzkBxMYeHxVS4gkUGy7awUKytNFjMlJWXR8mpqYIEr7/xxhrWzSdlLN4Uru0AAA2SSURBVC0B/vz882d/tGPnIHcDlJSWTtnaAnHWDiICLHrwBoOCpb5gYAWLDA83MrvbxeGfkfv/HErcs5eS09Lo1TffvHnZCPBM/Ivnfbht+/C23YmUmJpGmeyJFnA0gLVuTg5N3FxIT4ALG/CvYJHh8nnZ+8fei3pKz86mXSl7hA7+um7d7aybo2UsKQE+wQS48F/bdozgWJXde1PZEcxnP8Ai1vnBF0B86o4AVxgifWcFs8Pp8ZDZbieNXscOYBYlJKdQIuvg1TfeuJN1c8xyEOCoZ+LjL/lgy7axzQm7aBeboPTcPNIYTRwNOMjmdpPDi11DPB8veJbhHgPm32i1Uh53u3syMmhHYpLQwV/XvXn3chAASYajnoyPv/yDLVv3bdqRQDvZBKXm5FIehyR6q12s8rW5UVD3nHB4uMtgOObx3VgGnDKYZ9Rn1nu++d7zTbsn4HKx+XeSzmymnHyOANj/2r57NyWwDv72+vr7WDf/ttQEQIjxySeefu7K9zdv2f/R9p3iMCaEgjkcCegsNtENwBewcWFnAtjtDfjI4nKSkfszt9/L5s076//EKhCPWxwO4ZG7hYPmFvew90FWniZ0D4o222yUrVHf82Esn3I0+bJzJ91DC8ehFiCB+llQvpmfVcDWNpt/O4n7/q3cDaMb+Nu6dQ/JBFiy2cEhAjzy1FPXvLtpC7EfQNsSkyklI5uyC3SkZUfQyP2T2eESK32x+0c4HGwdctha3PviFrrkwV108UPJdP2fttIHu9MEMWBBIv1fLAKpWIyGPvrks/SdE79HGeyUIQrCvQcf+RN97/snU44ggXTvdw88RCefcipp2Hxjaxjcu+ve39Opp51OBSwT3MMsqzt+/Vs648z/JgO3dKfHG3oeSIVzBLHJVmauhvv+vbRl5y7aCQK8vv5R1s2nlpIAR8oEOObRp566/r1NrLSt22krh4LIBSASyGdHUM8FRGbQKG99Ygq9OoVyc7miV/5hO53/fB09bpyg5z1EN27qo9PuzqZ/btsjfAjl+9L/xi5A9MLSUvrV3b+nLx3/ZdrBPpHYL6GklG694y76yle+SruTkwlL6LGA4+e33Epf/a+vUQq3XNzDauHVa26kr339G5TGDp3bHxTJtJ9du5q+ecIJlM2+FfYRUJ4H5eu5kWF/pXTudhEBbN4JK5xMr6xb9wTr5tNxkhVYdAIoDiBizE899NhjN8ECvL9lG23ZxaEgEyBdo6U8o5kK2A/Qc2EBQxgsbMZefieJznqunl4IEKV3Eun7iHa0EK3dvo/WPp3K3YhZEGjy/+xk4IqL1+XGHM81sjmGYu9+8I/0DVZYAjtknmCQAnzvznvuoxO+9W1KYgcNFgDK/sUdvxb39qani3tQNkjx7e98V7IebAFwyOXqtTfSid87ibsGjYiqRDmgfKtN7CWYi3OOsrKF6f9o+w7azlb45dfXP8u6+felJgAcjE8/8Mhjt7/z0RZ6l63ApoRE2pWaSWl5WnE8jJYJoLM5VHCG3hsddnpiQyZd8r/D9GYxkWuQqHSMKJeJ8HsN0VV/8YiuBATAiaMh2BxT/54T9sWBbfbPDVwunOz1u0eeou+e9H3axf4Qdk7Hxtm/uf9hOpHvJXGI5kByjL93x29/T987+WTam5FJTp+UNb3ll3fS9085hWP6HHJw/+/le2tvuY27hdPYX8gnK3eLeJaOlQ8fCxtrZWu14mjbHaz4D9kKIyH3wt9ee55185k4qRtQBoQWnQDoXz5z/8MP//adDzdLBNiZSAmpGZTKBMjRmynfYhcnXUWCnvuxjYlmWvVaP/1BT5TYTJTfTfROJdHVWyfovn8EhB9RwILFfvk4MKEglsHl9LCyH3gink457Qxhkm04Q5lb9r1/fIpOPf0MdtTSycZm3F1YTL++/4/0gzPOYAJksWI5rufu4vbf3EuncX8Pk25FDiVYSDdz93HG2WcLAphdHqH8Ala+tI+wibLY2qYwibax4v/FVhgJuRdffRXHyR+7HAQ49r4H//DARibARrYCH+7cTTv3ZtCeXC1l6syUa3ZQvtXFcFK+zaWCU0Dn9NKfdzTThW+N000pE3RX9gRduXk/3bKxjzLMRaS1O0PfFcCJI1bpvVYmRayggMvkKiyhh555kU4/+xxK2JNKFla2i5V93+PPsRLPpaS0DLKwsl2s7LsffpLO5Ht7MrPFiWC496vfPURnnnMupTEBcEqIk32DW3/zOzpr1SqhaKPTzY3CJhpGPhMgjwmQwY0tibvdrdz9vr95q4gE/vLKX9ezbj4bJ/kByoDQoilfyQGAAJ/77f33PwwC/JMJ8MGO3bRtTzol5eRTGhMgy+SgXCaAgM2tgksgj+EoqaJdtj56fPcIPbBjlN7KHSJrcTPpXD7+P6f8Xec05FljCxqGPVhCDz/7Ip11wUXCEho9HLoFi+n+J/6Hzjr/IvaPssjAyrYHiuieR56ms/leSlYuGVwc9voL6c77/kjnXHAhpbJXjyPibL4g3XbPA3TuhRdRBhNA53CTxmQjjZGVb7RQts7I3W0+7eZnbWLFv8e+2GaOBJ574aUNrJsvLDYBjoibSgA4GF+4fs2Nd7717vv7//khO4Lbd9OWlHTalZ1PewpMlG7k+NfioiyrDEtkmFlw/poGCtQ1kbOsknLtHsq0OOXPnQLZCqyq97PCMQvCP4/w/2aAyw+Y5gDqabKTyVdMf3zuJTrv0ito+95Mynd4yegtpAee/B8675LLKSE9m/K5bkZvkO559Gk674eXUWJmjrCKRk9AdAvnXXwpJWfnCUIZ3X66/d4HadUll9He3HzK4y41i7vWLB2bflZ+ulZPe/i7O7nRfbhjF6Er/nDbTrrvoYfjWTdfUhFgUbqASAT4z+OPP/7yl15fX/UO+wDv8MM/YgLsyNJQUr6J9hjslGp0UqoJcMlwquCiNNzj7+xlIabKSOPPgHT+TMCM9wpcqvezwcH/55j6Gv4+AtKMatinIFUNw3Ro3YX0yF/+RhddeQ1t2ZvFxHVTvitADz77Al3045/RtrRsJhR3gU4/3fv4n+nCK35KO9NzKZOfq3H46K6HHqMLLv8J7crke0Zu6UyW27lbuPDyH1NitoYy9Fbam2+QoNFTSl4B7ebvbktJ5caXwF3ANnr73ff7Tj39dJwi+pUwAhw0CSJaAMbpHKv+/a133t//3tad9K/de2hrhoZ2aYyUpLNTksFJyXPCJZBinAEm9d9O1eviQyqPYyr0DkrS2yNDJyGxwEZZjgA99sobdMWam+mj1Bzaw7+XafPRH5gUl19/E21Oy6UU/q0Mq5fue/p5+tF1a2gL7umslMFk+Q1HEJdevZq2MSmStSZB5DseeIQuueoa2pGZR8n5Rtqdq6PEPEYuKz9bSzvSc2hz4l5hAf7FDfD2X9+1k3WyivHlpSSA4gTizPoTGddd8dOrdr28/u/9H2zfRdvY/CVw4RLzDJQEIrA1SGYkyUhWvaJSSYxkfE+j3JvE5Pfl78lQv1f+Dr8X6bPw9+p7AqIchmlIlKF+n5inn4JMbt0PPfcKrbriKvpg915K0Zopgy3J7zgywL0PE1MphZ+RwdbiNxwZrPrRT2hTUhrXXU/pegvdwT7AeZf9WHSjSazgdPajbmUf4ILLrxQyTYbS2bomykDrT+Cwe8vuZNrwz3fHbrz5Vh3r4lcM7BX4xTgpCvhEmO4WhQRKHgDbkmIpMlai/PK44z73j4svudS0es3a0mvXrK269oa1NdfesKbumhvWNFxzw9oG/lu8SlgzFdff0BgJ105933Q1sFp+VUH9HfX/XLP6+kb150D439esjvxsUa7V8ufqsq6O8MpYe9PNDRf+8EeNJ510UuPV117XeN2anzesvfHmhgsuupjvfb/xmmtXNyj3Vl14UeNJ3+d7193QwPKqF/cuuLDh5JNPabyWfwv31tx4k/jfM848s/G669c0XnfDmsarV1/fhDrJ5WKZrqm59PL/5/vi8cfvYB1gDOBHjO/IjVOdCFp0AiATiGQDTM3JjMsYtzEeY7zIWMfAhkXwSN+KgA2qV+BtGf8Iex+O/53hvRpvzxNvqV7V5VLj7zLeDIP63hszIPyz9bJcIuF1Ga8xXlXhNRnK99S/jd9DzP8UA6eF/CROav04Pew/4qaOBi6qI6iMBcDEfI7xdcYPGFiRcjUDTsgvGLercJuMWyNA+ez2CFB/Fv6d28L+P9Jv/yICbgl7H46bI+CmGXBjGH6uQvjfwFoZayK83iDj+givyveU371Jfo/PfirLHjqARf583GQSaFEJEBenmg0UJ1mBT8sP/BrjJMYZDKxOhSNyPuMCGefLWKV6H44LFoDzw373ggi/tyoCzlO9RsK5qtdwnKN6nQ1nz4GzVK/zxTmq56vL899xkuJPlHUAxxzjAEfHLeEmEQoBjpIfBBIg8wTHA+YHLDxBhW+qcMIs+FYYZvr8hLDXmb4fCd9cRHzjAPH1BeJr8qv6N5Tn4zN0w/8ZJ/lkivKXZ4+guEkSwOEAEeAXoP85Vi7QfPHZBSLS/yzkeUuBY1X1PnYJEf5MyFsZ/VvSlh9+hfsEYpKICkfPA8csA+ZTjkMViqwhe0Xxy6L88Cs8T7CC5cOihXkr18q1cn1cr/8DH55G3x8p6ksAAAAASUVORK5CYII=;fontColor=#006600;" vertex="1" parent="1">
                    <mxGeometry x="286" y="405" width="48" height="48" as="geometry"/>
                </mxCell>
                <mxCell id="13" value="Disk x2" style="shape=image;verticalLabelPosition=bottom;labelBackgroundColor=none;verticalAlign=top;aspect=fixed;imageAspect=0;image=data:image/png,iVBORw0KGgoAAAANSUhEUgAAAIAAAACACAYAAADDPmHLAAAACXBIWXMAAAsTAAALEwEAmpwYAAAgAElEQVR4nO19B5xkVZV+gwir64JhFXUNGBABCUsakoDwV0TCwIwEARFRQEkiQaJsS1RgBhxw/w5JmDw902Gmc6iurpxzdc4559w902fPd9971a+rq9NMd1fN0O/3+35V/aq63r3nfPfcc85NcXEr18q1jNcRK5gXDvkr2gI8XBHzV7QF9HFBTF7RFsrHETFzRVsQH2dE/TokChnFSy2Dw44AMVuwGL8ORLkxLetpBUpISDjaZHfdaXP5k+1un97p9etdvqDe7Q/qvcFCva+wSO8vKtEHi0r1wZJSfWFpGaNCX1Q2iZKKSn3pFFRJqFSjOoQy1ftJhH9f+o2SECrFa6l4VaFsOooEppaxiMtcGALXoQSQ6gSgjgJcXx/X2ysQ1HsChTq3kEeAX/06l8evczBYVjqby6Mz2916s8OdYbDaH03Waj87g5xjhgDKJQq0x2j8D5PNkeIrKqVgSQUVllVRSVUtldfUU2VdA1XVN1J1QxPVNrUI1DW3Un1LGzUAre3U2NZBTUB7JzV3dKnQTS2d4eiRMdt7Bv+v+P8O5f3kb4rX9q7Qa1PH5HsJnSE0KVDKyEB5G1slNLS0i3rUo06MuiaA69nYQjWNzaLeqD/kUFFbTxUsk7LqOipl+ZRU1lBxRTUVlVdRsLSCAsVljFKyOFzOtDzDt9UyjoDYubR682t+Vj63eAIJCrlCqGBlbQNV1zdRDZTPwpCU3yIJSyYABApBhwgBgYIUArKg28LROQtApC5q7ZIIMZVQkQHCtDJQjsbQsyU0KGhpn1S2AihcrXSBZqF4/F3f0hr6u6axaRoZymvqBBnQWECCQEk5uQOF3IjKSG+2ZWm12qNUYo5NAmRnZ39JZzK3CeUXlgpGV3Ll6rjSjSyA5rZ2amlvp9b2Dmrt6KS2zk5q7+qijq5u6u7tZYG2ksXpJrPDSXa3l+weBT5yAF4F/mlw+gLkkOFUweLyCEE2trZR78Ag9fQPUHdf/zTgPj5HOb2FRWTj5+NZLn9AhaAMfu+T4PT5Q1CXB2UGrC43GWx24i5C1LWV69za0SHkAHk0tzHxuWx4bj03iDomSTUTo5zJwN0OeYNcFpdnv0avPy+CyGOMAPmGVdxvkYeFxH0kVdXWUQNXqIUr2t7ZRZ3d3dTV3UPdPT1C4T29fdTb308Dg4NUW99AWoOJAkXF1MWf476CvoGByIDS+qf+Pfn5oEAnP4/7dTLZnVRcXiHuDY+M0uDwMA0ODYvX4ZERcb+4vJKMNgeV8PdAzp7efvH7UyGVqadPRq/qfV+fqBPQLdAr6oK66cxW8gSC4m98D6+QBWTSyQ2gg8nRzs9sY3I0MyHqm5q48dQJ4gSKS8hgtt41g9hjhwC5+fqr0VL9hcVUxn1aHZs6KB+VgzB6+ySFQ1H9rKTBoSEaHByikrJyKjCaqaaunkZYGcPTMCowMjoXxlSv0vvRsTEaGx9ngfdyayoUrbq2oZHLAuINCcXhb1gads6EUkbHxsX/RXrGsPI6Eg6prEPAsIJhgWF+DyXb2Bpwny4aA+reBzL19Qu59KgIA3nBMkB+7NwKAlvtzidnEHvsEECjN90JIbI3TFXcpzWySQOrUTFUFkpHa4fSoeg+rriLFWJmE9nOzB+D0Pk+MArlyRhRKQOKORCABPh/tC6lVcEiBErYTykrY6K2hb43799Vyjg2nSRqUgC4P8h1D/Jz9WYL1bNyh0aGhTwgl35hwSTr0s1khQVqamlhOdZSRXUN2ZzuddHW75wXt+LH4bkWs/mvYecGQoWJQ6X6oXhm/TC3CAitpbWVDBYredksDnDlx6YIdEz8PQWsmMXAvn37aJyhVti4fG8hvyMIgNfZCKMisRpSl2BhOZULmcBKgAgSGQaFvCA3yK+Gv1vJjcnh8W6Otn7nvPRm66to/RxXC7PayuYfJrVP7ueHhTkcplJueQXc31cxs8NbOzBN+YxxFrQai0WIRYNiacIQXjfUF/c72cxbnS52dj0so25hJUAGyAk+DOQGZxndQDU70m5fICva+p3zYkfnoyJmNfotODFwaGD+Yd5QcVQUfSA7NNTGXnAkAc1H+bGMSOWPRAK8Dg5Mdgk19fXCEoAEsAKQWztHSvWICpgAHn/AHh8ff6RK3LHT9ysXRwAZggBV1cL7bxeedJ/o++oaGiifW72XfYT+fpj80Yj9/ceFAEq98drArVzP3aGPw0/hD7C8IDc4iw3sR1UJAgTLN2Vn/3uYyGOHBGCn0eqwggDlbNobZAcQ5h9kyMzLF96+WgCRCHAokyBSuWcjgIh4ZJ8IXUKezsAkKKQBtgKTBGgV4TQ3nLYMvf6LYWKPHQJs3Ljx00arvbSwFASonSQAMxrxLwgAT1+pNLBQEsQqGWYr61zKVzDESrc4nFRgskjhMoeHCAeRHEM+wBcsHNCazd+VxX1E2Gv0r6SkvC+Y7Y4WOIEVcgjYwQyGBUDFcgv0IgGkrvSBWIKIGJ90xpZEwULJiqJnV3hI8QtUPoDsp0ZvEDkLyA0Z0saWNiFPf1HxPqPNdo4s7tgjQFpe3rfNDlc/LEBlTT3HsK2Cwch6IdxD/4+4fyEEkDAPQYfH/FFGROVH6PrUsgCQQUVDEQ2HLWdnVw81tbaLdDpCRqvD8WNZ3LFHgCyN/iyrwz0OC4ACgwAi9cutPt9gZCfHJuL98ErPjwQLsAZRR+Tyh9cznAAjjEBxMWVptCL+RySgEKCqtoEjqyoyO523yuIOn2QS/StHb77C6fFLWUAVAWAFsvILyGx3hkzdXCSYjQixQoz5lm8uxStdwMjIsGjl6bka4TT3y+MYza0dVF2HZFAt2Z2eP8jijqnRQFGAPK3+FiUNXC0TAMkMjAWk52hE/6bu74bChDATERZChljCTHWJpHxBAH5fXllNadl5rPD6aQRAo3J4fC+qZB4zBBCXRm960FdYLBGAK9Dc2irMP6KBPVk5Iv6fQoAFkiDWyTBXucPrGS4L/F1dV0d7s3JFJhUZwU7RgDrE8DAI4PT43pHFHTuKV64Co/n5YHEpFbETiHEADLogm4VcdnJ6liAGBBFe6YUSINaIMN/yzkUAdAEw/XsycyhQVCJyAV3dvUyATqppaBS5ALfPnyKLO7aUj0trNP8zoBCgXiJADxOgoqpaEACv0yzALERYCBliFTPVK5Ichhlw/lK5C8BEEwxVS+MBnVTbIM0NcHkDhrhYVD4undmShCFWZAJBAFQGBEDLR6Uw/ImKIy0ciQSzEeFQIMV8yj5TA1BkgjkDmRp2mB0ukQ5GPkAhQEV1LcYDAhkZGcdEW9cRL53ZqvMXFYuZQMICyATAJIzsAgNXpD1UWQUzEWG+ZDhUMFMd1bIAkCfBzCG9xS4SQd0KARqbRXqdCdCQ63QeF21dT7s2bNhwjN5s9WMwo1gmACxAt5iFUyTm+WFoOLzC8yHCoUiGueoTSfkAxgPcmMfI8kICDT4U5k5iniBGWL2BYLdOZ/96tPU97UpISDjOYLXX+VjZJeWTcwFAABQcSQyEhchxL0TxhyoBDoQEGAXEDCDICt2mmF/IwMwgTBYtq6pBJDVqNjtPi7a+p12JGRlfM1qdXQj1QgRgk69MfMS4AJzCtvYOkQ08ECtwOCFy6+8WM4PrGhvFoBkIgS4UA2oNMgEwYdZoc/0w2vqedqVlZ//AYHOMeAQBqqhORQClLxMzXdkR7OKKztQVHK5kmKu+6PshHwCZ0wF5ZrOaAOVMADjYNo/n+mjre9qVq9VejGnXGMworQABmkIEgNlHhfA3Jjc2s5lDpWeyBIcqOQ6kLooMMFMKVhNZU0yWGZAniKILwMBQI8usggmABJHd47872vqeduXm61djIUVEAmA+IFcIZg3TnzAzSKm8GgciwEMRkerdwY4e+v5Wdpxxr19Mne8XFgAWAV0owsDyqmosEnlGFnvs5AM0WuNvnd4AE6CQCVAtJjJiQmO3ygKg/3d5/VRdWxdREIc7EWarL+ZHIoSGExhOAEQGcKAVAjg9njdlsccOAfL15qew/AohH5wVTGTEhMZu2QdAJVE5k91BdfVTLUC0FRNtQggLwP081kfU1E02DjiBaDzoHuAbYIi9TBDAt00WewwRwGherxAAzkqDQgB5QQj6yPKqKtJbbYLtKxZgKqBot88vukjl3iQBegQBMBiEkNrl8eXKYo8dAmj1pi3uQJB8YQSACYM5AzAczOwV72cTxkIQy0pdaD2wVsLCjnSnEgX0S0vG4EfBOcQIK/wrthTO+Pj4o+bWyjJebAGy3X6sCC4Wnr4yJVxZE9DY3CymhFXX1AprsFiCO1wAAsAB1Jut7O1Xib/7FQJwF9AqCNAgFq06vb7KhATtZ6Kt89AFNmqNZjtGsPyFJYIA6jWBIACiAwOb/x5ms9JysChCtKSBxW9RhxIUCwl4/AEys58EOfWrLAAIgPQ60uwub6DdZDJ9Kdp6D13/SEj4TIHZWu5kDz9QVCoWhSoTQmHGEA5q9CZh4pAijbbZXhYMSFgIEYb4/xqbmkijM3CkJFlKJIPQiLDCCsk1ZFndvsCgwWD7XrT1HrqSkrAphKUNy8KxrUloPmBXt6gAJjewhaAuJsSBJkwOtp+Olb5+ti5AeY7N6RJWoF/eF6FHXiKG0BoE8AYK99vtnnOjrffQlZqTcyJbgAEQICjPBxTTweQJoQVGi5gOFg3lRwORlDrf/4WFxILZ7Hwt+1FNYlqYkg5GaF3KBECD4g73p9HWe+jKzMw7V2e27QMBJucDSnMBMJM1W6sX5mt4ODYIECl1OzQ0KExwLJSts7NLdAOYR4GFoko6uKGpRYSB2NvA6nD/Mtp6D105Gt1PmJFiD5+iUswFkIaCUXA4hlqTVVgDIfjB6GFYVjxm2bRjm5p+Nq8D/HffAHX29IqlWKHcftTKKREBO4lwtyptocNyVEYKy8V4QBU2i3gk2noPXXk63W1WxPjsBBbLQ8FwWpDd4q5B3J+pFS4XYFqRlcRWKx4OVUtZkC0dXdTJAm7m/hU7dBWyh42yw2TPdzx/KQaS8Gw4zOgGkD3tG5A2i8BGUkgHwwrY3d5Xoq330JWrNz6MXbHQ2kswEMTOiuK05LApwyAHZrwuxDwvJjDfHoQ0WB2Uz84o5i0i5u6XU9SIVNBlYTYTMpViiTbfWwoSzMsP4O81cRgNAiDu7x8cEAQQ6WBsJccEcLi978vij342MF9vesnpCwoCwDxhzB99Flpbjs4ocgIgwGIMnx5In4o8BFbcYsUNNqESzx+WNmJQAGWj5ReVlVFadq6YeBGtkFV0U6xwJM6cXl9ot5BmrBEUBKgip8ebKos/+gTQ6k3vQvkYCQQ7sdkB0plwYjQcAeA9WiGYrcYUQgwOLgnwXAw/70jeQ8XsPI2Njoa2YRGbVSkkkAWP2b0mtgJ7M7OkbVuWsGwzYkjKlGIpndFml+YGyulghNhoWC6v30QUfeWLAnCMnwICeAPSOIBYFs5OC/wCPZtdmNiFzpFfLGDhhr+oiBKYAIhKwlt+OFDO2vp62pKwW4Rh4QtZlguQCWSKLgvmH2XH8Hp1nZQMcnn8RVqt9t+iTQBcR2qNFgN8AIwEwkmR0sBdZHK4BRSnarEmUi6UABhh25GUImXbhoenQ+0vsMIbOd7etH2nmLkUTQJgr0WNwSxyAIgEMDsYEZacDm7Kysr6fLSVj3GAT2uN1qDd7RMDQZVyGhiFNticwgoonu1SzKqdC+gC2rnlfLhtuxiIwkYPEUkgA1vFWewOSkpNlYm7/MpXCIB4HwTAlrKYVYXZwVggUiQI4O/VWiwnRFv/ce+9l/B5DvUaMNSLDaLRR7Vg9i+zVcfm3+bxh1qWwPD8ECLC0MED/b7N4aRtbNYxOXV8/wSNjI3T8OiYtJkj1vfx3+P791MtO4kfbdtBVdXVwnosxvMPBJABFJ1ntArvH44srCr2XIYFcPv8YyaT/cxo6z9ue3LmCTqrvduupIFZgBj8QRiotznI5PSIwqvX0y/FcqvZoPyWwWyhzTt2Cs+6tbuX+kf30eD4BPWNjIldyrFV27aEXVRcUiopP8rrCnzcdWnMNhH/Y5kY/Kr6phZBAB872BaH47Jo6l44gKlZWWforfZRdAGFJdKaQDgrcFzQ/8MKwJuOtKHCchFAYETaiQstPJfj6+TUNMrIyaMcbQGHfTm0Jz2DjBaLvHdhdJWv+B0Of5C03I3C9CMXAAJgxzAk27AK2+pw/1yti6gQICMn/1Ijhyt2kQYulxeEdAiv1e5lL5YZjC1hZ9tRYzmJgO4AZcE8fCSDmpqbxWxl+CmijItJugMEZNLX109mblQGtqDKnApsF9PIBECyDTuJ2N3u30edAFn5+rVWl5QGRniCPgoOIArsZ5bmshODWcDz3UDxYNbfLwTKbx9o17SUQJmQudTZXWT1BqT9gwellcLYLwi5FrE+wO19LuoEyNMZ71UOa8B0cPRRcFZQaKxmzdWbmAglB73fTrSVsixQkRLTv/K5+/RyI8IewiCAWF3FvgpyLUgGOTzet6NOAI3B9KwTJ2j4glIWsElKAqHAcF40BguZnW5hYhe6oeLHiQTqeqIbgPXUWOxUzqEriIEGhQMosF0Mci0ggNPjS4g6AfKNlg04QsWNNDCygPLOYNKU5n5pAIZJgAki+znMihUSxArRwp8NGSDta+awWsuygz+F74mDLZgA2CtA7BlYjlyATxMtAoQ2KNIaLTtAACkLWCdaPSYxgrEjHGPjfk6BQZx+hX36xV79i7Tl6uGA8DqOj42L/ZUKWPkWJoHYYp8JgGNtevsG2DfoEulgkQvw+jzx8fFHL7fypxBAZ7blOf0B8mI6OLKAbdLGUCg4dsvElvG5Or3YJBLpTFiBgyHB4UKESPVC3TEegQU2GpNVhHu4HyJAPxOgs5tD7SYRBXh8weqMjIxjVTpZVgLEXXXVVcfozFYX1gT6ikrE8WfN7dL5ANjhaliYrkEyWu1i+1N4rgoB5rIGi7lRY6xgrvqg3hhH0bG8tCabSKbh/xQC4Jyldg4FaxuaxTJxtz/QkZNj/GrUCLBhw4Zj9WZ7pcMjTQeH59qCHAAWg8oEQMXKMC9AW0AGtgKIbyfCSLCPK65GiAjCJE5HRAFCwPOB+rsH+hsLeVYkRc8A9PVYXYX8v5ud6lGVr4ADqLBxZAcToK5RygZ6fIEhvd56StQIkJiY+BW91d4OAgSRBWxoEn0UBi4wsDIiCwGza/QmC+WxFSgqLRNWINwShONgt2iPNcxVl/1cZ0ykwRS6fAwAsS+F+6FDqEQoOMQOdh/VN7eJ7sEXLJow2WwXRI0ASWlpJxus9kExG7i0Quxk1dY5lQAwYWjV5bIVKDCZxTJxXHMRYTH26o9VhauBuiJqsrk8lK83iVVUSrcxSYBRad9AjgQaW9pFNhDpYJvLdU3UCJCRqz3fZHdOYIPo4vIqkQSCieofkDxXZdt2mDfktrHYIbdAJw5JAkEmJiZCJFBjNsuwUHLEAuZTF/TpmLaGLeIwgwqNZmx0cvt7nIEIPwAnnDa1dYqQu4S7AavDfZdaJ8tKgByd7mc2MRsYk0GrxUAF9rYFUxXzr/TZMHEYE8jniCBfb5S6Ar4HEkxEIAE+C0dEAYb5DzGDWRSurtPE/glh+nHaKlZPYQMI3A/3eXBmAvwAHG+LA63LxWYRNcTd75+iRoA8nfFXSAEjD1CGmUAt7SJfPYDxbBQ8QkvAmUEaJgFOCcXUK1yCBDNYgwO1ELGGSPWgCRLz/XG2cIHZAq9e6jLDLJx0RuE4DXE3gLONWzu6xanjIIDT63tdpZNlI4GUBDJZH0XMiiwgGNnU2iHSlYOzEADJIZfXK1a+IDzEZIfDlQSzlR/ax1xJl88vVk1bnC4pTxKhe1MIAD+gj60rTkLHSeywFi5fYNNyEyD0IPZYX/UEiwhAerKZ+6aevgFhqkYjECDk8LAZw7QrmDycJYQJJAdCglgkwnzKjDoipsf6A/hF2F0NMlBS5TMSgLsBEKCNCVBV1yi2i/H4CzOiRgCdxf6hJ1BE3sISLhByAF2ij4KpEsqfRUjd7Cug8nB6wH4shIBg1ESIhIWQI5aglB8Xcvp+Vr5VPkgayZ+ZyDwuWwRx7jFCarau7RwKVjc0izUYHl/Qds8993xSpZvlI4DR6shA6/cXl3GBmjgE7JGOZh+dJMBMJIAw4O2a2QIoJhAnZ6KyhwsJ1GVW6oQFM1C+w+MVYR92UpmWGAsngCDBPjFvcQCnkPf0UQ2H3PJS8bKNGzcep9LN8hBg/fr1nzI7XFYM9gRLK0R2qqO7V0QA8FhnUnw4CTDyhbDQZLOT1elmVleIfPhcJIhVIkQqJy40COz2ia3g4OxhAg38H3w+n64FBMAh1YNsXbt6+6lWzgZ6g4WtqRrNfy03AeIyMjK+aHV6SrE1LHIADS1tIkkxyAyVTuhmVu+XMJvAcCEJgv0DYA5BBizLQh5c+XwuIsQqSAbGQ3DaB0ZE0WAwfR7evzoZNhMUGUKeY0yEIbau3exn1XPIjSl4vmBhv9kZ2jx6+Qig0+m+ZXN7W1EhrLTFTBWMVsH8j8/TGVKTAOEP1rzZPR6xXx4IUVVXJ8YUlCvaCp234uUL8Tumx8NZQ6IHi1JLK6WzgOaj/HCMMwmQEOrpHxSnieJ8RnYk9zk8nsuWnQB6i+Us7sf6ffIwcGtHl+j/R4T5lwsNM70AoeEVi0qwphBHzUpnD5QLU4nE0sFcCynDwV4w2ZgMgz3+ER6XVlZTcUWl6ALm4+NM6eYmJqZYAziCyAUg6YbNOLDqye0LrlXpZslJIB5gc7kut7u9+0AAhCRIASMBhHBln6z8A209mE6GGBe/HSwpJeks4hppdsxBEmEpLyge4R0mbuKQJ5z0hfAY7zE+olwHIpf9+ycmCdAvEUDIhuH2BdSzg5eUAKEHWB3utWilGAbGIBD6fyQqxMjWDM7QQkiA32jnKEGYz/IKbkFVoiVViYUnHcJRVLqPaF4o76hQygC1sLmHL4T+ua6pRbx2spOLLlH57oECDQoEwLMw1oKpd9IJbWXsVPr/vJwEOBJvHC7vPX7RQssEG8FwtM6DVX44EeBQgghV9Q1igmQFt6hKJgFaV6M4lq5Pfu7Bm+55K50BrxyDMwjJsNNIU3unmAzTxAARMGgDH+BgFT8V+8VzMSyMqXcKAbyBwN9l/Ry5bARwur1PYvEiQpFm7HGPhRVo/YtWWZkEKiLAytRzC6vm1oU4uJb71NqmVnEPSoDQpShk36L05SGF809J5ndcJGI6+TmtXb3U0tlNLdz1ITXb1t1DHVw+ZOpEPy+XfTFlAcCawPphrwDhA5SUYPh4K6vkE8tKALvL8xqUX8qeOzxd5P/HFyD4AyUCwiH4Gu3c8ppY6Q3c8hplKO+bWTHt3b3UxYrqGxwWmUkob0wkVfaHfJQpkPtYfA4CDYvh1xGh0C7uczs49m7jZypo7+kX97rY9PdiAyr+/r5Ql7RE1mhCyhlgaB2pY7T+QFERoqYsTM+TSbBsBPgX9q/BtrCIaYdZWPvkvu7A6zf/rgHCgKKQGevmPrFdVlCrgu5JKEqDwjo4hsauYFBqtwy87wT4Pj7H99rFd6Xvd/YPiM+7Bob4WUPUw6TCc4fliGcxrc1cFxoA5lJg5VCxlAfA7GBbfHz8sXGTVmBJCSAYZnd79oAASHAgm4d5a0vtlEUkgiIYbsGj40iUsJM0PEq9QyPUw5aiezAShmTw+4Hpn0PBPfz/fQD/1gBbEPyuYkWW098Ik4BoZFg4gkRZSXm52FvY6fWVbNq0CXsHHxW3xN2AsACnnnrq0Q6Xx4AYvVohgBjHXt7WMNuFYsC0Y83/GJcL5BiRMTwGjIeB78mfj7KQx0RXIecxol0Z+ZqYUAgwIrbgw1ZyLo+XnG5PU0JCwjeWiwBHPPHEE8fZnO6iQnZAatgrVyyAkt9fuZbmEuEgExoWQCGAw+0mu9PVwwTA7OAldwSFBXjq5Ze/YHU4q5Czx7Yr2MJsWEWAFRIszTVpASYJYMeQstPZvzUh4UxZ+UtvAZgAXzTa7LW+YJAqq6vFsC4KNb5CgCW9IhEAO4ubbLbBzZs3n7VsBGCP80t6s6Xe4wtQOYeBKMyQCAMns4Ar1+JfCgGGQgQoJyvmU1isQ++///45cZNR2tJ2AY/Hx38532BsdLi9goVtcmp2hQBLewkC7JfCQOxqUlJWRmabnQqMppH//95758n6UXIBi04C5UePePqll76SV6BrNtscYjQK070H5EzgxAoBluwSmcBxaQEptreBE2602ogb4+jf33nnwuUgAH78E8888+LXM3M1rVjlgwEhzGvHjFaM6e+X5wKsXIt3hQaEENKKwaABsZmlP1hIOpOJcgsKxv+xcePFcZL5X1ICCCeDfYAT9mZktiurfHAoBE4GATOVZVFiKtP+FSwK5GlhyiaX2HUNB0y6fD7K1+spMy9v/xtvvXXZshHg2Wdf+E7S3tSOjNw8OCBiR0tMbsSqIOxsDSIoO29Ge8etwwFDw9I+xtgqTuwT1NIq5k5aOQLIyddSRk7uxLq3375CVv6yEOCkhJSUrpSMLLH5A1YHYX8gnGmDbU2xSxhCwxUsDjq6OoVMsYchDpCoqq0VM4sNFgtl5OZSWlYW/fXNN6+MkzKBRy01AY549oUXTt6+O6kncW8aZeRpCPsE+oqKxMggxgZqG+qprrGBfYMVHCwUOdaxTGH2K2tqqJi9f6fXy+bfQKmZmbSX8fK6dT9TEWBJQsEQAeLjX/rBloRdvQkpe2lvVg5p2Rm0e7xiyjMOXCipwDBxBVuFFSwmSssx/6KUkICzOOyUq82nlPR0scvpa+s3XLtcBDjy6fj4MzfvTOjHFuzJ6ZmiGzA5nOTy+8VEzkBxMYeHxVS4gkUGy7awUKytNFjMlJWXR8mpqYIEr7/xxhrWzSdlLN4Uru0AAA2SSURBVC0B/vz882d/tGPnIHcDlJSWTtnaAnHWDiICLHrwBoOCpb5gYAWLDA83MrvbxeGfkfv/HErcs5eS09Lo1TffvHnZCPBM/Ivnfbht+/C23YmUmJpGmeyJFnA0gLVuTg5N3FxIT4ALG/CvYJHh8nnZ+8fei3pKz86mXSl7hA7+um7d7aybo2UsKQE+wQS48F/bdozgWJXde1PZEcxnP8Ai1vnBF0B86o4AVxgifWcFs8Pp8ZDZbieNXscOYBYlJKdQIuvg1TfeuJN1c8xyEOCoZ+LjL/lgy7axzQm7aBeboPTcPNIYTRwNOMjmdpPDi11DPB8veJbhHgPm32i1Uh53u3syMmhHYpLQwV/XvXn3chAASYajnoyPv/yDLVv3bdqRQDvZBKXm5FIehyR6q12s8rW5UVD3nHB4uMtgOObx3VgGnDKYZ9Rn1nu++d7zTbsn4HKx+XeSzmymnHyOANj/2r57NyWwDv72+vr7WDf/ttQEQIjxySeefu7K9zdv2f/R9p3iMCaEgjkcCegsNtENwBewcWFnAtjtDfjI4nKSkfszt9/L5s076//EKhCPWxwO4ZG7hYPmFvew90FWniZ0D4o222yUrVHf82Esn3I0+bJzJ91DC8ehFiCB+llQvpmfVcDWNpt/O4n7/q3cDaMb+Nu6dQ/JBFiy2cEhAjzy1FPXvLtpC7EfQNsSkyklI5uyC3SkZUfQyP2T2eESK32x+0c4HGwdctha3PviFrrkwV108UPJdP2fttIHu9MEMWBBIv1fLAKpWIyGPvrks/SdE79HGeyUIQrCvQcf+RN97/snU44ggXTvdw88RCefcipp2Hxjaxjcu+ve39Opp51OBSwT3MMsqzt+/Vs648z/JgO3dKfHG3oeSIVzBLHJVmauhvv+vbRl5y7aCQK8vv5R1s2nlpIAR8oEOObRp566/r1NrLSt22krh4LIBSASyGdHUM8FRGbQKG99Ygq9OoVyc7miV/5hO53/fB09bpyg5z1EN27qo9PuzqZ/btsjfAjl+9L/xi5A9MLSUvrV3b+nLx3/ZdrBPpHYL6GklG694y76yle+SruTkwlL6LGA4+e33Epf/a+vUQq3XNzDauHVa26kr339G5TGDp3bHxTJtJ9du5q+ecIJlM2+FfYRUJ4H5eu5kWF/pXTudhEBbN4JK5xMr6xb9wTr5tNxkhVYdAIoDiBizE899NhjN8ECvL9lG23ZxaEgEyBdo6U8o5kK2A/Qc2EBQxgsbMZefieJznqunl4IEKV3Eun7iHa0EK3dvo/WPp3K3YhZEGjy/+xk4IqL1+XGHM81sjmGYu9+8I/0DVZYAjtknmCQAnzvznvuoxO+9W1KYgcNFgDK/sUdvxb39qani3tQNkjx7e98V7IebAFwyOXqtTfSid87ibsGjYiqRDmgfKtN7CWYi3OOsrKF6f9o+w7azlb45dfXP8u6+felJgAcjE8/8Mhjt7/z0RZ6l63ApoRE2pWaSWl5WnE8jJYJoLM5VHCG3hsddnpiQyZd8r/D9GYxkWuQqHSMKJeJ8HsN0VV/8YiuBATAiaMh2BxT/54T9sWBbfbPDVwunOz1u0eeou+e9H3axf4Qdk7Hxtm/uf9hOpHvJXGI5kByjL93x29/T987+WTam5FJTp+UNb3ll3fS9085hWP6HHJw/+/le2tvuY27hdPYX8gnK3eLeJaOlQ8fCxtrZWu14mjbHaz4D9kKIyH3wt9ee55185k4qRtQBoQWnQDoXz5z/8MP//adDzdLBNiZSAmpGZTKBMjRmynfYhcnXUWCnvuxjYlmWvVaP/1BT5TYTJTfTfROJdHVWyfovn8EhB9RwILFfvk4MKEglsHl9LCyH3gink457Qxhkm04Q5lb9r1/fIpOPf0MdtTSycZm3F1YTL++/4/0gzPOYAJksWI5rufu4vbf3EuncX8Pk25FDiVYSDdz93HG2WcLAphdHqH8Ala+tI+wibLY2qYwibax4v/FVhgJuRdffRXHyR+7HAQ49r4H//DARibARrYCH+7cTTv3ZtCeXC1l6syUa3ZQvtXFcFK+zaWCU0Dn9NKfdzTThW+N000pE3RX9gRduXk/3bKxjzLMRaS1O0PfFcCJI1bpvVYmRayggMvkKiyhh555kU4/+xxK2JNKFla2i5V93+PPsRLPpaS0DLKwsl2s7LsffpLO5Ht7MrPFiWC496vfPURnnnMupTEBcEqIk32DW3/zOzpr1SqhaKPTzY3CJhpGPhMgjwmQwY0tibvdrdz9vr95q4gE/vLKX9ezbj4bJ/kByoDQoilfyQGAAJ/77f33PwwC/JMJ8MGO3bRtTzol5eRTGhMgy+SgXCaAgM2tgksgj+EoqaJdtj56fPcIPbBjlN7KHSJrcTPpXD7+P6f8Xec05FljCxqGPVhCDz/7Ip11wUXCEho9HLoFi+n+J/6Hzjr/IvaPssjAyrYHiuieR56ms/leSlYuGVwc9voL6c77/kjnXHAhpbJXjyPibL4g3XbPA3TuhRdRBhNA53CTxmQjjZGVb7RQts7I3W0+7eZnbWLFv8e+2GaOBJ574aUNrJsvLDYBjoibSgA4GF+4fs2Nd7717vv7//khO4Lbd9OWlHTalZ1PewpMlG7k+NfioiyrDEtkmFlw/poGCtQ1kbOsknLtHsq0OOXPnQLZCqyq97PCMQvCP4/w/2aAyw+Y5gDqabKTyVdMf3zuJTrv0ito+95Mynd4yegtpAee/B8675LLKSE9m/K5bkZvkO559Gk674eXUWJmjrCKRk9AdAvnXXwpJWfnCUIZ3X66/d4HadUll9He3HzK4y41i7vWLB2bflZ+ulZPe/i7O7nRfbhjF6Er/nDbTrrvoYfjWTdfUhFgUbqASAT4z+OPP/7yl15fX/UO+wDv8MM/YgLsyNJQUr6J9hjslGp0UqoJcMlwquCiNNzj7+xlIabKSOPPgHT+TMCM9wpcqvezwcH/55j6Gv4+AtKMatinIFUNw3Ro3YX0yF/+RhddeQ1t2ZvFxHVTvitADz77Al3045/RtrRsJhR3gU4/3fv4n+nCK35KO9NzKZOfq3H46K6HHqMLLv8J7crke0Zu6UyW27lbuPDyH1NitoYy9Fbam2+QoNFTSl4B7ebvbktJ5caXwF3ANnr73ff7Tj39dJwi+pUwAhw0CSJaAMbpHKv+/a133t//3tad9K/de2hrhoZ2aYyUpLNTksFJyXPCJZBinAEm9d9O1eviQyqPYyr0DkrS2yNDJyGxwEZZjgA99sobdMWam+mj1Bzaw7+XafPRH5gUl19/E21Oy6UU/q0Mq5fue/p5+tF1a2gL7umslMFk+Q1HEJdevZq2MSmStSZB5DseeIQuueoa2pGZR8n5Rtqdq6PEPEYuKz9bSzvSc2hz4l5hAf7FDfD2X9+1k3WyivHlpSSA4gTizPoTGddd8dOrdr28/u/9H2zfRdvY/CVw4RLzDJQEIrA1SGYkyUhWvaJSSYxkfE+j3JvE5Pfl78lQv1f+Dr8X6bPw9+p7AqIchmlIlKF+n5inn4JMbt0PPfcKrbriKvpg915K0Zopgy3J7zgywL0PE1MphZ+RwdbiNxwZrPrRT2hTUhrXXU/pegvdwT7AeZf9WHSjSazgdPajbmUf4ILLrxQyTYbS2bomykDrT+Cwe8vuZNrwz3fHbrz5Vh3r4lcM7BX4xTgpCvhEmO4WhQRKHgDbkmIpMlai/PK44z73j4svudS0es3a0mvXrK269oa1NdfesKbumhvWNFxzw9oG/lu8SlgzFdff0BgJ105933Q1sFp+VUH9HfX/XLP6+kb150D439esjvxsUa7V8ufqsq6O8MpYe9PNDRf+8EeNJ510UuPV117XeN2anzesvfHmhgsuupjvfb/xmmtXNyj3Vl14UeNJ3+d7193QwPKqF/cuuLDh5JNPabyWfwv31tx4k/jfM848s/G669c0XnfDmsarV1/fhDrJ5WKZrqm59PL/5/vi8cfvYB1gDOBHjO/IjVOdCFp0AiATiGQDTM3JjMsYtzEeY7zIWMfAhkXwSN+KgA2qV+BtGf8Iex+O/53hvRpvzxNvqV7V5VLj7zLeDIP63hszIPyz9bJcIuF1Ga8xXlXhNRnK99S/jd9DzP8UA6eF/CROav04Pew/4qaOBi6qI6iMBcDEfI7xdcYPGFiRcjUDTsgvGLercJuMWyNA+ez2CFB/Fv6d28L+P9Jv/yICbgl7H46bI+CmGXBjGH6uQvjfwFoZayK83iDj+givyveU371Jfo/PfirLHjqARf583GQSaFEJEBenmg0UJ1mBT8sP/BrjJMYZDKxOhSNyPuMCGefLWKV6H44LFoDzw373ggi/tyoCzlO9RsK5qtdwnKN6nQ1nz4GzVK/zxTmq56vL899xkuJPlHUAxxzjAEfHLeEmEQoBjpIfBBIg8wTHA+YHLDxBhW+qcMIs+FYYZvr8hLDXmb4fCd9cRHzjAPH1BeJr8qv6N5Tn4zN0w/8ZJ/lkivKXZ4+guEkSwOEAEeAXoP85Vi7QfPHZBSLS/yzkeUuBY1X1PnYJEf5MyFsZ/VvSlh9+hfsEYpKICkfPA8csA+ZTjkMViqwhe0Xxy6L88Cs8T7CC5cOihXkr18q1cn1cr/8DH55G3x8p6ksAAAAASUVORK5CYII=;fontColor=#006600;" vertex="1" parent="1">
                    <mxGeometry x="406" y="405" width="48" height="48" as="geometry"/>
                </mxCell>
                <mxCell id="18" value="" style="endArrow=classic;startArrow=classic;html=1;strokeColor=#006600;strokeWidth=2;exitX=0.5;exitY=0;exitDx=0;exitDy=0;" edge="1" parent="1" source="12">
                    <mxGeometry width="50" height="50" relative="1" as="geometry">
                        <mxPoint x="260" y="405" as="sourcePoint"/>
                        <mxPoint x="310" y="355" as="targetPoint"/>
                    </mxGeometry>
                </mxCell>
                <mxCell id="19" value="" style="endArrow=classic;startArrow=classic;html=1;strokeColor=#006600;strokeWidth=2;exitX=0.5;exitY=0;exitDx=0;exitDy=0;" edge="1" parent="1">
                    <mxGeometry width="50" height="50" relative="1" as="geometry">
                        <mxPoint x="429.5" y="405" as="sourcePoint"/>
                        <mxPoint x="429.5" y="355" as="targetPoint"/>
                    </mxGeometry>
                </mxCell>
                <mxCell id="20" value="" style="endArrow=classic;startArrow=classic;html=1;strokeColor=#006600;strokeWidth=2;exitX=0.5;exitY=0;exitDx=0;exitDy=0;" edge="1" parent="1">
                    <mxGeometry width="50" height="50" relative="1" as="geometry">
                        <mxPoint x="549.5" y="405" as="sourcePoint"/>
                        <mxPoint x="549.5" y="355" as="targetPoint"/>
                    </mxGeometry>
                </mxCell>
                <mxCell id="21" value="" style="endArrow=classic;startArrow=classic;html=1;strokeColor=#006600;strokeWidth=2;exitX=0.5;exitY=0;exitDx=0;exitDy=0;" edge="1" parent="1">
                    <mxGeometry width="50" height="50" relative="1" as="geometry">
                        <mxPoint x="669.5" y="405" as="sourcePoint"/>
                        <mxPoint x="669.5" y="355" as="targetPoint"/>
                    </mxGeometry>
                </mxCell>
                <mxCell id="22" value="" style="endArrow=classic;startArrow=classic;html=1;strokeColor=#006600;strokeWidth=2;exitX=0.5;exitY=0;exitDx=0;exitDy=0;" edge="1" parent="1">
                    <mxGeometry width="50" height="50" relative="1" as="geometry">
                        <mxPoint x="789.5" y="405" as="sourcePoint"/>
                        <mxPoint x="789.5" y="355" as="targetPoint"/>
                    </mxGeometry>
                </mxCell>
                <mxCell id="23" value="" style="endArrow=classic;startArrow=classic;html=1;strokeColor=#006600;strokeWidth=2;exitX=0.5;exitY=0;exitDx=0;exitDy=0;" edge="1" parent="1">
                    <mxGeometry width="50" height="50" relative="1" as="geometry">
                        <mxPoint x="909.5" y="405" as="sourcePoint"/>
                        <mxPoint x="909.5" y="355" as="targetPoint"/>
                    </mxGeometry>
                </mxCell>
                <mxCell id="26" value="Disk x3" style="shape=image;verticalLabelPosition=bottom;labelBackgroundColor=none;verticalAlign=top;aspect=fixed;imageAspect=0;image=data:image/png,iVBORw0KGgoAAAANSUhEUgAAAIAAAACACAYAAADDPmHLAAAACXBIWXMAAAsTAAALEwEAmpwYAAAgAElEQVR4nO19B5xkVZV+gwir64JhFXUNGBABCUsakoDwV0TCwIwEARFRQEkiQaJsS1RgBhxw/w5JmDw902Gmc6iurpxzdc4559w902fPd9971a+rq9NMd1fN0O/3+35V/aq63r3nfPfcc85NcXEr18q1jNcRK5gXDvkr2gI8XBHzV7QF9HFBTF7RFsrHETFzRVsQH2dE/TokChnFSy2Dw44AMVuwGL8ORLkxLetpBUpISDjaZHfdaXP5k+1un97p9etdvqDe7Q/qvcFCva+wSO8vKtEHi0r1wZJSfWFpGaNCX1Q2iZKKSn3pFFRJqFSjOoQy1ftJhH9f+o2SECrFa6l4VaFsOooEppaxiMtcGALXoQSQ6gSgjgJcXx/X2ysQ1HsChTq3kEeAX/06l8evczBYVjqby6Mz2916s8OdYbDaH03Waj87g5xjhgDKJQq0x2j8D5PNkeIrKqVgSQUVllVRSVUtldfUU2VdA1XVN1J1QxPVNrUI1DW3Un1LGzUAre3U2NZBTUB7JzV3dKnQTS2d4eiRMdt7Bv+v+P8O5f3kb4rX9q7Qa1PH5HsJnSE0KVDKyEB5G1slNLS0i3rUo06MuiaA69nYQjWNzaLeqD/kUFFbTxUsk7LqOipl+ZRU1lBxRTUVlVdRsLSCAsVljFKyOFzOtDzDt9UyjoDYubR682t+Vj63eAIJCrlCqGBlbQNV1zdRDZTPwpCU3yIJSyYABApBhwgBgYIUArKg28LROQtApC5q7ZIIMZVQkQHCtDJQjsbQsyU0KGhpn1S2AihcrXSBZqF4/F3f0hr6u6axaRoZymvqBBnQWECCQEk5uQOF3IjKSG+2ZWm12qNUYo5NAmRnZ39JZzK3CeUXlgpGV3Ll6rjSjSyA5rZ2amlvp9b2Dmrt6KS2zk5q7+qijq5u6u7tZYG2ksXpJrPDSXa3l+weBT5yAF4F/mlw+gLkkOFUweLyCEE2trZR78Ag9fQPUHdf/zTgPj5HOb2FRWTj5+NZLn9AhaAMfu+T4PT5Q1CXB2UGrC43GWx24i5C1LWV69za0SHkAHk0tzHxuWx4bj03iDomSTUTo5zJwN0OeYNcFpdnv0avPy+CyGOMAPmGVdxvkYeFxH0kVdXWUQNXqIUr2t7ZRZ3d3dTV3UPdPT1C4T29fdTb308Dg4NUW99AWoOJAkXF1MWf476CvoGByIDS+qf+Pfn5oEAnP4/7dTLZnVRcXiHuDY+M0uDwMA0ODYvX4ZERcb+4vJKMNgeV8PdAzp7efvH7UyGVqadPRq/qfV+fqBPQLdAr6oK66cxW8gSC4m98D6+QBWTSyQ2gg8nRzs9sY3I0MyHqm5q48dQJ4gSKS8hgtt41g9hjhwC5+fqr0VL9hcVUxn1aHZs6KB+VgzB6+ySFQ1H9rKTBoSEaHByikrJyKjCaqaaunkZYGcPTMCowMjoXxlSv0vvRsTEaGx9ngfdyayoUrbq2oZHLAuINCcXhb1gads6EUkbHxsX/RXrGsPI6Eg6prEPAsIJhgWF+DyXb2Bpwny4aA+reBzL19Qu59KgIA3nBMkB+7NwKAlvtzidnEHvsEECjN90JIbI3TFXcpzWySQOrUTFUFkpHa4fSoeg+rriLFWJmE9nOzB+D0Pk+MArlyRhRKQOKORCABPh/tC6lVcEiBErYTykrY6K2hb43799Vyjg2nSRqUgC4P8h1D/Jz9WYL1bNyh0aGhTwgl35hwSTr0s1khQVqamlhOdZSRXUN2ZzuddHW75wXt+LH4bkWs/mvYecGQoWJQ6X6oXhm/TC3CAitpbWVDBYredksDnDlx6YIdEz8PQWsmMXAvn37aJyhVti4fG8hvyMIgNfZCKMisRpSl2BhOZULmcBKgAgSGQaFvCA3yK+Gv1vJjcnh8W6Otn7nvPRm66to/RxXC7PayuYfJrVP7ueHhTkcplJueQXc31cxs8NbOzBN+YxxFrQai0WIRYNiacIQXjfUF/c72cxbnS52dj0so25hJUAGyAk+DOQGZxndQDU70m5fICva+p3zYkfnoyJmNfotODFwaGD+Yd5QcVQUfSA7NNTGXnAkAc1H+bGMSOWPRAK8Dg5Mdgk19fXCEoAEsAKQWztHSvWICpgAHn/AHh8ff6RK3LHT9ysXRwAZggBV1cL7bxeedJ/o++oaGiifW72XfYT+fpj80Yj9/ceFAEq98drArVzP3aGPw0/hD7C8IDc4iw3sR1UJAgTLN2Vn/3uYyGOHBGCn0eqwggDlbNobZAcQ5h9kyMzLF96+WgCRCHAokyBSuWcjgIh4ZJ8IXUKezsAkKKQBtgKTBGgV4TQ3nLYMvf6LYWKPHQJs3Ljx00arvbSwFASonSQAMxrxLwgAT1+pNLBQEsQqGWYr61zKVzDESrc4nFRgskjhMoeHCAeRHEM+wBcsHNCazd+VxX1E2Gv0r6SkvC+Y7Y4WOIEVcgjYwQyGBUDFcgv0IgGkrvSBWIKIGJ90xpZEwULJiqJnV3hI8QtUPoDsp0ZvEDkLyA0Z0saWNiFPf1HxPqPNdo4s7tgjQFpe3rfNDlc/LEBlTT3HsK2Cwch6IdxD/4+4fyEEkDAPQYfH/FFGROVH6PrUsgCQQUVDEQ2HLWdnVw81tbaLdDpCRqvD8WNZ3LFHgCyN/iyrwz0OC4ACgwAi9cutPt9gZCfHJuL98ErPjwQLsAZRR+Tyh9cznAAjjEBxMWVptCL+RySgEKCqtoEjqyoyO523yuIOn2QS/StHb77C6fFLWUAVAWAFsvILyGx3hkzdXCSYjQixQoz5lm8uxStdwMjIsGjl6bka4TT3y+MYza0dVF2HZFAt2Z2eP8jijqnRQFGAPK3+FiUNXC0TAMkMjAWk52hE/6bu74bChDATERZChljCTHWJpHxBAH5fXllNadl5rPD6aQRAo3J4fC+qZB4zBBCXRm960FdYLBGAK9Dc2irMP6KBPVk5Iv6fQoAFkiDWyTBXucPrGS4L/F1dV0d7s3JFJhUZwU7RgDrE8DAI4PT43pHFHTuKV64Co/n5YHEpFbETiHEADLogm4VcdnJ6liAGBBFe6YUSINaIMN/yzkUAdAEw/XsycyhQVCJyAV3dvUyATqppaBS5ALfPnyKLO7aUj0trNP8zoBCgXiJADxOgoqpaEACv0yzALERYCBliFTPVK5Ichhlw/lK5C8BEEwxVS+MBnVTbIM0NcHkDhrhYVD4undmShCFWZAJBAFQGBEDLR6Uw/ImKIy0ciQSzEeFQIMV8yj5TA1BkgjkDmRp2mB0ukQ5GPkAhQEV1LcYDAhkZGcdEW9cRL53ZqvMXFYuZQMICyATAJIzsAgNXpD1UWQUzEWG+ZDhUMFMd1bIAkCfBzCG9xS4SQd0KARqbRXqdCdCQ63QeF21dT7s2bNhwjN5s9WMwo1gmACxAt5iFUyTm+WFoOLzC8yHCoUiGueoTSfkAxgPcmMfI8kICDT4U5k5iniBGWL2BYLdOZ/96tPU97UpISDjOYLXX+VjZJeWTcwFAABQcSQyEhchxL0TxhyoBDoQEGAXEDCDICt2mmF/IwMwgTBYtq6pBJDVqNjtPi7a+p12JGRlfM1qdXQj1QgRgk69MfMS4AJzCtvYOkQ08ECtwOCFy6+8WM4PrGhvFoBkIgS4UA2oNMgEwYdZoc/0w2vqedqVlZ//AYHOMeAQBqqhORQClLxMzXdkR7OKKztQVHK5kmKu+6PshHwCZ0wF5ZrOaAOVMADjYNo/n+mjre9qVq9VejGnXGMworQABmkIEgNlHhfA3Jjc2s5lDpWeyBIcqOQ6kLooMMFMKVhNZU0yWGZAniKILwMBQI8usggmABJHd47872vqeduXm61djIUVEAmA+IFcIZg3TnzAzSKm8GgciwEMRkerdwY4e+v5Wdpxxr19Mne8XFgAWAV0owsDyqmosEnlGFnvs5AM0WuNvnd4AE6CQCVAtJjJiQmO3ygKg/3d5/VRdWxdREIc7EWarL+ZHIoSGExhOAEQGcKAVAjg9njdlsccOAfL15qew/AohH5wVTGTEhMZu2QdAJVE5k91BdfVTLUC0FRNtQggLwP081kfU1E02DjiBaDzoHuAbYIi9TBDAt00WewwRwGherxAAzkqDQgB5QQj6yPKqKtJbbYLtKxZgKqBot88vukjl3iQBegQBMBiEkNrl8eXKYo8dAmj1pi3uQJB8YQSACYM5AzAczOwV72cTxkIQy0pdaD2wVsLCjnSnEgX0S0vG4EfBOcQIK/wrthTO+Pj4o+bWyjJebAGy3X6sCC4Wnr4yJVxZE9DY3CymhFXX1AprsFiCO1wAAsAB1Jut7O1Xib/7FQJwF9AqCNAgFq06vb7KhATtZ6Kt89AFNmqNZjtGsPyFJYIA6jWBIACiAwOb/x5ms9JysChCtKSBxW9RhxIUCwl4/AEys58EOfWrLAAIgPQ60uwub6DdZDJ9Kdp6D13/SEj4TIHZWu5kDz9QVCoWhSoTQmHGEA5q9CZh4pAijbbZXhYMSFgIEYb4/xqbmkijM3CkJFlKJIPQiLDCCsk1ZFndvsCgwWD7XrT1HrqSkrAphKUNy8KxrUloPmBXt6gAJjewhaAuJsSBJkwOtp+Olb5+ti5AeY7N6RJWoF/eF6FHXiKG0BoE8AYK99vtnnOjrffQlZqTcyJbgAEQICjPBxTTweQJoQVGi5gOFg3lRwORlDrf/4WFxILZ7Hwt+1FNYlqYkg5GaF3KBECD4g73p9HWe+jKzMw7V2e27QMBJucDSnMBMJM1W6sX5mt4ODYIECl1OzQ0KExwLJSts7NLdAOYR4GFoko6uKGpRYSB2NvA6nD/Mtp6D105Gt1PmJFiD5+iUswFkIaCUXA4hlqTVVgDIfjB6GFYVjxm2bRjm5p+Nq8D/HffAHX29IqlWKHcftTKKREBO4lwtyptocNyVEYKy8V4QBU2i3gk2noPXXk63W1WxPjsBBbLQ8FwWpDd4q5B3J+pFS4XYFqRlcRWKx4OVUtZkC0dXdTJAm7m/hU7dBWyh42yw2TPdzx/KQaS8Gw4zOgGkD3tG5A2i8BGUkgHwwrY3d5Xoq330JWrNz6MXbHQ2kswEMTOiuK05LApwyAHZrwuxDwvJjDfHoQ0WB2Uz84o5i0i5u6XU9SIVNBlYTYTMpViiTbfWwoSzMsP4O81cRgNAiDu7x8cEAQQ6WBsJccEcLi978vij342MF9vesnpCwoCwDxhzB99Flpbjs4ocgIgwGIMnx5In4o8BFbcYsUNNqESzx+WNmJQAGWj5ReVlVFadq6YeBGtkFV0U6xwJM6cXl9ot5BmrBEUBKgip8ebKos/+gTQ6k3vQvkYCQQ7sdkB0plwYjQcAeA9WiGYrcYUQgwOLgnwXAw/70jeQ8XsPI2Njoa2YRGbVSkkkAWP2b0mtgJ7M7OkbVuWsGwzYkjKlGIpndFml+YGyulghNhoWC6v30QUfeWLAnCMnwICeAPSOIBYFs5OC/wCPZtdmNiFzpFfLGDhhr+oiBKYAIhKwlt+OFDO2vp62pKwW4Rh4QtZlguQCWSKLgvmH2XH8Hp1nZQMcnn8RVqt9t+iTQBcR2qNFgN8AIwEwkmR0sBdZHK4BRSnarEmUi6UABhh25GUImXbhoenQ+0vsMIbOd7etH2nmLkUTQJgr0WNwSxyAIgEMDsYEZacDm7Kysr6fLSVj3GAT2uN1qDd7RMDQZVyGhiFNticwgoonu1SzKqdC+gC2rnlfLhtuxiIwkYPEUkgA1vFWewOSkpNlYm7/MpXCIB4HwTAlrKYVYXZwVggUiQI4O/VWiwnRFv/ce+9l/B5DvUaMNSLDaLRR7Vg9i+zVcfm3+bxh1qWwPD8ECLC0MED/b7N4aRtbNYxOXV8/wSNjI3T8OiYtJkj1vfx3+P791MtO4kfbdtBVdXVwnosxvMPBJABFJ1ntArvH44srCr2XIYFcPv8YyaT/cxo6z9ue3LmCTqrvduupIFZgBj8QRiotznI5PSIwqvX0y/FcqvZoPyWwWyhzTt2Cs+6tbuX+kf30eD4BPWNjIldyrFV27aEXVRcUiopP8rrCnzcdWnMNhH/Y5kY/Kr6phZBAB872BaH47Jo6l44gKlZWWforfZRdAGFJdKaQDgrcFzQ/8MKwJuOtKHCchFAYETaiQstPJfj6+TUNMrIyaMcbQGHfTm0Jz2DjBaLvHdhdJWv+B0Of5C03I3C9CMXAAJgxzAk27AK2+pw/1yti6gQICMn/1Ijhyt2kQYulxeEdAiv1e5lL5YZjC1hZ9tRYzmJgO4AZcE8fCSDmpqbxWxl+CmijItJugMEZNLX109mblQGtqDKnApsF9PIBECyDTuJ2N3u30edAFn5+rVWl5QGRniCPgoOIArsZ5bmshODWcDz3UDxYNbfLwTKbx9o17SUQJmQudTZXWT1BqT9gwellcLYLwi5FrE+wO19LuoEyNMZ71UOa8B0cPRRcFZQaKxmzdWbmAglB73fTrSVsixQkRLTv/K5+/RyI8IewiCAWF3FvgpyLUgGOTzet6NOAI3B9KwTJ2j4glIWsElKAqHAcF40BguZnW5hYhe6oeLHiQTqeqIbgPXUWOxUzqEriIEGhQMosF0Mci0ggNPjS4g6AfKNlg04QsWNNDCygPLOYNKU5n5pAIZJgAki+znMihUSxArRwp8NGSDta+awWsuygz+F74mDLZgA2CtA7BlYjlyATxMtAoQ2KNIaLTtAACkLWCdaPSYxgrEjHGPjfk6BQZx+hX36xV79i7Tl6uGA8DqOj42L/ZUKWPkWJoHYYp8JgGNtevsG2DfoEulgkQvw+jzx8fFHL7fypxBAZ7blOf0B8mI6OLKAbdLGUCg4dsvElvG5Or3YJBLpTFiBgyHB4UKESPVC3TEegQU2GpNVhHu4HyJAPxOgs5tD7SYRBXh8weqMjIxjVTpZVgLEXXXVVcfozFYX1gT6ikrE8WfN7dL5ANjhaliYrkEyWu1i+1N4rgoB5rIGi7lRY6xgrvqg3hhH0bG8tCabSKbh/xQC4Jyldg4FaxuaxTJxtz/QkZNj/GrUCLBhw4Zj9WZ7pcMjTQeH59qCHAAWg8oEQMXKMC9AW0AGtgKIbyfCSLCPK65GiAjCJE5HRAFCwPOB+rsH+hsLeVYkRc8A9PVYXYX8v5ud6lGVr4ADqLBxZAcToK5RygZ6fIEhvd56StQIkJiY+BW91d4OAgSRBWxoEn0UBi4wsDIiCwGza/QmC+WxFSgqLRNWINwShONgt2iPNcxVl/1cZ0ykwRS6fAwAsS+F+6FDqEQoOMQOdh/VN7eJ7sEXLJow2WwXRI0ASWlpJxus9kExG7i0Quxk1dY5lQAwYWjV5bIVKDCZxTJxXHMRYTH26o9VhauBuiJqsrk8lK83iVVUSrcxSYBRad9AjgQaW9pFNhDpYJvLdU3UCJCRqz3fZHdOYIPo4vIqkQSCieofkDxXZdt2mDfktrHYIbdAJw5JAkEmJiZCJFBjNsuwUHLEAuZTF/TpmLaGLeIwgwqNZmx0cvt7nIEIPwAnnDa1dYqQu4S7AavDfZdaJ8tKgByd7mc2MRsYk0GrxUAF9rYFUxXzr/TZMHEYE8jniCBfb5S6Ar4HEkxEIAE+C0dEAYb5DzGDWRSurtPE/glh+nHaKlZPYQMI3A/3eXBmAvwAHG+LA63LxWYRNcTd75+iRoA8nfFXSAEjD1CGmUAt7SJfPYDxbBQ8QkvAmUEaJgFOCcXUK1yCBDNYgwO1ELGGSPWgCRLz/XG2cIHZAq9e6jLDLJx0RuE4DXE3gLONWzu6xanjIIDT63tdpZNlI4GUBDJZH0XMiiwgGNnU2iHSlYOzEADJIZfXK1a+IDzEZIfDlQSzlR/ax1xJl88vVk1bnC4pTxKhe1MIAD+gj60rTkLHSeywFi5fYNNyEyD0IPZYX/UEiwhAerKZ+6aevgFhqkYjECDk8LAZw7QrmDycJYQJJAdCglgkwnzKjDoipsf6A/hF2F0NMlBS5TMSgLsBEKCNCVBV1yi2i/H4CzOiRgCdxf6hJ1BE3sISLhByAF2ij4KpEsqfRUjd7Cug8nB6wH4shIBg1ESIhIWQI5aglB8Xcvp+Vr5VPkgayZ+ZyDwuWwRx7jFCarau7RwKVjc0izUYHl/Qds8993xSpZvlI4DR6shA6/cXl3GBmjgE7JGOZh+dJMBMJIAw4O2a2QIoJhAnZ6KyhwsJ1GVW6oQFM1C+w+MVYR92UpmWGAsngCDBPjFvcQCnkPf0UQ2H3PJS8bKNGzcep9LN8hBg/fr1nzI7XFYM9gRLK0R2qqO7V0QA8FhnUnw4CTDyhbDQZLOT1elmVleIfPhcJIhVIkQqJy40COz2ia3g4OxhAg38H3w+n64FBMAh1YNsXbt6+6lWzgZ6g4WtqRrNfy03AeIyMjK+aHV6SrE1LHIADS1tIkkxyAyVTuhmVu+XMJvAcCEJgv0DYA5BBizLQh5c+XwuIsQqSAbGQ3DaB0ZE0WAwfR7evzoZNhMUGUKeY0yEIbau3exn1XPIjSl4vmBhv9kZ2jx6+Qig0+m+ZXN7W1EhrLTFTBWMVsH8j8/TGVKTAOEP1rzZPR6xXx4IUVVXJ8YUlCvaCp234uUL8Tumx8NZQ6IHi1JLK6WzgOaj/HCMMwmQEOrpHxSnieJ8RnYk9zk8nsuWnQB6i+Us7sf6ffIwcGtHl+j/R4T5lwsNM70AoeEVi0qwphBHzUpnD5QLU4nE0sFcCynDwV4w2ZgMgz3+ER6XVlZTcUWl6ALm4+NM6eYmJqZYAziCyAUg6YbNOLDqye0LrlXpZslJIB5gc7kut7u9+0AAhCRIASMBhHBln6z8A209mE6GGBe/HSwpJeks4hppdsxBEmEpLyge4R0mbuKQJ5z0hfAY7zE+olwHIpf9+ycmCdAvEUDIhuH2BdSzg5eUAKEHWB3utWilGAbGIBD6fyQqxMjWDM7QQkiA32jnKEGYz/IKbkFVoiVViYUnHcJRVLqPaF4o76hQygC1sLmHL4T+ua6pRbx2spOLLlH57oECDQoEwLMw1oKpd9IJbWXsVPr/vJwEOBJvHC7vPX7RQssEG8FwtM6DVX44EeBQgghV9Q1igmQFt6hKJgFaV6M4lq5Pfu7Bm+55K50BrxyDMwjJsNNIU3unmAzTxAARMGgDH+BgFT8V+8VzMSyMqXcKAbyBwN9l/Ry5bARwur1PYvEiQpFm7HGPhRVo/YtWWZkEKiLAytRzC6vm1oU4uJb71NqmVnEPSoDQpShk36L05SGF809J5ndcJGI6+TmtXb3U0tlNLdz1ITXb1t1DHVw+ZOpEPy+XfTFlAcCawPphrwDhA5SUYPh4K6vkE8tKALvL8xqUX8qeOzxd5P/HFyD4AyUCwiH4Gu3c8ppY6Q3c8hplKO+bWTHt3b3UxYrqGxwWmUkob0wkVfaHfJQpkPtYfA4CDYvh1xGh0C7uczs49m7jZypo7+kX97rY9PdiAyr+/r5Ql7RE1mhCyhlgaB2pY7T+QFERoqYsTM+TSbBsBPgX9q/BtrCIaYdZWPvkvu7A6zf/rgHCgKKQGevmPrFdVlCrgu5JKEqDwjo4hsauYFBqtwy87wT4Pj7H99rFd6Xvd/YPiM+7Bob4WUPUw6TCc4fliGcxrc1cFxoA5lJg5VCxlAfA7GBbfHz8sXGTVmBJCSAYZnd79oAASHAgm4d5a0vtlEUkgiIYbsGj40iUsJM0PEq9QyPUw5aiezAShmTw+4Hpn0PBPfz/fQD/1gBbEPyuYkWW098Ik4BoZFg4gkRZSXm52FvY6fWVbNq0CXsHHxW3xN2AsACnnnrq0Q6Xx4AYvVohgBjHXt7WMNuFYsC0Y83/GJcL5BiRMTwGjIeB78mfj7KQx0RXIecxol0Z+ZqYUAgwIrbgw1ZyLo+XnG5PU0JCwjeWiwBHPPHEE8fZnO6iQnZAatgrVyyAkt9fuZbmEuEgExoWQCGAw+0mu9PVwwTA7OAldwSFBXjq5Ze/YHU4q5Czx7Yr2MJsWEWAFRIszTVpASYJYMeQstPZvzUh4UxZ+UtvAZgAXzTa7LW+YJAqq6vFsC4KNb5CgCW9IhEAO4ubbLbBzZs3n7VsBGCP80t6s6Xe4wtQOYeBKMyQCAMns4Ar1+JfCgGGQgQoJyvmU1isQ++///45cZNR2tJ2AY/Hx38532BsdLi9goVtcmp2hQBLewkC7JfCQOxqUlJWRmabnQqMppH//95758n6UXIBi04C5UePePqll76SV6BrNtscYjQK070H5EzgxAoBluwSmcBxaQEptreBE2602ogb4+jf33nnwuUgAH78E8888+LXM3M1rVjlgwEhzGvHjFaM6e+X5wKsXIt3hQaEENKKwaABsZmlP1hIOpOJcgsKxv+xcePFcZL5X1ICCCeDfYAT9mZktiurfHAoBE4GATOVZVFiKtP+FSwK5GlhyiaX2HUNB0y6fD7K1+spMy9v/xtvvXXZshHg2Wdf+E7S3tSOjNw8OCBiR0tMbsSqIOxsDSIoO29Ge8etwwFDw9I+xtgqTuwT1NIq5k5aOQLIyddSRk7uxLq3375CVv6yEOCkhJSUrpSMLLH5A1YHYX8gnGmDbU2xSxhCwxUsDjq6OoVMsYchDpCoqq0VM4sNFgtl5OZSWlYW/fXNN6+MkzKBRy01AY549oUXTt6+O6kncW8aZeRpCPsE+oqKxMggxgZqG+qprrGBfYMVHCwUOdaxTGH2K2tqqJi9f6fXy+bfQKmZmbSX8fK6dT9TEWBJQsEQAeLjX/rBloRdvQkpe2lvVg5p2Rm0e7xiyjMOXCipwDBxBVuFFSwmSssx/6KUkICzOOyUq82nlPR0scvpa+s3XLtcBDjy6fj4MzfvTOjHFuzJ6ZmiGzA5nOTy+8VEzkBxMYeHxVS4gkUGy7awUKytNFjMlJWXR8mpqYIEr7/xxhrWzSdlLN4Uru0AAA2SSURBVC0B/vz882d/tGPnIHcDlJSWTtnaAnHWDiICLHrwBoOCpb5gYAWLDA83MrvbxeGfkfv/HErcs5eS09Lo1TffvHnZCPBM/Ivnfbht+/C23YmUmJpGmeyJFnA0gLVuTg5N3FxIT4ALG/CvYJHh8nnZ+8fei3pKz86mXSl7hA7+um7d7aybo2UsKQE+wQS48F/bdozgWJXde1PZEcxnP8Ai1vnBF0B86o4AVxgifWcFs8Pp8ZDZbieNXscOYBYlJKdQIuvg1TfeuJN1c8xyEOCoZ+LjL/lgy7axzQm7aBeboPTcPNIYTRwNOMjmdpPDi11DPB8veJbhHgPm32i1Uh53u3syMmhHYpLQwV/XvXn3chAASYajnoyPv/yDLVv3bdqRQDvZBKXm5FIehyR6q12s8rW5UVD3nHB4uMtgOObx3VgGnDKYZ9Rn1nu++d7zTbsn4HKx+XeSzmymnHyOANj/2r57NyWwDv72+vr7WDf/ttQEQIjxySeefu7K9zdv2f/R9p3iMCaEgjkcCegsNtENwBewcWFnAtjtDfjI4nKSkfszt9/L5s076//EKhCPWxwO4ZG7hYPmFvew90FWniZ0D4o222yUrVHf82Esn3I0+bJzJ91DC8ehFiCB+llQvpmfVcDWNpt/O4n7/q3cDaMb+Nu6dQ/JBFiy2cEhAjzy1FPXvLtpC7EfQNsSkyklI5uyC3SkZUfQyP2T2eESK32x+0c4HGwdctha3PviFrrkwV108UPJdP2fttIHu9MEMWBBIv1fLAKpWIyGPvrks/SdE79HGeyUIQrCvQcf+RN97/snU44ggXTvdw88RCefcipp2Hxjaxjcu+ve39Opp51OBSwT3MMsqzt+/Vs648z/JgO3dKfHG3oeSIVzBLHJVmauhvv+vbRl5y7aCQK8vv5R1s2nlpIAR8oEOObRp566/r1NrLSt22krh4LIBSASyGdHUM8FRGbQKG99Ygq9OoVyc7miV/5hO53/fB09bpyg5z1EN27qo9PuzqZ/btsjfAjl+9L/xi5A9MLSUvrV3b+nLx3/ZdrBPpHYL6GklG694y76yle+SruTkwlL6LGA4+e33Epf/a+vUQq3XNzDauHVa26kr339G5TGDp3bHxTJtJ9du5q+ecIJlM2+FfYRUJ4H5eu5kWF/pXTudhEBbN4JK5xMr6xb9wTr5tNxkhVYdAIoDiBizE899NhjN8ECvL9lG23ZxaEgEyBdo6U8o5kK2A/Qc2EBQxgsbMZefieJznqunl4IEKV3Eun7iHa0EK3dvo/WPp3K3YhZEGjy/+xk4IqL1+XGHM81sjmGYu9+8I/0DVZYAjtknmCQAnzvznvuoxO+9W1KYgcNFgDK/sUdvxb39qani3tQNkjx7e98V7IebAFwyOXqtTfSid87ibsGjYiqRDmgfKtN7CWYi3OOsrKF6f9o+w7azlb45dfXP8u6+felJgAcjE8/8Mhjt7/z0RZ6l63ApoRE2pWaSWl5WnE8jJYJoLM5VHCG3hsddnpiQyZd8r/D9GYxkWuQqHSMKJeJ8HsN0VV/8YiuBATAiaMh2BxT/54T9sWBbfbPDVwunOz1u0eeou+e9H3axf4Qdk7Hxtm/uf9hOpHvJXGI5kByjL93x29/T987+WTam5FJTp+UNb3ll3fS9085hWP6HHJw/+/le2tvuY27hdPYX8gnK3eLeJaOlQ8fCxtrZWu14mjbHaz4D9kKIyH3wt9ee55185k4qRtQBoQWnQDoXz5z/8MP//adDzdLBNiZSAmpGZTKBMjRmynfYhcnXUWCnvuxjYlmWvVaP/1BT5TYTJTfTfROJdHVWyfovn8EhB9RwILFfvk4MKEglsHl9LCyH3gink457Qxhkm04Q5lb9r1/fIpOPf0MdtTSycZm3F1YTL++/4/0gzPOYAJksWI5rufu4vbf3EuncX8Pk25FDiVYSDdz93HG2WcLAphdHqH8Ala+tI+wibLY2qYwibax4v/FVhgJuRdffRXHyR+7HAQ49r4H//DARibARrYCH+7cTTv3ZtCeXC1l6syUa3ZQvtXFcFK+zaWCU0Dn9NKfdzTThW+N000pE3RX9gRduXk/3bKxjzLMRaS1O0PfFcCJI1bpvVYmRayggMvkKiyhh555kU4/+xxK2JNKFla2i5V93+PPsRLPpaS0DLKwsl2s7LsffpLO5Ht7MrPFiWC496vfPURnnnMupTEBcEqIk32DW3/zOzpr1SqhaKPTzY3CJhpGPhMgjwmQwY0tibvdrdz9vr95q4gE/vLKX9ezbj4bJ/kByoDQoilfyQGAAJ/77f33PwwC/JMJ8MGO3bRtTzol5eRTGhMgy+SgXCaAgM2tgksgj+EoqaJdtj56fPcIPbBjlN7KHSJrcTPpXD7+P6f8Xec05FljCxqGPVhCDz/7Ip11wUXCEho9HLoFi+n+J/6Hzjr/IvaPssjAyrYHiuieR56ms/leSlYuGVwc9voL6c77/kjnXHAhpbJXjyPibL4g3XbPA3TuhRdRBhNA53CTxmQjjZGVb7RQts7I3W0+7eZnbWLFv8e+2GaOBJ574aUNrJsvLDYBjoibSgA4GF+4fs2Nd7717vv7//khO4Lbd9OWlHTalZ1PewpMlG7k+NfioiyrDEtkmFlw/poGCtQ1kbOsknLtHsq0OOXPnQLZCqyq97PCMQvCP4/w/2aAyw+Y5gDqabKTyVdMf3zuJTrv0ito+95Mynd4yegtpAee/B8675LLKSE9m/K5bkZvkO559Gk674eXUWJmjrCKRk9AdAvnXXwpJWfnCUIZ3X66/d4HadUll9He3HzK4y41i7vWLB2bflZ+ulZPe/i7O7nRfbhjF6Er/nDbTrrvoYfjWTdfUhFgUbqASAT4z+OPP/7yl15fX/UO+wDv8MM/YgLsyNJQUr6J9hjslGp0UqoJcMlwquCiNNzj7+xlIabKSOPPgHT+TMCM9wpcqvezwcH/55j6Gv4+AtKMatinIFUNw3Ro3YX0yF/+RhddeQ1t2ZvFxHVTvitADz77Al3045/RtrRsJhR3gU4/3fv4n+nCK35KO9NzKZOfq3H46K6HHqMLLv8J7crke0Zu6UyW27lbuPDyH1NitoYy9Fbam2+QoNFTSl4B7ebvbktJ5caXwF3ANnr73ff7Tj39dJwi+pUwAhw0CSJaAMbpHKv+/a133t//3tad9K/de2hrhoZ2aYyUpLNTksFJyXPCJZBinAEm9d9O1eviQyqPYyr0DkrS2yNDJyGxwEZZjgA99sobdMWam+mj1Bzaw7+XafPRH5gUl19/E21Oy6UU/q0Mq5fue/p5+tF1a2gL7umslMFk+Q1HEJdevZq2MSmStSZB5DseeIQuueoa2pGZR8n5Rtqdq6PEPEYuKz9bSzvSc2hz4l5hAf7FDfD2X9+1k3WyivHlpSSA4gTizPoTGddd8dOrdr28/u/9H2zfRdvY/CVw4RLzDJQEIrA1SGYkyUhWvaJSSYxkfE+j3JvE5Pfl78lQv1f+Dr8X6bPw9+p7AqIchmlIlKF+n5inn4JMbt0PPfcKrbriKvpg915K0Zopgy3J7zgywL0PE1MphZ+RwdbiNxwZrPrRT2hTUhrXXU/pegvdwT7AeZf9WHSjSazgdPajbmUf4ILLrxQyTYbS2bomykDrT+Cwe8vuZNrwz3fHbrz5Vh3r4lcM7BX4xTgpCvhEmO4WhQRKHgDbkmIpMlai/PK44z73j4svudS0es3a0mvXrK269oa1NdfesKbumhvWNFxzw9oG/lu8SlgzFdff0BgJ105933Q1sFp+VUH9HfX/XLP6+kb150D439esjvxsUa7V8ufqsq6O8MpYe9PNDRf+8EeNJ510UuPV117XeN2anzesvfHmhgsuupjvfb/xmmtXNyj3Vl14UeNJ3+d7193QwPKqF/cuuLDh5JNPabyWfwv31tx4k/jfM848s/G669c0XnfDmsarV1/fhDrJ5WKZrqm59PL/5/vi8cfvYB1gDOBHjO/IjVOdCFp0AiATiGQDTM3JjMsYtzEeY7zIWMfAhkXwSN+KgA2qV+BtGf8Iex+O/53hvRpvzxNvqV7V5VLj7zLeDIP63hszIPyz9bJcIuF1Ga8xXlXhNRnK99S/jd9DzP8UA6eF/CROav04Pew/4qaOBi6qI6iMBcDEfI7xdcYPGFiRcjUDTsgvGLercJuMWyNA+ez2CFB/Fv6d28L+P9Jv/yICbgl7H46bI+CmGXBjGH6uQvjfwFoZayK83iDj+givyveU371Jfo/PfirLHjqARf583GQSaFEJEBenmg0UJ1mBT8sP/BrjJMYZDKxOhSNyPuMCGefLWKV6H44LFoDzw373ggi/tyoCzlO9RsK5qtdwnKN6nQ1nz4GzVK/zxTmq56vL899xkuJPlHUAxxzjAEfHLeEmEQoBjpIfBBIg8wTHA+YHLDxBhW+qcMIs+FYYZvr8hLDXmb4fCd9cRHzjAPH1BeJr8qv6N5Tn4zN0w/8ZJ/lkivKXZ4+guEkSwOEAEeAXoP85Vi7QfPHZBSLS/yzkeUuBY1X1PnYJEf5MyFsZ/VvSlh9+hfsEYpKICkfPA8csA+ZTjkMViqwhe0Xxy6L88Cs8T7CC5cOihXkr18q1cn1cr/8DH55G3x8p6ksAAAAASUVORK5CYII=;fontColor=#006600;" vertex="1" parent="1">
                    <mxGeometry x="526" y="405" width="48" height="48" as="geometry"/>
                </mxCell>
                <mxCell id="27" value="Disk x4" style="shape=image;verticalLabelPosition=bottom;labelBackgroundColor=none;verticalAlign=top;aspect=fixed;imageAspect=0;image=data:image/png,iVBORw0KGgoAAAANSUhEUgAAAIAAAACACAYAAADDPmHLAAAACXBIWXMAAAsTAAALEwEAmpwYAAAgAElEQVR4nO19B5xkVZV+gwir64JhFXUNGBABCUsakoDwV0TCwIwEARFRQEkiQaJsS1RgBhxw/w5JmDw902Gmc6iurpxzdc4559w902fPd9971a+rq9NMd1fN0O/3+35V/aq63r3nfPfcc85NcXEr18q1jNcRK5gXDvkr2gI8XBHzV7QF9HFBTF7RFsrHETFzRVsQH2dE/TokChnFSy2Dw44AMVuwGL8ORLkxLetpBUpISDjaZHfdaXP5k+1un97p9etdvqDe7Q/qvcFCva+wSO8vKtEHi0r1wZJSfWFpGaNCX1Q2iZKKSn3pFFRJqFSjOoQy1ftJhH9f+o2SECrFa6l4VaFsOooEppaxiMtcGALXoQSQ6gSgjgJcXx/X2ysQ1HsChTq3kEeAX/06l8evczBYVjqby6Mz2916s8OdYbDaH03Waj87g5xjhgDKJQq0x2j8D5PNkeIrKqVgSQUVllVRSVUtldfUU2VdA1XVN1J1QxPVNrUI1DW3Un1LGzUAre3U2NZBTUB7JzV3dKnQTS2d4eiRMdt7Bv+v+P8O5f3kb4rX9q7Qa1PH5HsJnSE0KVDKyEB5G1slNLS0i3rUo06MuiaA69nYQjWNzaLeqD/kUFFbTxUsk7LqOipl+ZRU1lBxRTUVlVdRsLSCAsVljFKyOFzOtDzDt9UyjoDYubR682t+Vj63eAIJCrlCqGBlbQNV1zdRDZTPwpCU3yIJSyYABApBhwgBgYIUArKg28LROQtApC5q7ZIIMZVQkQHCtDJQjsbQsyU0KGhpn1S2AihcrXSBZqF4/F3f0hr6u6axaRoZymvqBBnQWECCQEk5uQOF3IjKSG+2ZWm12qNUYo5NAmRnZ39JZzK3CeUXlgpGV3Ll6rjSjSyA5rZ2amlvp9b2Dmrt6KS2zk5q7+qijq5u6u7tZYG2ksXpJrPDSXa3l+weBT5yAF4F/mlw+gLkkOFUweLyCEE2trZR78Ag9fQPUHdf/zTgPj5HOb2FRWTj5+NZLn9AhaAMfu+T4PT5Q1CXB2UGrC43GWx24i5C1LWV69za0SHkAHk0tzHxuWx4bj03iDomSTUTo5zJwN0OeYNcFpdnv0avPy+CyGOMAPmGVdxvkYeFxH0kVdXWUQNXqIUr2t7ZRZ3d3dTV3UPdPT1C4T29fdTb308Dg4NUW99AWoOJAkXF1MWf476CvoGByIDS+qf+Pfn5oEAnP4/7dTLZnVRcXiHuDY+M0uDwMA0ODYvX4ZERcb+4vJKMNgeV8PdAzp7efvH7UyGVqadPRq/qfV+fqBPQLdAr6oK66cxW8gSC4m98D6+QBWTSyQ2gg8nRzs9sY3I0MyHqm5q48dQJ4gSKS8hgtt41g9hjhwC5+fqr0VL9hcVUxn1aHZs6KB+VgzB6+ySFQ1H9rKTBoSEaHByikrJyKjCaqaaunkZYGcPTMCowMjoXxlSv0vvRsTEaGx9ngfdyayoUrbq2oZHLAuINCcXhb1gads6EUkbHxsX/RXrGsPI6Eg6prEPAsIJhgWF+DyXb2Bpwny4aA+reBzL19Qu59KgIA3nBMkB+7NwKAlvtzidnEHvsEECjN90JIbI3TFXcpzWySQOrUTFUFkpHa4fSoeg+rriLFWJmE9nOzB+D0Pk+MArlyRhRKQOKORCABPh/tC6lVcEiBErYTykrY6K2hb43799Vyjg2nSRqUgC4P8h1D/Jz9WYL1bNyh0aGhTwgl35hwSTr0s1khQVqamlhOdZSRXUN2ZzuddHW75wXt+LH4bkWs/mvYecGQoWJQ6X6oXhm/TC3CAitpbWVDBYredksDnDlx6YIdEz8PQWsmMXAvn37aJyhVti4fG8hvyMIgNfZCKMisRpSl2BhOZULmcBKgAgSGQaFvCA3yK+Gv1vJjcnh8W6Otn7nvPRm66to/RxXC7PayuYfJrVP7ueHhTkcplJueQXc31cxs8NbOzBN+YxxFrQai0WIRYNiacIQXjfUF/c72cxbnS52dj0so25hJUAGyAk+DOQGZxndQDU70m5fICva+p3zYkfnoyJmNfotODFwaGD+Yd5QcVQUfSA7NNTGXnAkAc1H+bGMSOWPRAK8Dg5Mdgk19fXCEoAEsAKQWztHSvWICpgAHn/AHh8ff6RK3LHT9ysXRwAZggBV1cL7bxeedJ/o++oaGiifW72XfYT+fpj80Yj9/ceFAEq98drArVzP3aGPw0/hD7C8IDc4iw3sR1UJAgTLN2Vn/3uYyGOHBGCn0eqwggDlbNobZAcQ5h9kyMzLF96+WgCRCHAokyBSuWcjgIh4ZJ8IXUKezsAkKKQBtgKTBGgV4TQ3nLYMvf6LYWKPHQJs3Ljx00arvbSwFASonSQAMxrxLwgAT1+pNLBQEsQqGWYr61zKVzDESrc4nFRgskjhMoeHCAeRHEM+wBcsHNCazd+VxX1E2Gv0r6SkvC+Y7Y4WOIEVcgjYwQyGBUDFcgv0IgGkrvSBWIKIGJ90xpZEwULJiqJnV3hI8QtUPoDsp0ZvEDkLyA0Z0saWNiFPf1HxPqPNdo4s7tgjQFpe3rfNDlc/LEBlTT3HsK2Cwch6IdxD/4+4fyEEkDAPQYfH/FFGROVH6PrUsgCQQUVDEQ2HLWdnVw81tbaLdDpCRqvD8WNZ3LFHgCyN/iyrwz0OC4ACgwAi9cutPt9gZCfHJuL98ErPjwQLsAZRR+Tyh9cznAAjjEBxMWVptCL+RySgEKCqtoEjqyoyO523yuIOn2QS/StHb77C6fFLWUAVAWAFsvILyGx3hkzdXCSYjQixQoz5lm8uxStdwMjIsGjl6bka4TT3y+MYza0dVF2HZFAt2Z2eP8jijqnRQFGAPK3+FiUNXC0TAMkMjAWk52hE/6bu74bChDATERZChljCTHWJpHxBAH5fXllNadl5rPD6aQRAo3J4fC+qZB4zBBCXRm960FdYLBGAK9Dc2irMP6KBPVk5Iv6fQoAFkiDWyTBXucPrGS4L/F1dV0d7s3JFJhUZwU7RgDrE8DAI4PT43pHFHTuKV64Co/n5YHEpFbETiHEADLogm4VcdnJ6liAGBBFe6YUSINaIMN/yzkUAdAEw/XsycyhQVCJyAV3dvUyATqppaBS5ALfPnyKLO7aUj0trNP8zoBCgXiJADxOgoqpaEACv0yzALERYCBliFTPVK5Ichhlw/lK5C8BEEwxVS+MBnVTbIM0NcHkDhrhYVD4undmShCFWZAJBAFQGBEDLR6Uw/ImKIy0ciQSzEeFQIMV8yj5TA1BkgjkDmRp2mB0ukQ5GPkAhQEV1LcYDAhkZGcdEW9cRL53ZqvMXFYuZQMICyATAJIzsAgNXpD1UWQUzEWG+ZDhUMFMd1bIAkCfBzCG9xS4SQd0KARqbRXqdCdCQ63QeF21dT7s2bNhwjN5s9WMwo1gmACxAt5iFUyTm+WFoOLzC8yHCoUiGueoTSfkAxgPcmMfI8kICDT4U5k5iniBGWL2BYLdOZ/96tPU97UpISDjOYLXX+VjZJeWTcwFAABQcSQyEhchxL0TxhyoBDoQEGAXEDCDICt2mmF/IwMwgTBYtq6pBJDVqNjtPi7a+p12JGRlfM1qdXQj1QgRgk69MfMS4AJzCtvYOkQ08ECtwOCFy6+8WM4PrGhvFoBkIgS4UA2oNMgEwYdZoc/0w2vqedqVlZ//AYHOMeAQBqqhORQClLxMzXdkR7OKKztQVHK5kmKu+6PshHwCZ0wF5ZrOaAOVMADjYNo/n+mjre9qVq9VejGnXGMworQABmkIEgNlHhfA3Jjc2s5lDpWeyBIcqOQ6kLooMMFMKVhNZU0yWGZAniKILwMBQI8usggmABJHd47872vqeduXm61djIUVEAmA+IFcIZg3TnzAzSKm8GgciwEMRkerdwY4e+v5Wdpxxr19Mne8XFgAWAV0owsDyqmosEnlGFnvs5AM0WuNvnd4AE6CQCVAtJjJiQmO3ygKg/3d5/VRdWxdREIc7EWarL+ZHIoSGExhOAEQGcKAVAjg9njdlsccOAfL15qew/AohH5wVTGTEhMZu2QdAJVE5k91BdfVTLUC0FRNtQggLwP081kfU1E02DjiBaDzoHuAbYIi9TBDAt00WewwRwGherxAAzkqDQgB5QQj6yPKqKtJbbYLtKxZgKqBot88vukjl3iQBegQBMBiEkNrl8eXKYo8dAmj1pi3uQJB8YQSACYM5AzAczOwV72cTxkIQy0pdaD2wVsLCjnSnEgX0S0vG4EfBOcQIK/wrthTO+Pj4o+bWyjJebAGy3X6sCC4Wnr4yJVxZE9DY3CymhFXX1AprsFiCO1wAAsAB1Jut7O1Xib/7FQJwF9AqCNAgFq06vb7KhATtZ6Kt89AFNmqNZjtGsPyFJYIA6jWBIACiAwOb/x5ms9JysChCtKSBxW9RhxIUCwl4/AEys58EOfWrLAAIgPQ60uwub6DdZDJ9Kdp6D13/SEj4TIHZWu5kDz9QVCoWhSoTQmHGEA5q9CZh4pAijbbZXhYMSFgIEYb4/xqbmkijM3CkJFlKJIPQiLDCCsk1ZFndvsCgwWD7XrT1HrqSkrAphKUNy8KxrUloPmBXt6gAJjewhaAuJsSBJkwOtp+Olb5+ti5AeY7N6RJWoF/eF6FHXiKG0BoE8AYK99vtnnOjrffQlZqTcyJbgAEQICjPBxTTweQJoQVGi5gOFg3lRwORlDrf/4WFxILZ7Hwt+1FNYlqYkg5GaF3KBECD4g73p9HWe+jKzMw7V2e27QMBJucDSnMBMJM1W6sX5mt4ODYIECl1OzQ0KExwLJSts7NLdAOYR4GFoko6uKGpRYSB2NvA6nD/Mtp6D105Gt1PmJFiD5+iUswFkIaCUXA4hlqTVVgDIfjB6GFYVjxm2bRjm5p+Nq8D/HffAHX29IqlWKHcftTKKREBO4lwtyptocNyVEYKy8V4QBU2i3gk2noPXXk63W1WxPjsBBbLQ8FwWpDd4q5B3J+pFS4XYFqRlcRWKx4OVUtZkC0dXdTJAm7m/hU7dBWyh42yw2TPdzx/KQaS8Gw4zOgGkD3tG5A2i8BGUkgHwwrY3d5Xoq330JWrNz6MXbHQ2kswEMTOiuK05LApwyAHZrwuxDwvJjDfHoQ0WB2Uz84o5i0i5u6XU9SIVNBlYTYTMpViiTbfWwoSzMsP4O81cRgNAiDu7x8cEAQQ6WBsJccEcLi978vij342MF9vesnpCwoCwDxhzB99Flpbjs4ocgIgwGIMnx5In4o8BFbcYsUNNqESzx+WNmJQAGWj5ReVlVFadq6YeBGtkFV0U6xwJM6cXl9ot5BmrBEUBKgip8ebKos/+gTQ6k3vQvkYCQQ7sdkB0plwYjQcAeA9WiGYrcYUQgwOLgnwXAw/70jeQ8XsPI2Njoa2YRGbVSkkkAWP2b0mtgJ7M7OkbVuWsGwzYkjKlGIpndFml+YGyulghNhoWC6v30QUfeWLAnCMnwICeAPSOIBYFs5OC/wCPZtdmNiFzpFfLGDhhr+oiBKYAIhKwlt+OFDO2vp62pKwW4Rh4QtZlguQCWSKLgvmH2XH8Hp1nZQMcnn8RVqt9t+iTQBcR2qNFgN8AIwEwkmR0sBdZHK4BRSnarEmUi6UABhh25GUImXbhoenQ+0vsMIbOd7etH2nmLkUTQJgr0WNwSxyAIgEMDsYEZacDm7Kysr6fLSVj3GAT2uN1qDd7RMDQZVyGhiFNticwgoonu1SzKqdC+gC2rnlfLhtuxiIwkYPEUkgA1vFWewOSkpNlYm7/MpXCIB4HwTAlrKYVYXZwVggUiQI4O/VWiwnRFv/ce+9l/B5DvUaMNSLDaLRR7Vg9i+zVcfm3+bxh1qWwPD8ECLC0MED/b7N4aRtbNYxOXV8/wSNjI3T8OiYtJkj1vfx3+P791MtO4kfbdtBVdXVwnosxvMPBJABFJ1ntArvH44srCr2XIYFcPv8YyaT/cxo6z9ue3LmCTqrvduupIFZgBj8QRiotznI5PSIwqvX0y/FcqvZoPyWwWyhzTt2Cs+6tbuX+kf30eD4BPWNjIldyrFV27aEXVRcUiopP8rrCnzcdWnMNhH/Y5kY/Kr6phZBAB872BaH47Jo6l44gKlZWWforfZRdAGFJdKaQDgrcFzQ/8MKwJuOtKHCchFAYETaiQstPJfj6+TUNMrIyaMcbQGHfTm0Jz2DjBaLvHdhdJWv+B0Of5C03I3C9CMXAAJgxzAk27AK2+pw/1yti6gQICMn/1Ijhyt2kQYulxeEdAiv1e5lL5YZjC1hZ9tRYzmJgO4AZcE8fCSDmpqbxWxl+CmijItJugMEZNLX109mblQGtqDKnApsF9PIBECyDTuJ2N3u30edAFn5+rVWl5QGRniCPgoOIArsZ5bmshODWcDz3UDxYNbfLwTKbx9o17SUQJmQudTZXWT1BqT9gwellcLYLwi5FrE+wO19LuoEyNMZ71UOa8B0cPRRcFZQaKxmzdWbmAglB73fTrSVsixQkRLTv/K5+/RyI8IewiCAWF3FvgpyLUgGOTzet6NOAI3B9KwTJ2j4glIWsElKAqHAcF40BguZnW5hYhe6oeLHiQTqeqIbgPXUWOxUzqEriIEGhQMosF0Mci0ggNPjS4g6AfKNlg04QsWNNDCygPLOYNKU5n5pAIZJgAki+znMihUSxArRwp8NGSDta+awWsuygz+F74mDLZgA2CtA7BlYjlyATxMtAoQ2KNIaLTtAACkLWCdaPSYxgrEjHGPjfk6BQZx+hX36xV79i7Tl6uGA8DqOj42L/ZUKWPkWJoHYYp8JgGNtevsG2DfoEulgkQvw+jzx8fFHL7fypxBAZ7blOf0B8mI6OLKAbdLGUCg4dsvElvG5Or3YJBLpTFiBgyHB4UKESPVC3TEegQU2GpNVhHu4HyJAPxOgs5tD7SYRBXh8weqMjIxjVTpZVgLEXXXVVcfozFYX1gT6ikrE8WfN7dL5ANjhaliYrkEyWu1i+1N4rgoB5rIGi7lRY6xgrvqg3hhH0bG8tCabSKbh/xQC4Jyldg4FaxuaxTJxtz/QkZNj/GrUCLBhw4Zj9WZ7pcMjTQeH59qCHAAWg8oEQMXKMC9AW0AGtgKIbyfCSLCPK65GiAjCJE5HRAFCwPOB+rsH+hsLeVYkRc8A9PVYXYX8v5ud6lGVr4ADqLBxZAcToK5RygZ6fIEhvd56StQIkJiY+BW91d4OAgSRBWxoEn0UBi4wsDIiCwGza/QmC+WxFSgqLRNWINwShONgt2iPNcxVl/1cZ0ykwRS6fAwAsS+F+6FDqEQoOMQOdh/VN7eJ7sEXLJow2WwXRI0ASWlpJxus9kExG7i0Quxk1dY5lQAwYWjV5bIVKDCZxTJxXHMRYTH26o9VhauBuiJqsrk8lK83iVVUSrcxSYBRad9AjgQaW9pFNhDpYJvLdU3UCJCRqz3fZHdOYIPo4vIqkQSCieofkDxXZdt2mDfktrHYIbdAJw5JAkEmJiZCJFBjNsuwUHLEAuZTF/TpmLaGLeIwgwqNZmx0cvt7nIEIPwAnnDa1dYqQu4S7AavDfZdaJ8tKgByd7mc2MRsYk0GrxUAF9rYFUxXzr/TZMHEYE8jniCBfb5S6Ar4HEkxEIAE+C0dEAYb5DzGDWRSurtPE/glh+nHaKlZPYQMI3A/3eXBmAvwAHG+LA63LxWYRNcTd75+iRoA8nfFXSAEjD1CGmUAt7SJfPYDxbBQ8QkvAmUEaJgFOCcXUK1yCBDNYgwO1ELGGSPWgCRLz/XG2cIHZAq9e6jLDLJx0RuE4DXE3gLONWzu6xanjIIDT63tdpZNlI4GUBDJZH0XMiiwgGNnU2iHSlYOzEADJIZfXK1a+IDzEZIfDlQSzlR/ax1xJl88vVk1bnC4pTxKhe1MIAD+gj60rTkLHSeywFi5fYNNyEyD0IPZYX/UEiwhAerKZ+6aevgFhqkYjECDk8LAZw7QrmDycJYQJJAdCglgkwnzKjDoipsf6A/hF2F0NMlBS5TMSgLsBEKCNCVBV1yi2i/H4CzOiRgCdxf6hJ1BE3sISLhByAF2ij4KpEsqfRUjd7Cug8nB6wH4shIBg1ESIhIWQI5aglB8Xcvp+Vr5VPkgayZ+ZyDwuWwRx7jFCarau7RwKVjc0izUYHl/Qds8993xSpZvlI4DR6shA6/cXl3GBmjgE7JGOZh+dJMBMJIAw4O2a2QIoJhAnZ6KyhwsJ1GVW6oQFM1C+w+MVYR92UpmWGAsngCDBPjFvcQCnkPf0UQ2H3PJS8bKNGzcep9LN8hBg/fr1nzI7XFYM9gRLK0R2qqO7V0QA8FhnUnw4CTDyhbDQZLOT1elmVleIfPhcJIhVIkQqJy40COz2ia3g4OxhAg38H3w+n64FBMAh1YNsXbt6+6lWzgZ6g4WtqRrNfy03AeIyMjK+aHV6SrE1LHIADS1tIkkxyAyVTuhmVu+XMJvAcCEJgv0DYA5BBizLQh5c+XwuIsQqSAbGQ3DaB0ZE0WAwfR7evzoZNhMUGUKeY0yEIbau3exn1XPIjSl4vmBhv9kZ2jx6+Qig0+m+ZXN7W1EhrLTFTBWMVsH8j8/TGVKTAOEP1rzZPR6xXx4IUVVXJ8YUlCvaCp234uUL8Tumx8NZQ6IHi1JLK6WzgOaj/HCMMwmQEOrpHxSnieJ8RnYk9zk8nsuWnQB6i+Us7sf6ffIwcGtHl+j/R4T5lwsNM70AoeEVi0qwphBHzUpnD5QLU4nE0sFcCynDwV4w2ZgMgz3+ER6XVlZTcUWl6ALm4+NM6eYmJqZYAziCyAUg6YbNOLDqye0LrlXpZslJIB5gc7kut7u9+0AAhCRIASMBhHBln6z8A209mE6GGBe/HSwpJeks4hppdsxBEmEpLyge4R0mbuKQJ5z0hfAY7zE+olwHIpf9+ycmCdAvEUDIhuH2BdSzg5eUAKEHWB3utWilGAbGIBD6fyQqxMjWDM7QQkiA32jnKEGYz/IKbkFVoiVViYUnHcJRVLqPaF4o76hQygC1sLmHL4T+ua6pRbx2spOLLlH57oECDQoEwLMw1oKpd9IJbWXsVPr/vJwEOBJvHC7vPX7RQssEG8FwtM6DVX44EeBQgghV9Q1igmQFt6hKJgFaV6M4lq5Pfu7Bm+55K50BrxyDMwjJsNNIU3unmAzTxAARMGgDH+BgFT8V+8VzMSyMqXcKAbyBwN9l/Ry5bARwur1PYvEiQpFm7HGPhRVo/YtWWZkEKiLAytRzC6vm1oU4uJb71NqmVnEPSoDQpShk36L05SGF809J5ndcJGI6+TmtXb3U0tlNLdz1ITXb1t1DHVw+ZOpEPy+XfTFlAcCawPphrwDhA5SUYPh4K6vkE8tKALvL8xqUX8qeOzxd5P/HFyD4AyUCwiH4Gu3c8ppY6Q3c8hplKO+bWTHt3b3UxYrqGxwWmUkob0wkVfaHfJQpkPtYfA4CDYvh1xGh0C7uczs49m7jZypo7+kX97rY9PdiAyr+/r5Ql7RE1mhCyhlgaB2pY7T+QFERoqYsTM+TSbBsBPgX9q/BtrCIaYdZWPvkvu7A6zf/rgHCgKKQGevmPrFdVlCrgu5JKEqDwjo4hsauYFBqtwy87wT4Pj7H99rFd6Xvd/YPiM+7Bob4WUPUw6TCc4fliGcxrc1cFxoA5lJg5VCxlAfA7GBbfHz8sXGTVmBJCSAYZnd79oAASHAgm4d5a0vtlEUkgiIYbsGj40iUsJM0PEq9QyPUw5aiezAShmTw+4Hpn0PBPfz/fQD/1gBbEPyuYkWW098Ik4BoZFg4gkRZSXm52FvY6fWVbNq0CXsHHxW3xN2AsACnnnrq0Q6Xx4AYvVohgBjHXt7WMNuFYsC0Y83/GJcL5BiRMTwGjIeB78mfj7KQx0RXIecxol0Z+ZqYUAgwIrbgw1ZyLo+XnG5PU0JCwjeWiwBHPPHEE8fZnO6iQnZAatgrVyyAkt9fuZbmEuEgExoWQCGAw+0mu9PVwwTA7OAldwSFBXjq5Ze/YHU4q5Czx7Yr2MJsWEWAFRIszTVpASYJYMeQstPZvzUh4UxZ+UtvAZgAXzTa7LW+YJAqq6vFsC4KNb5CgCW9IhEAO4ubbLbBzZs3n7VsBGCP80t6s6Xe4wtQOYeBKMyQCAMns4Ar1+JfCgGGQgQoJyvmU1isQ++///45cZNR2tJ2AY/Hx38532BsdLi9goVtcmp2hQBLewkC7JfCQOxqUlJWRmabnQqMppH//95758n6UXIBi04C5UePePqll76SV6BrNtscYjQK070H5EzgxAoBluwSmcBxaQEptreBE2602ogb4+jf33nnwuUgAH78E8888+LXM3M1rVjlgwEhzGvHjFaM6e+X5wKsXIt3hQaEENKKwaABsZmlP1hIOpOJcgsKxv+xcePFcZL5X1ICCCeDfYAT9mZktiurfHAoBE4GATOVZVFiKtP+FSwK5GlhyiaX2HUNB0y6fD7K1+spMy9v/xtvvXXZshHg2Wdf+E7S3tSOjNw8OCBiR0tMbsSqIOxsDSIoO29Ge8etwwFDw9I+xtgqTuwT1NIq5k5aOQLIyddSRk7uxLq3375CVv6yEOCkhJSUrpSMLLH5A1YHYX8gnGmDbU2xSxhCwxUsDjq6OoVMsYchDpCoqq0VM4sNFgtl5OZSWlYW/fXNN6+MkzKBRy01AY549oUXTt6+O6kncW8aZeRpCPsE+oqKxMggxgZqG+qprrGBfYMVHCwUOdaxTGH2K2tqqJi9f6fXy+bfQKmZmbSX8fK6dT9TEWBJQsEQAeLjX/rBloRdvQkpe2lvVg5p2Rm0e7xiyjMOXCipwDBxBVuFFSwmSssx/6KUkICzOOyUq82nlPR0scvpa+s3XLtcBDjy6fj4MzfvTOjHFuzJ6ZmiGzA5nOTy+8VEzkBxMYeHxVS4gkUGy7awUKytNFjMlJWXR8mpqYIEr7/xxhrWzSdlLN4Uru0AAA2SSURBVC0B/vz882d/tGPnIHcDlJSWTtnaAnHWDiICLHrwBoOCpb5gYAWLDA83MrvbxeGfkfv/HErcs5eS09Lo1TffvHnZCPBM/Ivnfbht+/C23YmUmJpGmeyJFnA0gLVuTg5N3FxIT4ALG/CvYJHh8nnZ+8fei3pKz86mXSl7hA7+um7d7aybo2UsKQE+wQS48F/bdozgWJXde1PZEcxnP8Ai1vnBF0B86o4AVxgifWcFs8Pp8ZDZbieNXscOYBYlJKdQIuvg1TfeuJN1c8xyEOCoZ+LjL/lgy7axzQm7aBeboPTcPNIYTRwNOMjmdpPDi11DPB8veJbhHgPm32i1Uh53u3syMmhHYpLQwV/XvXn3chAASYajnoyPv/yDLVv3bdqRQDvZBKXm5FIehyR6q12s8rW5UVD3nHB4uMtgOObx3VgGnDKYZ9Rn1nu++d7zTbsn4HKx+XeSzmymnHyOANj/2r57NyWwDv72+vr7WDf/ttQEQIjxySeefu7K9zdv2f/R9p3iMCaEgjkcCegsNtENwBewcWFnAtjtDfjI4nKSkfszt9/L5s076//EKhCPWxwO4ZG7hYPmFvew90FWniZ0D4o222yUrVHf82Esn3I0+bJzJ91DC8ehFiCB+llQvpmfVcDWNpt/O4n7/q3cDaMb+Nu6dQ/JBFiy2cEhAjzy1FPXvLtpC7EfQNsSkyklI5uyC3SkZUfQyP2T2eESK32x+0c4HGwdctha3PviFrrkwV108UPJdP2fttIHu9MEMWBBIv1fLAKpWIyGPvrks/SdE79HGeyUIQrCvQcf+RN97/snU44ggXTvdw88RCefcipp2Hxjaxjcu+ve39Opp51OBSwT3MMsqzt+/Vs648z/JgO3dKfHG3oeSIVzBLHJVmauhvv+vbRl5y7aCQK8vv5R1s2nlpIAR8oEOObRp566/r1NrLSt22krh4LIBSASyGdHUM8FRGbQKG99Ygq9OoVyc7miV/5hO53/fB09bpyg5z1EN27qo9PuzqZ/btsjfAjl+9L/xi5A9MLSUvrV3b+nLx3/ZdrBPpHYL6GklG694y76yle+SruTkwlL6LGA4+e33Epf/a+vUQq3XNzDauHVa26kr339G5TGDp3bHxTJtJ9du5q+ecIJlM2+FfYRUJ4H5eu5kWF/pXTudhEBbN4JK5xMr6xb9wTr5tNxkhVYdAIoDiBizE899NhjN8ECvL9lG23ZxaEgEyBdo6U8o5kK2A/Qc2EBQxgsbMZefieJznqunl4IEKV3Eun7iHa0EK3dvo/WPp3K3YhZEGjy/+xk4IqL1+XGHM81sjmGYu9+8I/0DVZYAjtknmCQAnzvznvuoxO+9W1KYgcNFgDK/sUdvxb39qani3tQNkjx7e98V7IebAFwyOXqtTfSid87ibsGjYiqRDmgfKtN7CWYi3OOsrKF6f9o+w7azlb45dfXP8u6+felJgAcjE8/8Mhjt7/z0RZ6l63ApoRE2pWaSWl5WnE8jJYJoLM5VHCG3hsddnpiQyZd8r/D9GYxkWuQqHSMKJeJ8HsN0VV/8YiuBATAiaMh2BxT/54T9sWBbfbPDVwunOz1u0eeou+e9H3axf4Qdk7Hxtm/uf9hOpHvJXGI5kByjL93x29/T987+WTam5FJTp+UNb3ll3fS9085hWP6HHJw/+/le2tvuY27hdPYX8gnK3eLeJaOlQ8fCxtrZWu14mjbHaz4D9kKIyH3wt9ee55185k4qRtQBoQWnQDoXz5z/8MP//adDzdLBNiZSAmpGZTKBMjRmynfYhcnXUWCnvuxjYlmWvVaP/1BT5TYTJTfTfROJdHVWyfovn8EhB9RwILFfvk4MKEglsHl9LCyH3gink457Qxhkm04Q5lb9r1/fIpOPf0MdtTSycZm3F1YTL++/4/0gzPOYAJksWI5rufu4vbf3EuncX8Pk25FDiVYSDdz93HG2WcLAphdHqH8Ala+tI+wibLY2qYwibax4v/FVhgJuRdffRXHyR+7HAQ49r4H//DARibARrYCH+7cTTv3ZtCeXC1l6syUa3ZQvtXFcFK+zaWCU0Dn9NKfdzTThW+N000pE3RX9gRduXk/3bKxjzLMRaS1O0PfFcCJI1bpvVYmRayggMvkKiyhh555kU4/+xxK2JNKFla2i5V93+PPsRLPpaS0DLKwsl2s7LsffpLO5Ht7MrPFiWC496vfPURnnnMupTEBcEqIk32DW3/zOzpr1SqhaKPTzY3CJhpGPhMgjwmQwY0tibvdrdz9vr95q4gE/vLKX9ezbj4bJ/kByoDQoilfyQGAAJ/77f33PwwC/JMJ8MGO3bRtTzol5eRTGhMgy+SgXCaAgM2tgksgj+EoqaJdtj56fPcIPbBjlN7KHSJrcTPpXD7+P6f8Xec05FljCxqGPVhCDz/7Ip11wUXCEho9HLoFi+n+J/6Hzjr/IvaPssjAyrYHiuieR56ms/leSlYuGVwc9voL6c77/kjnXHAhpbJXjyPibL4g3XbPA3TuhRdRBhNA53CTxmQjjZGVb7RQts7I3W0+7eZnbWLFv8e+2GaOBJ574aUNrJsvLDYBjoibSgA4GF+4fs2Nd7717vv7//khO4Lbd9OWlHTalZ1PewpMlG7k+NfioiyrDEtkmFlw/poGCtQ1kbOsknLtHsq0OOXPnQLZCqyq97PCMQvCP4/w/2aAyw+Y5gDqabKTyVdMf3zuJTrv0ito+95Mynd4yegtpAee/B8675LLKSE9m/K5bkZvkO559Gk674eXUWJmjrCKRk9AdAvnXXwpJWfnCUIZ3X66/d4HadUll9He3HzK4y41i7vWLB2bflZ+ulZPe/i7O7nRfbhjF6Er/nDbTrrvoYfjWTdfUhFgUbqASAT4z+OPP/7yl15fX/UO+wDv8MM/YgLsyNJQUr6J9hjslGp0UqoJcMlwquCiNNzj7+xlIabKSOPPgHT+TMCM9wpcqvezwcH/55j6Gv4+AtKMatinIFUNw3Ro3YX0yF/+RhddeQ1t2ZvFxHVTvitADz77Al3045/RtrRsJhR3gU4/3fv4n+nCK35KO9NzKZOfq3H46K6HHqMLLv8J7crke0Zu6UyW27lbuPDyH1NitoYy9Fbam2+QoNFTSl4B7ebvbktJ5caXwF3ANnr73ff7Tj39dJwi+pUwAhw0CSJaAMbpHKv+/a133t//3tad9K/de2hrhoZ2aYyUpLNTksFJyXPCJZBinAEm9d9O1eviQyqPYyr0DkrS2yNDJyGxwEZZjgA99sobdMWam+mj1Bzaw7+XafPRH5gUl19/E21Oy6UU/q0Mq5fue/p5+tF1a2gL7umslMFk+Q1HEJdevZq2MSmStSZB5DseeIQuueoa2pGZR8n5Rtqdq6PEPEYuKz9bSzvSc2hz4l5hAf7FDfD2X9+1k3WyivHlpSSA4gTizPoTGddd8dOrdr28/u/9H2zfRdvY/CVw4RLzDJQEIrA1SGYkyUhWvaJSSYxkfE+j3JvE5Pfl78lQv1f+Dr8X6bPw9+p7AqIchmlIlKF+n5inn4JMbt0PPfcKrbriKvpg915K0Zopgy3J7zgywL0PE1MphZ+RwdbiNxwZrPrRT2hTUhrXXU/pegvdwT7AeZf9WHSjSazgdPajbmUf4ILLrxQyTYbS2bomykDrT+Cwe8vuZNrwz3fHbrz5Vh3r4lcM7BX4xTgpCvhEmO4WhQRKHgDbkmIpMlai/PK44z73j4svudS0es3a0mvXrK269oa1NdfesKbumhvWNFxzw9oG/lu8SlgzFdff0BgJ105933Q1sFp+VUH9HfX/XLP6+kb150D439esjvxsUa7V8ufqsq6O8MpYe9PNDRf+8EeNJ510UuPV117XeN2anzesvfHmhgsuupjvfb/xmmtXNyj3Vl14UeNJ3+d7193QwPKqF/cuuLDh5JNPabyWfwv31tx4k/jfM848s/G669c0XnfDmsarV1/fhDrJ5WKZrqm59PL/5/vi8cfvYB1gDOBHjO/IjVOdCFp0AiATiGQDTM3JjMsYtzEeY7zIWMfAhkXwSN+KgA2qV+BtGf8Iex+O/53hvRpvzxNvqV7V5VLj7zLeDIP63hszIPyz9bJcIuF1Ga8xXlXhNRnK99S/jd9DzP8UA6eF/CROav04Pew/4qaOBi6qI6iMBcDEfI7xdcYPGFiRcjUDTsgvGLercJuMWyNA+ez2CFB/Fv6d28L+P9Jv/yICbgl7H46bI+CmGXBjGH6uQvjfwFoZayK83iDj+givyveU371Jfo/PfirLHjqARf583GQSaFEJEBenmg0UJ1mBT8sP/BrjJMYZDKxOhSNyPuMCGefLWKV6H44LFoDzw373ggi/tyoCzlO9RsK5qtdwnKN6nQ1nz4GzVK/zxTmq56vL899xkuJPlHUAxxzjAEfHLeEmEQoBjpIfBBIg8wTHA+YHLDxBhW+qcMIs+FYYZvr8hLDXmb4fCd9cRHzjAPH1BeJr8qv6N5Tn4zN0w/8ZJ/lkivKXZ4+guEkSwOEAEeAXoP85Vi7QfPHZBSLS/yzkeUuBY1X1PnYJEf5MyFsZ/VvSlh9+hfsEYpKICkfPA8csA+ZTjkMViqwhe0Xxy6L88Cs8T7CC5cOihXkr18q1cn1cr/8DH55G3x8p6ksAAAAASUVORK5CYII=;fontColor=#006600;" vertex="1" parent="1">
                    <mxGeometry x="646" y="405" width="48" height="48" as="geometry"/>
                </mxCell>
                <mxCell id="28" value="Disk x4" style="shape=image;verticalLabelPosition=bottom;labelBackgroundColor=none;verticalAlign=top;aspect=fixed;imageAspect=0;image=data:image/png,iVBORw0KGgoAAAANSUhEUgAAAIAAAACACAYAAADDPmHLAAAACXBIWXMAAAsTAAALEwEAmpwYAAAgAElEQVR4nO19B5xkVZV+gwir64JhFXUNGBABCUsakoDwV0TCwIwEARFRQEkiQaJsS1RgBhxw/w5JmDw902Gmc6iurpxzdc4559w902fPd9971a+rq9NMd1fN0O/3+35V/aq63r3nfPfcc85NcXEr18q1jNcRK5gXDvkr2gI8XBHzV7QF9HFBTF7RFsrHETFzRVsQH2dE/TokChnFSy2Dw44AMVuwGL8ORLkxLetpBUpISDjaZHfdaXP5k+1un97p9etdvqDe7Q/qvcFCva+wSO8vKtEHi0r1wZJSfWFpGaNCX1Q2iZKKSn3pFFRJqFSjOoQy1ftJhH9f+o2SECrFa6l4VaFsOooEppaxiMtcGALXoQSQ6gSgjgJcXx/X2ysQ1HsChTq3kEeAX/06l8evczBYVjqby6Mz2916s8OdYbDaH03Waj87g5xjhgDKJQq0x2j8D5PNkeIrKqVgSQUVllVRSVUtldfUU2VdA1XVN1J1QxPVNrUI1DW3Un1LGzUAre3U2NZBTUB7JzV3dKnQTS2d4eiRMdt7Bv+v+P8O5f3kb4rX9q7Qa1PH5HsJnSE0KVDKyEB5G1slNLS0i3rUo06MuiaA69nYQjWNzaLeqD/kUFFbTxUsk7LqOipl+ZRU1lBxRTUVlVdRsLSCAsVljFKyOFzOtDzDt9UyjoDYubR682t+Vj63eAIJCrlCqGBlbQNV1zdRDZTPwpCU3yIJSyYABApBhwgBgYIUArKg28LROQtApC5q7ZIIMZVQkQHCtDJQjsbQsyU0KGhpn1S2AihcrXSBZqF4/F3f0hr6u6axaRoZymvqBBnQWECCQEk5uQOF3IjKSG+2ZWm12qNUYo5NAmRnZ39JZzK3CeUXlgpGV3Ll6rjSjSyA5rZ2amlvp9b2Dmrt6KS2zk5q7+qijq5u6u7tZYG2ksXpJrPDSXa3l+weBT5yAF4F/mlw+gLkkOFUweLyCEE2trZR78Ag9fQPUHdf/zTgPj5HOb2FRWTj5+NZLn9AhaAMfu+T4PT5Q1CXB2UGrC43GWx24i5C1LWV69za0SHkAHk0tzHxuWx4bj03iDomSTUTo5zJwN0OeYNcFpdnv0avPy+CyGOMAPmGVdxvkYeFxH0kVdXWUQNXqIUr2t7ZRZ3d3dTV3UPdPT1C4T29fdTb308Dg4NUW99AWoOJAkXF1MWf476CvoGByIDS+qf+Pfn5oEAnP4/7dTLZnVRcXiHuDY+M0uDwMA0ODYvX4ZERcb+4vJKMNgeV8PdAzp7efvH7UyGVqadPRq/qfV+fqBPQLdAr6oK66cxW8gSC4m98D6+QBWTSyQ2gg8nRzs9sY3I0MyHqm5q48dQJ4gSKS8hgtt41g9hjhwC5+fqr0VL9hcVUxn1aHZs6KB+VgzB6+ySFQ1H9rKTBoSEaHByikrJyKjCaqaaunkZYGcPTMCowMjoXxlSv0vvRsTEaGx9ngfdyayoUrbq2oZHLAuINCcXhb1gads6EUkbHxsX/RXrGsPI6Eg6prEPAsIJhgWF+DyXb2Bpwny4aA+reBzL19Qu59KgIA3nBMkB+7NwKAlvtzidnEHvsEECjN90JIbI3TFXcpzWySQOrUTFUFkpHa4fSoeg+rriLFWJmE9nOzB+D0Pk+MArlyRhRKQOKORCABPh/tC6lVcEiBErYTykrY6K2hb43799Vyjg2nSRqUgC4P8h1D/Jz9WYL1bNyh0aGhTwgl35hwSTr0s1khQVqamlhOdZSRXUN2ZzuddHW75wXt+LH4bkWs/mvYecGQoWJQ6X6oXhm/TC3CAitpbWVDBYredksDnDlx6YIdEz8PQWsmMXAvn37aJyhVti4fG8hvyMIgNfZCKMisRpSl2BhOZULmcBKgAgSGQaFvCA3yK+Gv1vJjcnh8W6Otn7nvPRm66to/RxXC7PayuYfJrVP7ueHhTkcplJueQXc31cxs8NbOzBN+YxxFrQai0WIRYNiacIQXjfUF/c72cxbnS52dj0so25hJUAGyAk+DOQGZxndQDU70m5fICva+p3zYkfnoyJmNfotODFwaGD+Yd5QcVQUfSA7NNTGXnAkAc1H+bGMSOWPRAK8Dg5Mdgk19fXCEoAEsAKQWztHSvWICpgAHn/AHh8ff6RK3LHT9ysXRwAZggBV1cL7bxeedJ/o++oaGiifW72XfYT+fpj80Yj9/ceFAEq98drArVzP3aGPw0/hD7C8IDc4iw3sR1UJAgTLN2Vn/3uYyGOHBGCn0eqwggDlbNobZAcQ5h9kyMzLF96+WgCRCHAokyBSuWcjgIh4ZJ8IXUKezsAkKKQBtgKTBGgV4TQ3nLYMvf6LYWKPHQJs3Ljx00arvbSwFASonSQAMxrxLwgAT1+pNLBQEsQqGWYr61zKVzDESrc4nFRgskjhMoeHCAeRHEM+wBcsHNCazd+VxX1E2Gv0r6SkvC+Y7Y4WOIEVcgjYwQyGBUDFcgv0IgGkrvSBWIKIGJ90xpZEwULJiqJnV3hI8QtUPoDsp0ZvEDkLyA0Z0saWNiFPf1HxPqPNdo4s7tgjQFpe3rfNDlc/LEBlTT3HsK2Cwch6IdxD/4+4fyEEkDAPQYfH/FFGROVH6PrUsgCQQUVDEQ2HLWdnVw81tbaLdDpCRqvD8WNZ3LFHgCyN/iyrwz0OC4ACgwAi9cutPt9gZCfHJuL98ErPjwQLsAZRR+Tyh9cznAAjjEBxMWVptCL+RySgEKCqtoEjqyoyO523yuIOn2QS/StHb77C6fFLWUAVAWAFsvILyGx3hkzdXCSYjQixQoz5lm8uxStdwMjIsGjl6bka4TT3y+MYza0dVF2HZFAt2Z2eP8jijqnRQFGAPK3+FiUNXC0TAMkMjAWk52hE/6bu74bChDATERZChljCTHWJpHxBAH5fXllNadl5rPD6aQRAo3J4fC+qZB4zBBCXRm960FdYLBGAK9Dc2irMP6KBPVk5Iv6fQoAFkiDWyTBXucPrGS4L/F1dV0d7s3JFJhUZwU7RgDrE8DAI4PT43pHFHTuKV64Co/n5YHEpFbETiHEADLogm4VcdnJ6liAGBBFe6YUSINaIMN/yzkUAdAEw/XsycyhQVCJyAV3dvUyATqppaBS5ALfPnyKLO7aUj0trNP8zoBCgXiJADxOgoqpaEACv0yzALERYCBliFTPVK5Ichhlw/lK5C8BEEwxVS+MBnVTbIM0NcHkDhrhYVD4undmShCFWZAJBAFQGBEDLR6Uw/ImKIy0ciQSzEeFQIMV8yj5TA1BkgjkDmRp2mB0ukQ5GPkAhQEV1LcYDAhkZGcdEW9cRL53ZqvMXFYuZQMICyATAJIzsAgNXpD1UWQUzEWG+ZDhUMFMd1bIAkCfBzCG9xS4SQd0KARqbRXqdCdCQ63QeF21dT7s2bNhwjN5s9WMwo1gmACxAt5iFUyTm+WFoOLzC8yHCoUiGueoTSfkAxgPcmMfI8kICDT4U5k5iniBGWL2BYLdOZ/96tPU97UpISDjOYLXX+VjZJeWTcwFAABQcSQyEhchxL0TxhyoBDoQEGAXEDCDICt2mmF/IwMwgTBYtq6pBJDVqNjtPi7a+p12JGRlfM1qdXQj1QgRgk69MfMS4AJzCtvYOkQ08ECtwOCFy6+8WM4PrGhvFoBkIgS4UA2oNMgEwYdZoc/0w2vqedqVlZ//AYHOMeAQBqqhORQClLxMzXdkR7OKKztQVHK5kmKu+6PshHwCZ0wF5ZrOaAOVMADjYNo/n+mjre9qVq9VejGnXGMworQABmkIEgNlHhfA3Jjc2s5lDpWeyBIcqOQ6kLooMMFMKVhNZU0yWGZAniKILwMBQI8usggmABJHd47872vqeduXm61djIUVEAmA+IFcIZg3TnzAzSKm8GgciwEMRkerdwY4e+v5Wdpxxr19Mne8XFgAWAV0owsDyqmosEnlGFnvs5AM0WuNvnd4AE6CQCVAtJjJiQmO3ygKg/3d5/VRdWxdREIc7EWarL+ZHIoSGExhOAEQGcKAVAjg9njdlsccOAfL15qew/AohH5wVTGTEhMZu2QdAJVE5k91BdfVTLUC0FRNtQggLwP081kfU1E02DjiBaDzoHuAbYIi9TBDAt00WewwRwGherxAAzkqDQgB5QQj6yPKqKtJbbYLtKxZgKqBot88vukjl3iQBegQBMBiEkNrl8eXKYo8dAmj1pi3uQJB8YQSACYM5AzAczOwV72cTxkIQy0pdaD2wVsLCjnSnEgX0S0vG4EfBOcQIK/wrthTO+Pj4o+bWyjJebAGy3X6sCC4Wnr4yJVxZE9DY3CymhFXX1AprsFiCO1wAAsAB1Jut7O1Xib/7FQJwF9AqCNAgFq06vb7KhATtZ6Kt89AFNmqNZjtGsPyFJYIA6jWBIACiAwOb/x5ms9JysChCtKSBxW9RhxIUCwl4/AEys58EOfWrLAAIgPQ60uwub6DdZDJ9Kdp6D13/SEj4TIHZWu5kDz9QVCoWhSoTQmHGEA5q9CZh4pAijbbZXhYMSFgIEYb4/xqbmkijM3CkJFlKJIPQiLDCCsk1ZFndvsCgwWD7XrT1HrqSkrAphKUNy8KxrUloPmBXt6gAJjewhaAuJsSBJkwOtp+Olb5+ti5AeY7N6RJWoF/eF6FHXiKG0BoE8AYK99vtnnOjrffQlZqTcyJbgAEQICjPBxTTweQJoQVGi5gOFg3lRwORlDrf/4WFxILZ7Hwt+1FNYlqYkg5GaF3KBECD4g73p9HWe+jKzMw7V2e27QMBJucDSnMBMJM1W6sX5mt4ODYIECl1OzQ0KExwLJSts7NLdAOYR4GFoko6uKGpRYSB2NvA6nD/Mtp6D105Gt1PmJFiD5+iUswFkIaCUXA4hlqTVVgDIfjB6GFYVjxm2bRjm5p+Nq8D/HffAHX29IqlWKHcftTKKREBO4lwtyptocNyVEYKy8V4QBU2i3gk2noPXXk63W1WxPjsBBbLQ8FwWpDd4q5B3J+pFS4XYFqRlcRWKx4OVUtZkC0dXdTJAm7m/hU7dBWyh42yw2TPdzx/KQaS8Gw4zOgGkD3tG5A2i8BGUkgHwwrY3d5Xoq330JWrNz6MXbHQ2kswEMTOiuK05LApwyAHZrwuxDwvJjDfHoQ0WB2Uz84o5i0i5u6XU9SIVNBlYTYTMpViiTbfWwoSzMsP4O81cRgNAiDu7x8cEAQQ6WBsJccEcLi978vij342MF9vesnpCwoCwDxhzB99Flpbjs4ocgIgwGIMnx5In4o8BFbcYsUNNqESzx+WNmJQAGWj5ReVlVFadq6YeBGtkFV0U6xwJM6cXl9ot5BmrBEUBKgip8ebKos/+gTQ6k3vQvkYCQQ7sdkB0plwYjQcAeA9WiGYrcYUQgwOLgnwXAw/70jeQ8XsPI2Njoa2YRGbVSkkkAWP2b0mtgJ7M7OkbVuWsGwzYkjKlGIpndFml+YGyulghNhoWC6v30QUfeWLAnCMnwICeAPSOIBYFs5OC/wCPZtdmNiFzpFfLGDhhr+oiBKYAIhKwlt+OFDO2vp62pKwW4Rh4QtZlguQCWSKLgvmH2XH8Hp1nZQMcnn8RVqt9t+iTQBcR2qNFgN8AIwEwkmR0sBdZHK4BRSnarEmUi6UABhh25GUImXbhoenQ+0vsMIbOd7etH2nmLkUTQJgr0WNwSxyAIgEMDsYEZacDm7Kysr6fLSVj3GAT2uN1qDd7RMDQZVyGhiFNticwgoonu1SzKqdC+gC2rnlfLhtuxiIwkYPEUkgA1vFWewOSkpNlYm7/MpXCIB4HwTAlrKYVYXZwVggUiQI4O/VWiwnRFv/ce+9l/B5DvUaMNSLDaLRR7Vg9i+zVcfm3+bxh1qWwPD8ECLC0MED/b7N4aRtbNYxOXV8/wSNjI3T8OiYtJkj1vfx3+P791MtO4kfbdtBVdXVwnosxvMPBJABFJ1ntArvH44srCr2XIYFcPv8YyaT/cxo6z9ue3LmCTqrvduupIFZgBj8QRiotznI5PSIwqvX0y/FcqvZoPyWwWyhzTt2Cs+6tbuX+kf30eD4BPWNjIldyrFV27aEXVRcUiopP8rrCnzcdWnMNhH/Y5kY/Kr6phZBAB872BaH47Jo6l44gKlZWWforfZRdAGFJdKaQDgrcFzQ/8MKwJuOtKHCchFAYETaiQstPJfj6+TUNMrIyaMcbQGHfTm0Jz2DjBaLvHdhdJWv+B0Of5C03I3C9CMXAAJgxzAk27AK2+pw/1yti6gQICMn/1Ijhyt2kQYulxeEdAiv1e5lL5YZjC1hZ9tRYzmJgO4AZcE8fCSDmpqbxWxl+CmijItJugMEZNLX109mblQGtqDKnApsF9PIBECyDTuJ2N3u30edAFn5+rVWl5QGRniCPgoOIArsZ5bmshODWcDz3UDxYNbfLwTKbx9o17SUQJmQudTZXWT1BqT9gwellcLYLwi5FrE+wO19LuoEyNMZ71UOa8B0cPRRcFZQaKxmzdWbmAglB73fTrSVsixQkRLTv/K5+/RyI8IewiCAWF3FvgpyLUgGOTzet6NOAI3B9KwTJ2j4glIWsElKAqHAcF40BguZnW5hYhe6oeLHiQTqeqIbgPXUWOxUzqEriIEGhQMosF0Mci0ggNPjS4g6AfKNlg04QsWNNDCygPLOYNKU5n5pAIZJgAki+znMihUSxArRwp8NGSDta+awWsuygz+F74mDLZgA2CtA7BlYjlyATxMtAoQ2KNIaLTtAACkLWCdaPSYxgrEjHGPjfk6BQZx+hX36xV79i7Tl6uGA8DqOj42L/ZUKWPkWJoHYYp8JgGNtevsG2DfoEulgkQvw+jzx8fFHL7fypxBAZ7blOf0B8mI6OLKAbdLGUCg4dsvElvG5Or3YJBLpTFiBgyHB4UKESPVC3TEegQU2GpNVhHu4HyJAPxOgs5tD7SYRBXh8weqMjIxjVTpZVgLEXXXVVcfozFYX1gT6ikrE8WfN7dL5ANjhaliYrkEyWu1i+1N4rgoB5rIGi7lRY6xgrvqg3hhH0bG8tCabSKbh/xQC4Jyldg4FaxuaxTJxtz/QkZNj/GrUCLBhw4Zj9WZ7pcMjTQeH59qCHAAWg8oEQMXKMC9AW0AGtgKIbyfCSLCPK65GiAjCJE5HRAFCwPOB+rsH+hsLeVYkRc8A9PVYXYX8v5ud6lGVr4ADqLBxZAcToK5RygZ6fIEhvd56StQIkJiY+BW91d4OAgSRBWxoEn0UBi4wsDIiCwGza/QmC+WxFSgqLRNWINwShONgt2iPNcxVl/1cZ0ykwRS6fAwAsS+F+6FDqEQoOMQOdh/VN7eJ7sEXLJow2WwXRI0ASWlpJxus9kExG7i0Quxk1dY5lQAwYWjV5bIVKDCZxTJxXHMRYTH26o9VhauBuiJqsrk8lK83iVVUSrcxSYBRad9AjgQaW9pFNhDpYJvLdU3UCJCRqz3fZHdOYIPo4vIqkQSCieofkDxXZdt2mDfktrHYIbdAJw5JAkEmJiZCJFBjNsuwUHLEAuZTF/TpmLaGLeIwgwqNZmx0cvt7nIEIPwAnnDa1dYqQu4S7AavDfZdaJ8tKgByd7mc2MRsYk0GrxUAF9rYFUxXzr/TZMHEYE8jniCBfb5S6Ar4HEkxEIAE+C0dEAYb5DzGDWRSurtPE/glh+nHaKlZPYQMI3A/3eXBmAvwAHG+LA63LxWYRNcTd75+iRoA8nfFXSAEjD1CGmUAt7SJfPYDxbBQ8QkvAmUEaJgFOCcXUK1yCBDNYgwO1ELGGSPWgCRLz/XG2cIHZAq9e6jLDLJx0RuE4DXE3gLONWzu6xanjIIDT63tdpZNlI4GUBDJZH0XMiiwgGNnU2iHSlYOzEADJIZfXK1a+IDzEZIfDlQSzlR/ax1xJl88vVk1bnC4pTxKhe1MIAD+gj60rTkLHSeywFi5fYNNyEyD0IPZYX/UEiwhAerKZ+6aevgFhqkYjECDk8LAZw7QrmDycJYQJJAdCglgkwnzKjDoipsf6A/hF2F0NMlBS5TMSgLsBEKCNCVBV1yi2i/H4CzOiRgCdxf6hJ1BE3sISLhByAF2ij4KpEsqfRUjd7Cug8nB6wH4shIBg1ESIhIWQI5aglB8Xcvp+Vr5VPkgayZ+ZyDwuWwRx7jFCarau7RwKVjc0izUYHl/Qds8993xSpZvlI4DR6shA6/cXl3GBmjgE7JGOZh+dJMBMJIAw4O2a2QIoJhAnZ6KyhwsJ1GVW6oQFM1C+w+MVYR92UpmWGAsngCDBPjFvcQCnkPf0UQ2H3PJS8bKNGzcep9LN8hBg/fr1nzI7XFYM9gRLK0R2qqO7V0QA8FhnUnw4CTDyhbDQZLOT1elmVleIfPhcJIhVIkQqJy40COz2ia3g4OxhAg38H3w+n64FBMAh1YNsXbt6+6lWzgZ6g4WtqRrNfy03AeIyMjK+aHV6SrE1LHIADS1tIkkxyAyVTuhmVu+XMJvAcCEJgv0DYA5BBizLQh5c+XwuIsQqSAbGQ3DaB0ZE0WAwfR7evzoZNhMUGUKeY0yEIbau3exn1XPIjSl4vmBhv9kZ2jx6+Qig0+m+ZXN7W1EhrLTFTBWMVsH8j8/TGVKTAOEP1rzZPR6xXx4IUVVXJ8YUlCvaCp234uUL8Tumx8NZQ6IHi1JLK6WzgOaj/HCMMwmQEOrpHxSnieJ8RnYk9zk8nsuWnQB6i+Us7sf6ffIwcGtHl+j/R4T5lwsNM70AoeEVi0qwphBHzUpnD5QLU4nE0sFcCynDwV4w2ZgMgz3+ER6XVlZTcUWl6ALm4+NM6eYmJqZYAziCyAUg6YbNOLDqye0LrlXpZslJIB5gc7kut7u9+0AAhCRIASMBhHBln6z8A209mE6GGBe/HSwpJeks4hppdsxBEmEpLyge4R0mbuKQJ5z0hfAY7zE+olwHIpf9+ycmCdAvEUDIhuH2BdSzg5eUAKEHWB3utWilGAbGIBD6fyQqxMjWDM7QQkiA32jnKEGYz/IKbkFVoiVViYUnHcJRVLqPaF4o76hQygC1sLmHL4T+ua6pRbx2spOLLlH57oECDQoEwLMw1oKpd9IJbWXsVPr/vJwEOBJvHC7vPX7RQssEG8FwtM6DVX44EeBQgghV9Q1igmQFt6hKJgFaV6M4lq5Pfu7Bm+55K50BrxyDMwjJsNNIU3unmAzTxAARMGgDH+BgFT8V+8VzMSyMqXcKAbyBwN9l/Ry5bARwur1PYvEiQpFm7HGPhRVo/YtWWZkEKiLAytRzC6vm1oU4uJb71NqmVnEPSoDQpShk36L05SGF809J5ndcJGI6+TmtXb3U0tlNLdz1ITXb1t1DHVw+ZOpEPy+XfTFlAcCawPphrwDhA5SUYPh4K6vkE8tKALvL8xqUX8qeOzxd5P/HFyD4AyUCwiH4Gu3c8ppY6Q3c8hplKO+bWTHt3b3UxYrqGxwWmUkob0wkVfaHfJQpkPtYfA4CDYvh1xGh0C7uczs49m7jZypo7+kX97rY9PdiAyr+/r5Ql7RE1mhCyhlgaB2pY7T+QFERoqYsTM+TSbBsBPgX9q/BtrCIaYdZWPvkvu7A6zf/rgHCgKKQGevmPrFdVlCrgu5JKEqDwjo4hsauYFBqtwy87wT4Pj7H99rFd6Xvd/YPiM+7Bob4WUPUw6TCc4fliGcxrc1cFxoA5lJg5VCxlAfA7GBbfHz8sXGTVmBJCSAYZnd79oAASHAgm4d5a0vtlEUkgiIYbsGj40iUsJM0PEq9QyPUw5aiezAShmTw+4Hpn0PBPfz/fQD/1gBbEPyuYkWW098Ik4BoZFg4gkRZSXm52FvY6fWVbNq0CXsHHxW3xN2AsACnnnrq0Q6Xx4AYvVohgBjHXt7WMNuFYsC0Y83/GJcL5BiRMTwGjIeB78mfj7KQx0RXIecxol0Z+ZqYUAgwIrbgw1ZyLo+XnG5PU0JCwjeWiwBHPPHEE8fZnO6iQnZAatgrVyyAkt9fuZbmEuEgExoWQCGAw+0mu9PVwwTA7OAldwSFBXjq5Ze/YHU4q5Czx7Yr2MJsWEWAFRIszTVpASYJYMeQstPZvzUh4UxZ+UtvAZgAXzTa7LW+YJAqq6vFsC4KNb5CgCW9IhEAO4ubbLbBzZs3n7VsBGCP80t6s6Xe4wtQOYeBKMyQCAMns4Ar1+JfCgGGQgQoJyvmU1isQ++///45cZNR2tJ2AY/Hx38532BsdLi9goVtcmp2hQBLewkC7JfCQOxqUlJWRmabnQqMppH//95758n6UXIBi04C5UePePqll76SV6BrNtscYjQK070H5EzgxAoBluwSmcBxaQEptreBE2602ogb4+jf33nnwuUgAH78E8888+LXM3M1rVjlgwEhzGvHjFaM6e+X5wKsXIt3hQaEENKKwaABsZmlP1hIOpOJcgsKxv+xcePFcZL5X1ICCCeDfYAT9mZktiurfHAoBE4GATOVZVFiKtP+FSwK5GlhyiaX2HUNB0y6fD7K1+spMy9v/xtvvXXZshHg2Wdf+E7S3tSOjNw8OCBiR0tMbsSqIOxsDSIoO29Ge8etwwFDw9I+xtgqTuwT1NIq5k5aOQLIyddSRk7uxLq3375CVv6yEOCkhJSUrpSMLLH5A1YHYX8gnGmDbU2xSxhCwxUsDjq6OoVMsYchDpCoqq0VM4sNFgtl5OZSWlYW/fXNN6+MkzKBRy01AY549oUXTt6+O6kncW8aZeRpCPsE+oqKxMggxgZqG+qprrGBfYMVHCwUOdaxTGH2K2tqqJi9f6fXy+bfQKmZmbSX8fK6dT9TEWBJQsEQAeLjX/rBloRdvQkpe2lvVg5p2Rm0e7xiyjMOXCipwDBxBVuFFSwmSssx/6KUkICzOOyUq82nlPR0scvpa+s3XLtcBDjy6fj4MzfvTOjHFuzJ6ZmiGzA5nOTy+8VEzkBxMYeHxVS4gkUGy7awUKytNFjMlJWXR8mpqYIEr7/xxhrWzSdlLN4Uru0AAA2SSURBVC0B/vz882d/tGPnIHcDlJSWTtnaAnHWDiICLHrwBoOCpb5gYAWLDA83MrvbxeGfkfv/HErcs5eS09Lo1TffvHnZCPBM/Ivnfbht+/C23YmUmJpGmeyJFnA0gLVuTg5N3FxIT4ALG/CvYJHh8nnZ+8fei3pKz86mXSl7hA7+um7d7aybo2UsKQE+wQS48F/bdozgWJXde1PZEcxnP8Ai1vnBF0B86o4AVxgifWcFs8Pp8ZDZbieNXscOYBYlJKdQIuvg1TfeuJN1c8xyEOCoZ+LjL/lgy7axzQm7aBeboPTcPNIYTRwNOMjmdpPDi11DPB8veJbhHgPm32i1Uh53u3syMmhHYpLQwV/XvXn3chAASYajnoyPv/yDLVv3bdqRQDvZBKXm5FIehyR6q12s8rW5UVD3nHB4uMtgOObx3VgGnDKYZ9Rn1nu++d7zTbsn4HKx+XeSzmymnHyOANj/2r57NyWwDv72+vr7WDf/ttQEQIjxySeefu7K9zdv2f/R9p3iMCaEgjkcCegsNtENwBewcWFnAtjtDfjI4nKSkfszt9/L5s076//EKhCPWxwO4ZG7hYPmFvew90FWniZ0D4o222yUrVHf82Esn3I0+bJzJ91DC8ehFiCB+llQvpmfVcDWNpt/O4n7/q3cDaMb+Nu6dQ/JBFiy2cEhAjzy1FPXvLtpC7EfQNsSkyklI5uyC3SkZUfQyP2T2eESK32x+0c4HGwdctha3PviFrrkwV108UPJdP2fttIHu9MEMWBBIv1fLAKpWIyGPvrks/SdE79HGeyUIQrCvQcf+RN97/snU44ggXTvdw88RCefcipp2Hxjaxjcu+ve39Opp51OBSwT3MMsqzt+/Vs648z/JgO3dKfHG3oeSIVzBLHJVmauhvv+vbRl5y7aCQK8vv5R1s2nlpIAR8oEOObRp566/r1NrLSt22krh4LIBSASyGdHUM8FRGbQKG99Ygq9OoVyc7miV/5hO53/fB09bpyg5z1EN27qo9PuzqZ/btsjfAjl+9L/xi5A9MLSUvrV3b+nLx3/ZdrBPpHYL6GklG694y76yle+SruTkwlL6LGA4+e33Epf/a+vUQq3XNzDauHVa26kr339G5TGDp3bHxTJtJ9du5q+ecIJlM2+FfYRUJ4H5eu5kWF/pXTudhEBbN4JK5xMr6xb9wTr5tNxkhVYdAIoDiBizE899NhjN8ECvL9lG23ZxaEgEyBdo6U8o5kK2A/Qc2EBQxgsbMZefieJznqunl4IEKV3Eun7iHa0EK3dvo/WPp3K3YhZEGjy/+xk4IqL1+XGHM81sjmGYu9+8I/0DVZYAjtknmCQAnzvznvuoxO+9W1KYgcNFgDK/sUdvxb39qani3tQNkjx7e98V7IebAFwyOXqtTfSid87ibsGjYiqRDmgfKtN7CWYi3OOsrKF6f9o+w7azlb45dfXP8u6+felJgAcjE8/8Mhjt7/z0RZ6l63ApoRE2pWaSWl5WnE8jJYJoLM5VHCG3hsddnpiQyZd8r/D9GYxkWuQqHSMKJeJ8HsN0VV/8YiuBATAiaMh2BxT/54T9sWBbfbPDVwunOz1u0eeou+e9H3axf4Qdk7Hxtm/uf9hOpHvJXGI5kByjL93x29/T987+WTam5FJTp+UNb3ll3fS9085hWP6HHJw/+/le2tvuY27hdPYX8gnK3eLeJaOlQ8fCxtrZWu14mjbHaz4D9kKIyH3wt9ee55185k4qRtQBoQWnQDoXz5z/8MP//adDzdLBNiZSAmpGZTKBMjRmynfYhcnXUWCnvuxjYlmWvVaP/1BT5TYTJTfTfROJdHVWyfovn8EhB9RwILFfvk4MKEglsHl9LCyH3gink457Qxhkm04Q5lb9r1/fIpOPf0MdtTSycZm3F1YTL++/4/0gzPOYAJksWI5rufu4vbf3EuncX8Pk25FDiVYSDdz93HG2WcLAphdHqH8Ala+tI+wibLY2qYwibax4v/FVhgJuRdffRXHyR+7HAQ49r4H//DARibARrYCH+7cTTv3ZtCeXC1l6syUa3ZQvtXFcFK+zaWCU0Dn9NKfdzTThW+N000pE3RX9gRduXk/3bKxjzLMRaS1O0PfFcCJI1bpvVYmRayggMvkKiyhh555kU4/+xxK2JNKFla2i5V93+PPsRLPpaS0DLKwsl2s7LsffpLO5Ht7MrPFiWC496vfPURnnnMupTEBcEqIk32DW3/zOzpr1SqhaKPTzY3CJhpGPhMgjwmQwY0tibvdrdz9vr95q4gE/vLKX9ezbj4bJ/kByoDQoilfyQGAAJ/77f33PwwC/JMJ8MGO3bRtTzol5eRTGhMgy+SgXCaAgM2tgksgj+EoqaJdtj56fPcIPbBjlN7KHSJrcTPpXD7+P6f8Xec05FljCxqGPVhCDz/7Ip11wUXCEho9HLoFi+n+J/6Hzjr/IvaPssjAyrYHiuieR56ms/leSlYuGVwc9voL6c77/kjnXHAhpbJXjyPibL4g3XbPA3TuhRdRBhNA53CTxmQjjZGVb7RQts7I3W0+7eZnbWLFv8e+2GaOBJ574aUNrJsvLDYBjoibSgA4GF+4fs2Nd7717vv7//khO4Lbd9OWlHTalZ1PewpMlG7k+NfioiyrDEtkmFlw/poGCtQ1kbOsknLtHsq0OOXPnQLZCqyq97PCMQvCP4/w/2aAyw+Y5gDqabKTyVdMf3zuJTrv0ito+95Mynd4yegtpAee/B8675LLKSE9m/K5bkZvkO559Gk674eXUWJmjrCKRk9AdAvnXXwpJWfnCUIZ3X66/d4HadUll9He3HzK4y41i7vWLB2bflZ+ulZPe/i7O7nRfbhjF6Er/nDbTrrvoYfjWTdfUhFgUbqASAT4z+OPP/7yl15fX/UO+wDv8MM/YgLsyNJQUr6J9hjslGp0UqoJcMlwquCiNNzj7+xlIabKSOPPgHT+TMCM9wpcqvezwcH/55j6Gv4+AtKMatinIFUNw3Ro3YX0yF/+RhddeQ1t2ZvFxHVTvitADz77Al3045/RtrRsJhR3gU4/3fv4n+nCK35KO9NzKZOfq3H46K6HHqMLLv8J7crke0Zu6UyW27lbuPDyH1NitoYy9Fbam2+QoNFTSl4B7ebvbktJ5caXwF3ANnr73ff7Tj39dJwi+pUwAhw0CSJaAMbpHKv+/a133t//3tad9K/de2hrhoZ2aYyUpLNTksFJyXPCJZBinAEm9d9O1eviQyqPYyr0DkrS2yNDJyGxwEZZjgA99sobdMWam+mj1Bzaw7+XafPRH5gUl19/E21Oy6UU/q0Mq5fue/p5+tF1a2gL7umslMFk+Q1HEJdevZq2MSmStSZB5DseeIQuueoa2pGZR8n5Rtqdq6PEPEYuKz9bSzvSc2hz4l5hAf7FDfD2X9+1k3WyivHlpSSA4gTizPoTGddd8dOrdr28/u/9H2zfRdvY/CVw4RLzDJQEIrA1SGYkyUhWvaJSSYxkfE+j3JvE5Pfl78lQv1f+Dr8X6bPw9+p7AqIchmlIlKF+n5inn4JMbt0PPfcKrbriKvpg915K0Zopgy3J7zgywL0PE1MphZ+RwdbiNxwZrPrRT2hTUhrXXU/pegvdwT7AeZf9WHSjSazgdPajbmUf4ILLrxQyTYbS2bomykDrT+Cwe8vuZNrwz3fHbrz5Vh3r4lcM7BX4xTgpCvhEmO4WhQRKHgDbkmIpMlai/PK44z73j4svudS0es3a0mvXrK269oa1NdfesKbumhvWNFxzw9oG/lu8SlgzFdff0BgJ105933Q1sFp+VUH9HfX/XLP6+kb150D439esjvxsUa7V8ufqsq6O8MpYe9PNDRf+8EeNJ510UuPV117XeN2anzesvfHmhgsuupjvfb/xmmtXNyj3Vl14UeNJ3+d7193QwPKqF/cuuLDh5JNPabyWfwv31tx4k/jfM848s/G669c0XnfDmsarV1/fhDrJ5WKZrqm59PL/5/vi8cfvYB1gDOBHjO/IjVOdCFp0AiATiGQDTM3JjMsYtzEeY7zIWMfAhkXwSN+KgA2qV+BtGf8Iex+O/53hvRpvzxNvqV7V5VLj7zLeDIP63hszIPyz9bJcIuF1Ga8xXlXhNRnK99S/jd9DzP8UA6eF/CROav04Pew/4qaOBi6qI6iMBcDEfI7xdcYPGFiRcjUDTsgvGLercJuMWyNA+ez2CFB/Fv6d28L+P9Jv/yICbgl7H46bI+CmGXBjGH6uQvjfwFoZayK83iDj+givyveU371Jfo/PfirLHjqARf583GQSaFEJEBenmg0UJ1mBT8sP/BrjJMYZDKxOhSNyPuMCGefLWKV6H44LFoDzw373ggi/tyoCzlO9RsK5qtdwnKN6nQ1nz4GzVK/zxTmq56vL899xkuJPlHUAxxzjAEfHLeEmEQoBjpIfBBIg8wTHA+YHLDxBhW+qcMIs+FYYZvr8hLDXmb4fCd9cRHzjAPH1BeJr8qv6N5Tn4zN0w/8ZJ/lkivKXZ4+guEkSwOEAEeAXoP85Vi7QfPHZBSLS/yzkeUuBY1X1PnYJEf5MyFsZ/VvSlh9+hfsEYpKICkfPA8csA+ZTjkMViqwhe0Xxy6L88Cs8T7CC5cOihXkr18q1cn1cr/8DH55G3x8p6ksAAAAASUVORK5CYII=;fontColor=#006600;" vertex="1" parent="1">
                    <mxGeometry x="766" y="405" width="48" height="48" as="geometry"/>
                </mxCell>
                <mxCell id="29" value="Disk x5" style="shape=image;verticalLabelPosition=bottom;labelBackgroundColor=none;verticalAlign=top;aspect=fixed;imageAspect=0;image=data:image/png,iVBORw0KGgoAAAANSUhEUgAAAIAAAACACAYAAADDPmHLAAAACXBIWXMAAAsTAAALEwEAmpwYAAAgAElEQVR4nO19B5xkVZV+gwir64JhFXUNGBABCUsakoDwV0TCwIwEARFRQEkiQaJsS1RgBhxw/w5JmDw902Gmc6iurpxzdc4559w902fPd9971a+rq9NMd1fN0O/3+35V/aq63r3nfPfcc85NcXEr18q1jNcRK5gXDvkr2gI8XBHzV7QF9HFBTF7RFsrHETFzRVsQH2dE/TokChnFSy2Dw44AMVuwGL8ORLkxLetpBUpISDjaZHfdaXP5k+1un97p9etdvqDe7Q/qvcFCva+wSO8vKtEHi0r1wZJSfWFpGaNCX1Q2iZKKSn3pFFRJqFSjOoQy1ftJhH9f+o2SECrFa6l4VaFsOooEppaxiMtcGALXoQSQ6gSgjgJcXx/X2ysQ1HsChTq3kEeAX/06l8evczBYVjqby6Mz2916s8OdYbDaH03Waj87g5xjhgDKJQq0x2j8D5PNkeIrKqVgSQUVllVRSVUtldfUU2VdA1XVN1J1QxPVNrUI1DW3Un1LGzUAre3U2NZBTUB7JzV3dKnQTS2d4eiRMdt7Bv+v+P8O5f3kb4rX9q7Qa1PH5HsJnSE0KVDKyEB5G1slNLS0i3rUo06MuiaA69nYQjWNzaLeqD/kUFFbTxUsk7LqOipl+ZRU1lBxRTUVlVdRsLSCAsVljFKyOFzOtDzDt9UyjoDYubR682t+Vj63eAIJCrlCqGBlbQNV1zdRDZTPwpCU3yIJSyYABApBhwgBgYIUArKg28LROQtApC5q7ZIIMZVQkQHCtDJQjsbQsyU0KGhpn1S2AihcrXSBZqF4/F3f0hr6u6axaRoZymvqBBnQWECCQEk5uQOF3IjKSG+2ZWm12qNUYo5NAmRnZ39JZzK3CeUXlgpGV3Ll6rjSjSyA5rZ2amlvp9b2Dmrt6KS2zk5q7+qijq5u6u7tZYG2ksXpJrPDSXa3l+weBT5yAF4F/mlw+gLkkOFUweLyCEE2trZR78Ag9fQPUHdf/zTgPj5HOb2FRWTj5+NZLn9AhaAMfu+T4PT5Q1CXB2UGrC43GWx24i5C1LWV69za0SHkAHk0tzHxuWx4bj03iDomSTUTo5zJwN0OeYNcFpdnv0avPy+CyGOMAPmGVdxvkYeFxH0kVdXWUQNXqIUr2t7ZRZ3d3dTV3UPdPT1C4T29fdTb308Dg4NUW99AWoOJAkXF1MWf476CvoGByIDS+qf+Pfn5oEAnP4/7dTLZnVRcXiHuDY+M0uDwMA0ODYvX4ZERcb+4vJKMNgeV8PdAzp7efvH7UyGVqadPRq/qfV+fqBPQLdAr6oK66cxW8gSC4m98D6+QBWTSyQ2gg8nRzs9sY3I0MyHqm5q48dQJ4gSKS8hgtt41g9hjhwC5+fqr0VL9hcVUxn1aHZs6KB+VgzB6+ySFQ1H9rKTBoSEaHByikrJyKjCaqaaunkZYGcPTMCowMjoXxlSv0vvRsTEaGx9ngfdyayoUrbq2oZHLAuINCcXhb1gads6EUkbHxsX/RXrGsPI6Eg6prEPAsIJhgWF+DyXb2Bpwny4aA+reBzL19Qu59KgIA3nBMkB+7NwKAlvtzidnEHvsEECjN90JIbI3TFXcpzWySQOrUTFUFkpHa4fSoeg+rriLFWJmE9nOzB+D0Pk+MArlyRhRKQOKORCABPh/tC6lVcEiBErYTykrY6K2hb43799Vyjg2nSRqUgC4P8h1D/Jz9WYL1bNyh0aGhTwgl35hwSTr0s1khQVqamlhOdZSRXUN2ZzuddHW75wXt+LH4bkWs/mvYecGQoWJQ6X6oXhm/TC3CAitpbWVDBYredksDnDlx6YIdEz8PQWsmMXAvn37aJyhVti4fG8hvyMIgNfZCKMisRpSl2BhOZULmcBKgAgSGQaFvCA3yK+Gv1vJjcnh8W6Otn7nvPRm66to/RxXC7PayuYfJrVP7ueHhTkcplJueQXc31cxs8NbOzBN+YxxFrQai0WIRYNiacIQXjfUF/c72cxbnS52dj0so25hJUAGyAk+DOQGZxndQDU70m5fICva+p3zYkfnoyJmNfotODFwaGD+Yd5QcVQUfSA7NNTGXnAkAc1H+bGMSOWPRAK8Dg5Mdgk19fXCEoAEsAKQWztHSvWICpgAHn/AHh8ff6RK3LHT9ysXRwAZggBV1cL7bxeedJ/o++oaGiifW72XfYT+fpj80Yj9/ceFAEq98drArVzP3aGPw0/hD7C8IDc4iw3sR1UJAgTLN2Vn/3uYyGOHBGCn0eqwggDlbNobZAcQ5h9kyMzLF96+WgCRCHAokyBSuWcjgIh4ZJ8IXUKezsAkKKQBtgKTBGgV4TQ3nLYMvf6LYWKPHQJs3Ljx00arvbSwFASonSQAMxrxLwgAT1+pNLBQEsQqGWYr61zKVzDESrc4nFRgskjhMoeHCAeRHEM+wBcsHNCazd+VxX1E2Gv0r6SkvC+Y7Y4WOIEVcgjYwQyGBUDFcgv0IgGkrvSBWIKIGJ90xpZEwULJiqJnV3hI8QtUPoDsp0ZvEDkLyA0Z0saWNiFPf1HxPqPNdo4s7tgjQFpe3rfNDlc/LEBlTT3HsK2Cwch6IdxD/4+4fyEEkDAPQYfH/FFGROVH6PrUsgCQQUVDEQ2HLWdnVw81tbaLdDpCRqvD8WNZ3LFHgCyN/iyrwz0OC4ACgwAi9cutPt9gZCfHJuL98ErPjwQLsAZRR+Tyh9cznAAjjEBxMWVptCL+RySgEKCqtoEjqyoyO523yuIOn2QS/StHb77C6fFLWUAVAWAFsvILyGx3hkzdXCSYjQixQoz5lm8uxStdwMjIsGjl6bka4TT3y+MYza0dVF2HZFAt2Z2eP8jijqnRQFGAPK3+FiUNXC0TAMkMjAWk52hE/6bu74bChDATERZChljCTHWJpHxBAH5fXllNadl5rPD6aQRAo3J4fC+qZB4zBBCXRm960FdYLBGAK9Dc2irMP6KBPVk5Iv6fQoAFkiDWyTBXucPrGS4L/F1dV0d7s3JFJhUZwU7RgDrE8DAI4PT43pHFHTuKV64Co/n5YHEpFbETiHEADLogm4VcdnJ6liAGBBFe6YUSINaIMN/yzkUAdAEw/XsycyhQVCJyAV3dvUyATqppaBS5ALfPnyKLO7aUj0trNP8zoBCgXiJADxOgoqpaEACv0yzALERYCBliFTPVK5Ichhlw/lK5C8BEEwxVS+MBnVTbIM0NcHkDhrhYVD4undmShCFWZAJBAFQGBEDLR6Uw/ImKIy0ciQSzEeFQIMV8yj5TA1BkgjkDmRp2mB0ukQ5GPkAhQEV1LcYDAhkZGcdEW9cRL53ZqvMXFYuZQMICyATAJIzsAgNXpD1UWQUzEWG+ZDhUMFMd1bIAkCfBzCG9xS4SQd0KARqbRXqdCdCQ63QeF21dT7s2bNhwjN5s9WMwo1gmACxAt5iFUyTm+WFoOLzC8yHCoUiGueoTSfkAxgPcmMfI8kICDT4U5k5iniBGWL2BYLdOZ/96tPU97UpISDjOYLXX+VjZJeWTcwFAABQcSQyEhchxL0TxhyoBDoQEGAXEDCDICt2mmF/IwMwgTBYtq6pBJDVqNjtPi7a+p12JGRlfM1qdXQj1QgRgk69MfMS4AJzCtvYOkQ08ECtwOCFy6+8WM4PrGhvFoBkIgS4UA2oNMgEwYdZoc/0w2vqedqVlZ//AYHOMeAQBqqhORQClLxMzXdkR7OKKztQVHK5kmKu+6PshHwCZ0wF5ZrOaAOVMADjYNo/n+mjre9qVq9VejGnXGMworQABmkIEgNlHhfA3Jjc2s5lDpWeyBIcqOQ6kLooMMFMKVhNZU0yWGZAniKILwMBQI8usggmABJHd47872vqeduXm61djIUVEAmA+IFcIZg3TnzAzSKm8GgciwEMRkerdwY4e+v5Wdpxxr19Mne8XFgAWAV0owsDyqmosEnlGFnvs5AM0WuNvnd4AE6CQCVAtJjJiQmO3ygKg/3d5/VRdWxdREIc7EWarL+ZHIoSGExhOAEQGcKAVAjg9njdlsccOAfL15qew/AohH5wVTGTEhMZu2QdAJVE5k91BdfVTLUC0FRNtQggLwP081kfU1E02DjiBaDzoHuAbYIi9TBDAt00WewwRwGherxAAzkqDQgB5QQj6yPKqKtJbbYLtKxZgKqBot88vukjl3iQBegQBMBiEkNrl8eXKYo8dAmj1pi3uQJB8YQSACYM5AzAczOwV72cTxkIQy0pdaD2wVsLCjnSnEgX0S0vG4EfBOcQIK/wrthTO+Pj4o+bWyjJebAGy3X6sCC4Wnr4yJVxZE9DY3CymhFXX1AprsFiCO1wAAsAB1Jut7O1Xib/7FQJwF9AqCNAgFq06vb7KhATtZ6Kt89AFNmqNZjtGsPyFJYIA6jWBIACiAwOb/x5ms9JysChCtKSBxW9RhxIUCwl4/AEys58EOfWrLAAIgPQ60uwub6DdZDJ9Kdp6D13/SEj4TIHZWu5kDz9QVCoWhSoTQmHGEA5q9CZh4pAijbbZXhYMSFgIEYb4/xqbmkijM3CkJFlKJIPQiLDCCsk1ZFndvsCgwWD7XrT1HrqSkrAphKUNy8KxrUloPmBXt6gAJjewhaAuJsSBJkwOtp+Olb5+ti5AeY7N6RJWoF/eF6FHXiKG0BoE8AYK99vtnnOjrffQlZqTcyJbgAEQICjPBxTTweQJoQVGi5gOFg3lRwORlDrf/4WFxILZ7Hwt+1FNYlqYkg5GaF3KBECD4g73p9HWe+jKzMw7V2e27QMBJucDSnMBMJM1W6sX5mt4ODYIECl1OzQ0KExwLJSts7NLdAOYR4GFoko6uKGpRYSB2NvA6nD/Mtp6D105Gt1PmJFiD5+iUswFkIaCUXA4hlqTVVgDIfjB6GFYVjxm2bRjm5p+Nq8D/HffAHX29IqlWKHcftTKKREBO4lwtyptocNyVEYKy8V4QBU2i3gk2noPXXk63W1WxPjsBBbLQ8FwWpDd4q5B3J+pFS4XYFqRlcRWKx4OVUtZkC0dXdTJAm7m/hU7dBWyh42yw2TPdzx/KQaS8Gw4zOgGkD3tG5A2i8BGUkgHwwrY3d5Xoq330JWrNz6MXbHQ2kswEMTOiuK05LApwyAHZrwuxDwvJjDfHoQ0WB2Uz84o5i0i5u6XU9SIVNBlYTYTMpViiTbfWwoSzMsP4O81cRgNAiDu7x8cEAQQ6WBsJccEcLi978vij342MF9vesnpCwoCwDxhzB99Flpbjs4ocgIgwGIMnx5In4o8BFbcYsUNNqESzx+WNmJQAGWj5ReVlVFadq6YeBGtkFV0U6xwJM6cXl9ot5BmrBEUBKgip8ebKos/+gTQ6k3vQvkYCQQ7sdkB0plwYjQcAeA9WiGYrcYUQgwOLgnwXAw/70jeQ8XsPI2Njoa2YRGbVSkkkAWP2b0mtgJ7M7OkbVuWsGwzYkjKlGIpndFml+YGyulghNhoWC6v30QUfeWLAnCMnwICeAPSOIBYFs5OC/wCPZtdmNiFzpFfLGDhhr+oiBKYAIhKwlt+OFDO2vp62pKwW4Rh4QtZlguQCWSKLgvmH2XH8Hp1nZQMcnn8RVqt9t+iTQBcR2qNFgN8AIwEwkmR0sBdZHK4BRSnarEmUi6UABhh25GUImXbhoenQ+0vsMIbOd7etH2nmLkUTQJgr0WNwSxyAIgEMDsYEZacDm7Kysr6fLSVj3GAT2uN1qDd7RMDQZVyGhiFNticwgoonu1SzKqdC+gC2rnlfLhtuxiIwkYPEUkgA1vFWewOSkpNlYm7/MpXCIB4HwTAlrKYVYXZwVggUiQI4O/VWiwnRFv/ce+9l/B5DvUaMNSLDaLRR7Vg9i+zVcfm3+bxh1qWwPD8ECLC0MED/b7N4aRtbNYxOXV8/wSNjI3T8OiYtJkj1vfx3+P791MtO4kfbdtBVdXVwnosxvMPBJABFJ1ntArvH44srCr2XIYFcPv8YyaT/cxo6z9ue3LmCTqrvduupIFZgBj8QRiotznI5PSIwqvX0y/FcqvZoPyWwWyhzTt2Cs+6tbuX+kf30eD4BPWNjIldyrFV27aEXVRcUiopP8rrCnzcdWnMNhH/Y5kY/Kr6phZBAB872BaH47Jo6l44gKlZWWforfZRdAGFJdKaQDgrcFzQ/8MKwJuOtKHCchFAYETaiQstPJfj6+TUNMrIyaMcbQGHfTm0Jz2DjBaLvHdhdJWv+B0Of5C03I3C9CMXAAJgxzAk27AK2+pw/1yti6gQICMn/1Ijhyt2kQYulxeEdAiv1e5lL5YZjC1hZ9tRYzmJgO4AZcE8fCSDmpqbxWxl+CmijItJugMEZNLX109mblQGtqDKnApsF9PIBECyDTuJ2N3u30edAFn5+rVWl5QGRniCPgoOIArsZ5bmshODWcDz3UDxYNbfLwTKbx9o17SUQJmQudTZXWT1BqT9gwellcLYLwi5FrE+wO19LuoEyNMZ71UOa8B0cPRRcFZQaKxmzdWbmAglB73fTrSVsixQkRLTv/K5+/RyI8IewiCAWF3FvgpyLUgGOTzet6NOAI3B9KwTJ2j4glIWsElKAqHAcF40BguZnW5hYhe6oeLHiQTqeqIbgPXUWOxUzqEriIEGhQMosF0Mci0ggNPjS4g6AfKNlg04QsWNNDCygPLOYNKU5n5pAIZJgAki+znMihUSxArRwp8NGSDta+awWsuygz+F74mDLZgA2CtA7BlYjlyATxMtAoQ2KNIaLTtAACkLWCdaPSYxgrEjHGPjfk6BQZx+hX36xV79i7Tl6uGA8DqOj42L/ZUKWPkWJoHYYp8JgGNtevsG2DfoEulgkQvw+jzx8fFHL7fypxBAZ7blOf0B8mI6OLKAbdLGUCg4dsvElvG5Or3YJBLpTFiBgyHB4UKESPVC3TEegQU2GpNVhHu4HyJAPxOgs5tD7SYRBXh8weqMjIxjVTpZVgLEXXXVVcfozFYX1gT6ikrE8WfN7dL5ANjhaliYrkEyWu1i+1N4rgoB5rIGi7lRY6xgrvqg3hhH0bG8tCabSKbh/xQC4Jyldg4FaxuaxTJxtz/QkZNj/GrUCLBhw4Zj9WZ7pcMjTQeH59qCHAAWg8oEQMXKMC9AW0AGtgKIbyfCSLCPK65GiAjCJE5HRAFCwPOB+rsH+hsLeVYkRc8A9PVYXYX8v5ud6lGVr4ADqLBxZAcToK5RygZ6fIEhvd56StQIkJiY+BW91d4OAgSRBWxoEn0UBi4wsDIiCwGza/QmC+WxFSgqLRNWINwShONgt2iPNcxVl/1cZ0ykwRS6fAwAsS+F+6FDqEQoOMQOdh/VN7eJ7sEXLJow2WwXRI0ASWlpJxus9kExG7i0Quxk1dY5lQAwYWjV5bIVKDCZxTJxXHMRYTH26o9VhauBuiJqsrk8lK83iVVUSrcxSYBRad9AjgQaW9pFNhDpYJvLdU3UCJCRqz3fZHdOYIPo4vIqkQSCieofkDxXZdt2mDfktrHYIbdAJw5JAkEmJiZCJFBjNsuwUHLEAuZTF/TpmLaGLeIwgwqNZmx0cvt7nIEIPwAnnDa1dYqQu4S7AavDfZdaJ8tKgByd7mc2MRsYk0GrxUAF9rYFUxXzr/TZMHEYE8jniCBfb5S6Ar4HEkxEIAE+C0dEAYb5DzGDWRSurtPE/glh+nHaKlZPYQMI3A/3eXBmAvwAHG+LA63LxWYRNcTd75+iRoA8nfFXSAEjD1CGmUAt7SJfPYDxbBQ8QkvAmUEaJgFOCcXUK1yCBDNYgwO1ELGGSPWgCRLz/XG2cIHZAq9e6jLDLJx0RuE4DXE3gLONWzu6xanjIIDT63tdpZNlI4GUBDJZH0XMiiwgGNnU2iHSlYOzEADJIZfXK1a+IDzEZIfDlQSzlR/ax1xJl88vVk1bnC4pTxKhe1MIAD+gj60rTkLHSeywFi5fYNNyEyD0IPZYX/UEiwhAerKZ+6aevgFhqkYjECDk8LAZw7QrmDycJYQJJAdCglgkwnzKjDoipsf6A/hF2F0NMlBS5TMSgLsBEKCNCVBV1yi2i/H4CzOiRgCdxf6hJ1BE3sISLhByAF2ij4KpEsqfRUjd7Cug8nB6wH4shIBg1ESIhIWQI5aglB8Xcvp+Vr5VPkgayZ+ZyDwuWwRx7jFCarau7RwKVjc0izUYHl/Qds8993xSpZvlI4DR6shA6/cXl3GBmjgE7JGOZh+dJMBMJIAw4O2a2QIoJhAnZ6KyhwsJ1GVW6oQFM1C+w+MVYR92UpmWGAsngCDBPjFvcQCnkPf0UQ2H3PJS8bKNGzcep9LN8hBg/fr1nzI7XFYM9gRLK0R2qqO7V0QA8FhnUnw4CTDyhbDQZLOT1elmVleIfPhcJIhVIkQqJy40COz2ia3g4OxhAg38H3w+n64FBMAh1YNsXbt6+6lWzgZ6g4WtqRrNfy03AeIyMjK+aHV6SrE1LHIADS1tIkkxyAyVTuhmVu+XMJvAcCEJgv0DYA5BBizLQh5c+XwuIsQqSAbGQ3DaB0ZE0WAwfR7evzoZNhMUGUKeY0yEIbau3exn1XPIjSl4vmBhv9kZ2jx6+Qig0+m+ZXN7W1EhrLTFTBWMVsH8j8/TGVKTAOEP1rzZPR6xXx4IUVVXJ8YUlCvaCp234uUL8Tumx8NZQ6IHi1JLK6WzgOaj/HCMMwmQEOrpHxSnieJ8RnYk9zk8nsuWnQB6i+Us7sf6ffIwcGtHl+j/R4T5lwsNM70AoeEVi0qwphBHzUpnD5QLU4nE0sFcCynDwV4w2ZgMgz3+ER6XVlZTcUWl6ALm4+NM6eYmJqZYAziCyAUg6YbNOLDqye0LrlXpZslJIB5gc7kut7u9+0AAhCRIASMBhHBln6z8A209mE6GGBe/HSwpJeks4hppdsxBEmEpLyge4R0mbuKQJ5z0hfAY7zE+olwHIpf9+ycmCdAvEUDIhuH2BdSzg5eUAKEHWB3utWilGAbGIBD6fyQqxMjWDM7QQkiA32jnKEGYz/IKbkFVoiVViYUnHcJRVLqPaF4o76hQygC1sLmHL4T+ua6pRbx2spOLLlH57oECDQoEwLMw1oKpd9IJbWXsVPr/vJwEOBJvHC7vPX7RQssEG8FwtM6DVX44EeBQgghV9Q1igmQFt6hKJgFaV6M4lq5Pfu7Bm+55K50BrxyDMwjJsNNIU3unmAzTxAARMGgDH+BgFT8V+8VzMSyMqXcKAbyBwN9l/Ry5bARwur1PYvEiQpFm7HGPhRVo/YtWWZkEKiLAytRzC6vm1oU4uJb71NqmVnEPSoDQpShk36L05SGF809J5ndcJGI6+TmtXb3U0tlNLdz1ITXb1t1DHVw+ZOpEPy+XfTFlAcCawPphrwDhA5SUYPh4K6vkE8tKALvL8xqUX8qeOzxd5P/HFyD4AyUCwiH4Gu3c8ppY6Q3c8hplKO+bWTHt3b3UxYrqGxwWmUkob0wkVfaHfJQpkPtYfA4CDYvh1xGh0C7uczs49m7jZypo7+kX97rY9PdiAyr+/r5Ql7RE1mhCyhlgaB2pY7T+QFERoqYsTM+TSbBsBPgX9q/BtrCIaYdZWPvkvu7A6zf/rgHCgKKQGevmPrFdVlCrgu5JKEqDwjo4hsauYFBqtwy87wT4Pj7H99rFd6Xvd/YPiM+7Bob4WUPUw6TCc4fliGcxrc1cFxoA5lJg5VCxlAfA7GBbfHz8sXGTVmBJCSAYZnd79oAASHAgm4d5a0vtlEUkgiIYbsGj40iUsJM0PEq9QyPUw5aiezAShmTw+4Hpn0PBPfz/fQD/1gBbEPyuYkWW098Ik4BoZFg4gkRZSXm52FvY6fWVbNq0CXsHHxW3xN2AsACnnnrq0Q6Xx4AYvVohgBjHXt7WMNuFYsC0Y83/GJcL5BiRMTwGjIeB78mfj7KQx0RXIecxol0Z+ZqYUAgwIrbgw1ZyLo+XnG5PU0JCwjeWiwBHPPHEE8fZnO6iQnZAatgrVyyAkt9fuZbmEuEgExoWQCGAw+0mu9PVwwTA7OAldwSFBXjq5Ze/YHU4q5Czx7Yr2MJsWEWAFRIszTVpASYJYMeQstPZvzUh4UxZ+UtvAZgAXzTa7LW+YJAqq6vFsC4KNb5CgCW9IhEAO4ubbLbBzZs3n7VsBGCP80t6s6Xe4wtQOYeBKMyQCAMns4Ar1+JfCgGGQgQoJyvmU1isQ++///45cZNR2tJ2AY/Hx38532BsdLi9goVtcmp2hQBLewkC7JfCQOxqUlJWRmabnQqMppH//95758n6UXIBi04C5UePePqll76SV6BrNtscYjQK070H5EzgxAoBluwSmcBxaQEptreBE2602ogb4+jf33nnwuUgAH78E8888+LXM3M1rVjlgwEhzGvHjFaM6e+X5wKsXIt3hQaEENKKwaABsZmlP1hIOpOJcgsKxv+xcePFcZL5X1ICCCeDfYAT9mZktiurfHAoBE4GATOVZVFiKtP+FSwK5GlhyiaX2HUNB0y6fD7K1+spMy9v/xtvvXXZshHg2Wdf+E7S3tSOjNw8OCBiR0tMbsSqIOxsDSIoO29Ge8etwwFDw9I+xtgqTuwT1NIq5k5aOQLIyddSRk7uxLq3375CVv6yEOCkhJSUrpSMLLH5A1YHYX8gnGmDbU2xSxhCwxUsDjq6OoVMsYchDpCoqq0VM4sNFgtl5OZSWlYW/fXNN6+MkzKBRy01AY549oUXTt6+O6kncW8aZeRpCPsE+oqKxMggxgZqG+qprrGBfYMVHCwUOdaxTGH2K2tqqJi9f6fXy+bfQKmZmbSX8fK6dT9TEWBJQsEQAeLjX/rBloRdvQkpe2lvVg5p2Rm0e7xiyjMOXCipwDBxBVuFFSwmSssx/6KUkICzOOyUq82nlPR0scvpa+s3XLtcBDjy6fj4MzfvTOjHFuzJ6ZmiGzA5nOTy+8VEzkBxMYeHxVS4gkUGy7awUKytNFjMlJWXR8mpqYIEr7/xxhrWzSdlLN4Uru0AAA2SSURBVC0B/vz882d/tGPnIHcDlJSWTtnaAnHWDiICLHrwBoOCpb5gYAWLDA83MrvbxeGfkfv/HErcs5eS09Lo1TffvHnZCPBM/Ivnfbht+/C23YmUmJpGmeyJFnA0gLVuTg5N3FxIT4ALG/CvYJHh8nnZ+8fei3pKz86mXSl7hA7+um7d7aybo2UsKQE+wQS48F/bdozgWJXde1PZEcxnP8Ai1vnBF0B86o4AVxgifWcFs8Pp8ZDZbieNXscOYBYlJKdQIuvg1TfeuJN1c8xyEOCoZ+LjL/lgy7axzQm7aBeboPTcPNIYTRwNOMjmdpPDi11DPB8veJbhHgPm32i1Uh53u3syMmhHYpLQwV/XvXn3chAASYajnoyPv/yDLVv3bdqRQDvZBKXm5FIehyR6q12s8rW5UVD3nHB4uMtgOObx3VgGnDKYZ9Rn1nu++d7zTbsn4HKx+XeSzmymnHyOANj/2r57NyWwDv72+vr7WDf/ttQEQIjxySeefu7K9zdv2f/R9p3iMCaEgjkcCegsNtENwBewcWFnAtjtDfjI4nKSkfszt9/L5s076//EKhCPWxwO4ZG7hYPmFvew90FWniZ0D4o222yUrVHf82Esn3I0+bJzJ91DC8ehFiCB+llQvpmfVcDWNpt/O4n7/q3cDaMb+Nu6dQ/JBFiy2cEhAjzy1FPXvLtpC7EfQNsSkyklI5uyC3SkZUfQyP2T2eESK32x+0c4HGwdctha3PviFrrkwV108UPJdP2fttIHu9MEMWBBIv1fLAKpWIyGPvrks/SdE79HGeyUIQrCvQcf+RN97/snU44ggXTvdw88RCefcipp2Hxjaxjcu+ve39Opp51OBSwT3MMsqzt+/Vs648z/JgO3dKfHG3oeSIVzBLHJVmauhvv+vbRl5y7aCQK8vv5R1s2nlpIAR8oEOObRp566/r1NrLSt22krh4LIBSASyGdHUM8FRGbQKG99Ygq9OoVyc7miV/5hO53/fB09bpyg5z1EN27qo9PuzqZ/btsjfAjl+9L/xi5A9MLSUvrV3b+nLx3/ZdrBPpHYL6GklG694y76yle+SruTkwlL6LGA4+e33Epf/a+vUQq3XNzDauHVa26kr339G5TGDp3bHxTJtJ9du5q+ecIJlM2+FfYRUJ4H5eu5kWF/pXTudhEBbN4JK5xMr6xb9wTr5tNxkhVYdAIoDiBizE899NhjN8ECvL9lG23ZxaEgEyBdo6U8o5kK2A/Qc2EBQxgsbMZefieJznqunl4IEKV3Eun7iHa0EK3dvo/WPp3K3YhZEGjy/+xk4IqL1+XGHM81sjmGYu9+8I/0DVZYAjtknmCQAnzvznvuoxO+9W1KYgcNFgDK/sUdvxb39qani3tQNkjx7e98V7IebAFwyOXqtTfSid87ibsGjYiqRDmgfKtN7CWYi3OOsrKF6f9o+w7azlb45dfXP8u6+felJgAcjE8/8Mhjt7/z0RZ6l63ApoRE2pWaSWl5WnE8jJYJoLM5VHCG3hsddnpiQyZd8r/D9GYxkWuQqHSMKJeJ8HsN0VV/8YiuBATAiaMh2BxT/54T9sWBbfbPDVwunOz1u0eeou+e9H3axf4Qdk7Hxtm/uf9hOpHvJXGI5kByjL93x29/T987+WTam5FJTp+UNb3ll3fS9085hWP6HHJw/+/le2tvuY27hdPYX8gnK3eLeJaOlQ8fCxtrZWu14mjbHaz4D9kKIyH3wt9ee55185k4qRtQBoQWnQDoXz5z/8MP//adDzdLBNiZSAmpGZTKBMjRmynfYhcnXUWCnvuxjYlmWvVaP/1BT5TYTJTfTfROJdHVWyfovn8EhB9RwILFfvk4MKEglsHl9LCyH3gink457Qxhkm04Q5lb9r1/fIpOPf0MdtTSycZm3F1YTL++/4/0gzPOYAJksWI5rufu4vbf3EuncX8Pk25FDiVYSDdz93HG2WcLAphdHqH8Ala+tI+wibLY2qYwibax4v/FVhgJuRdffRXHyR+7HAQ49r4H//DARibARrYCH+7cTTv3ZtCeXC1l6syUa3ZQvtXFcFK+zaWCU0Dn9NKfdzTThW+N000pE3RX9gRduXk/3bKxjzLMRaS1O0PfFcCJI1bpvVYmRayggMvkKiyhh555kU4/+xxK2JNKFla2i5V93+PPsRLPpaS0DLKwsl2s7LsffpLO5Ht7MrPFiWC496vfPURnnnMupTEBcEqIk32DW3/zOzpr1SqhaKPTzY3CJhpGPhMgjwmQwY0tibvdrdz9vr95q4gE/vLKX9ezbj4bJ/kByoDQoilfyQGAAJ/77f33PwwC/JMJ8MGO3bRtTzol5eRTGhMgy+SgXCaAgM2tgksgj+EoqaJdtj56fPcIPbBjlN7KHSJrcTPpXD7+P6f8Xec05FljCxqGPVhCDz/7Ip11wUXCEho9HLoFi+n+J/6Hzjr/IvaPssjAyrYHiuieR56ms/leSlYuGVwc9voL6c77/kjnXHAhpbJXjyPibL4g3XbPA3TuhRdRBhNA53CTxmQjjZGVb7RQts7I3W0+7eZnbWLFv8e+2GaOBJ574aUNrJsvLDYBjoibSgA4GF+4fs2Nd7717vv7//khO4Lbd9OWlHTalZ1PewpMlG7k+NfioiyrDEtkmFlw/poGCtQ1kbOsknLtHsq0OOXPnQLZCqyq97PCMQvCP4/w/2aAyw+Y5gDqabKTyVdMf3zuJTrv0ito+95Mynd4yegtpAee/B8675LLKSE9m/K5bkZvkO559Gk674eXUWJmjrCKRk9AdAvnXXwpJWfnCUIZ3X66/d4HadUll9He3HzK4y41i7vWLB2bflZ+ulZPe/i7O7nRfbhjF6Er/nDbTrrvoYfjWTdfUhFgUbqASAT4z+OPP/7yl15fX/UO+wDv8MM/YgLsyNJQUr6J9hjslGp0UqoJcMlwquCiNNzj7+xlIabKSOPPgHT+TMCM9wpcqvezwcH/55j6Gv4+AtKMatinIFUNw3Ro3YX0yF/+RhddeQ1t2ZvFxHVTvitADz77Al3045/RtrRsJhR3gU4/3fv4n+nCK35KO9NzKZOfq3H46K6HHqMLLv8J7crke0Zu6UyW27lbuPDyH1NitoYy9Fbam2+QoNFTSl4B7ebvbktJ5caXwF3ANnr73ff7Tj39dJwi+pUwAhw0CSJaAMbpHKv+/a133t//3tad9K/de2hrhoZ2aYyUpLNTksFJyXPCJZBinAEm9d9O1eviQyqPYyr0DkrS2yNDJyGxwEZZjgA99sobdMWam+mj1Bzaw7+XafPRH5gUl19/E21Oy6UU/q0Mq5fue/p5+tF1a2gL7umslMFk+Q1HEJdevZq2MSmStSZB5DseeIQuueoa2pGZR8n5Rtqdq6PEPEYuKz9bSzvSc2hz4l5hAf7FDfD2X9+1k3WyivHlpSSA4gTizPoTGddd8dOrdr28/u/9H2zfRdvY/CVw4RLzDJQEIrA1SGYkyUhWvaJSSYxkfE+j3JvE5Pfl78lQv1f+Dr8X6bPw9+p7AqIchmlIlKF+n5inn4JMbt0PPfcKrbriKvpg915K0Zopgy3J7zgywL0PE1MphZ+RwdbiNxwZrPrRT2hTUhrXXU/pegvdwT7AeZf9WHSjSazgdPajbmUf4ILLrxQyTYbS2bomykDrT+Cwe8vuZNrwz3fHbrz5Vh3r4lcM7BX4xTgpCvhEmO4WhQRKHgDbkmIpMlai/PK44z73j4svudS0es3a0mvXrK269oa1NdfesKbumhvWNFxzw9oG/lu8SlgzFdff0BgJ105933Q1sFp+VUH9HfX/XLP6+kb150D439esjvxsUa7V8ufqsq6O8MpYe9PNDRf+8EeNJ510UuPV117XeN2anzesvfHmhgsuupjvfb/xmmtXNyj3Vl14UeNJ3+d7193QwPKqF/cuuLDh5JNPabyWfwv31tx4k/jfM848s/G669c0XnfDmsarV1/fhDrJ5WKZrqm59PL/5/vi8cfvYB1gDOBHjO/IjVOdCFp0AiATiGQDTM3JjMsYtzEeY7zIWMfAhkXwSN+KgA2qV+BtGf8Iex+O/53hvRpvzxNvqV7V5VLj7zLeDIP63hszIPyz9bJcIuF1Ga8xXlXhNRnK99S/jd9DzP8UA6eF/CROav04Pew/4qaOBi6qI6iMBcDEfI7xdcYPGFiRcjUDTsgvGLercJuMWyNA+ez2CFB/Fv6d28L+P9Jv/yICbgl7H46bI+CmGXBjGH6uQvjfwFoZayK83iDj+givyveU371Jfo/PfirLHjqARf583GQSaFEJEBenmg0UJ1mBT8sP/BrjJMYZDKxOhSNyPuMCGefLWKV6H44LFoDzw373ggi/tyoCzlO9RsK5qtdwnKN6nQ1nz4GzVK/zxTmq56vL899xkuJPlHUAxxzjAEfHLeEmEQoBjpIfBBIg8wTHA+YHLDxBhW+qcMIs+FYYZvr8hLDXmb4fCd9cRHzjAPH1BeJr8qv6N5Tn4zN0w/8ZJ/lkivKXZ4+guEkSwOEAEeAXoP85Vi7QfPHZBSLS/yzkeUuBY1X1PnYJEf5MyFsZ/VvSlh9+hfsEYpKICkfPA8csA+ZTjkMViqwhe0Xxy6L88Cs8T7CC5cOihXkr18q1cn1cr/8DH55G3x8p6ksAAAAASUVORK5CYII=;fontColor=#006600;" vertex="1" parent="1">
                    <mxGeometry x="886" y="405" width="48" height="48" as="geometry"/>
                </mxCell>
                <mxCell id="30" value="&lt;font style=&quot;font-size: 14px&quot;&gt;&lt;b&gt;* Each partition is fully contained in a single disk drive&lt;br&gt;* x1, x2, ..., x5 Might be equal! (i.e., all or some partitions might share the same disk drive)&lt;br&gt;* Each topic has a replication factor, determining how many replicas each partition should have&lt;br&gt;&lt;/b&gt;&lt;/font&gt;" style="text;html=1;strokeColor=none;fillColor=none;align=left;verticalAlign=middle;whiteSpace=wrap;rounded=0;labelBackgroundColor=none;fontColor=#006600;" vertex="1" parent="1">
                    <mxGeometry x="160" y="495" width="650" height="60" as="geometry"/>
                </mxCell>
                <mxCell id="31" value="" style="endArrow=classic;startArrow=classic;html=1;fontSize=14;fontColor=#FF3333;strokeColor=#006600;strokeWidth=1;entryX=0.25;entryY=1;entryDx=0;entryDy=0;exitX=1;exitY=0.5;exitDx=0;exitDy=0;dashed=1;" edge="1" parent="1" source="28" target="8">
                    <mxGeometry width="50" height="50" relative="1" as="geometry">
                        <mxPoint x="830" y="425" as="sourcePoint"/>
                        <mxPoint x="880" y="375" as="targetPoint"/>
                    </mxGeometry>
                </mxCell>
                <mxCell id="32" value="&lt;font style=&quot;font-size: 12px&quot; color=&quot;#006600&quot;&gt;Replica&lt;/font&gt;" style="edgeLabel;html=1;align=center;verticalAlign=middle;resizable=0;points=[];fontSize=14;fontColor=#FF3333;" vertex="1" connectable="0" parent="31">
                    <mxGeometry x="-0.4455" y="-2" relative="1" as="geometry">
                        <mxPoint x="17" y="-15" as="offset"/>
                    </mxGeometry>
                </mxCell>
            </root>
        </mxGraphModel>
    </diagram>
</mxfile>